<svg width="600px" height="400px" viewBox="0 0 600 400" xmlns="http://www.w3.org/2000/svg" x="0px" y="0px">
<rect id="Background" x="16.4" y="14" fill="#262626" width="568.6" height="375"/>
<linearGradient id="SVGID_1_" gradientUnits="userSpaceOnUse" x1="0.75" y1="200.25" x2="600" y2="200.25">
	<stop  offset="0" style="stop-color:#00FFED"/>
	<stop  offset="8.543723e-02" style="stop-color:#09FCE6"/>
	<stop  offset="0.2276" style="stop-color:#23F4D4"/>
	<stop  offset="0.409" style="stop-color:#4DE7B7"/>
	<stop  offset="0.6226" style="stop-color:#86D58E"/>
	<stop  offset="0.8604" style="stop-color:#CFBE5A"/>
	<stop  offset="0.9944" style="stop-color:#FBB03B"/>
</linearGradient>
<path fill="url(#SVGID_1_)" d="M0.8,0.5V400H600V0.5H0.8z M583.4,384.9H17.3V15.6h566.1V384.9z"/>
<g>
	<path fill="#FCEE21" d="M34,52.3l-1.1,1.1c-3.5-2.9-5.6-5.8-5.6-10.7s2.1-7.8,5.6-10.7l1.1,1.1c-3.1,2.8-4.5,5.2-4.5,9.6
		C29.5,47.1,30.9,49.5,34,52.3z"/>
	<path fill="#00FFFF" d="M49.9,34.7l-0.7,1.5c-0.7-0.3-1.6-0.5-2.5-0.5c-1.5,0-2.3,0.6-2.3,1.8v2.2h3.9l-0.2,1.6h-3.6v9h-2.1v-9
		h-2.7v-1.6h2.7v-2.2c0-2.1,1.8-3.5,4.3-3.5C47.9,34,48.9,34.3,49.9,34.7z"/>
	<path fill="#00FFFF" d="M54.9,47c0,1.4,0.6,2,1.8,2c1.2,0,2.3-0.8,2.9-1.7v-8.4h2.1v11.4h-1.8l-0.2-1.5c-0.9,1.2-2.3,1.8-3.6,1.8
		c-2.2,0-3.3-1.3-3.3-3.4v-8.3h2.1V47z"/>
	<path fill="#00FFFF" d="M65.8,38.9h1.8l0.2,1.5c0.9-1.2,2.4-1.8,3.8-1.8c2.2,0,3.2,1.3,3.2,3.4v8.3h-2.1v-7c0-2.2-0.2-3.1-1.8-3.1
		c-1.3,0-2.3,0.9-2.9,1.8v8.3h-2.1V38.9z"/>
	<path fill="#00FFFF" d="M87.1,47.9l1,1.3c-1,0.8-2.5,1.4-3.9,1.4c-3.5,0-5.5-2.3-5.5-5.9c0-3.5,2-6.1,5.5-6.1
		c1.5,0,2.8,0.5,3.9,1.4l-1,1.3c-1-0.7-1.9-1-2.9-1c-1.9,0-3.3,1.4-3.3,4.3c0,3,1.4,4.2,3.3,4.2C85.3,48.8,86.3,48.4,87.1,47.9z"/>
	<path fill="#00FFFF" d="M98,50.6c-2.6,0-4-1.5-4-3.6v-6.6h-2.6v-1.6h2.6v-2.6l2.1-0.2v2.8h3.9l-0.3,1.6h-3.7V47
		c0,1.3,0.6,1.9,2.1,1.9c0.8,0,1.6-0.2,2.2-0.5l0.8,1.4C100.4,50.3,99.2,50.6,98,50.6z"/>
	<path fill="#00FFFF" d="M110.9,48.8h3.2v1.6h-8.8v-1.6h3.5v-8.3h-3.4v-1.6h5.5V48.8z M110.8,34.8c0,0.8-0.6,1.4-1.5,1.4
		c-0.8,0-1.4-0.6-1.4-1.4c0-0.8,0.6-1.4,1.4-1.4C110.2,33.4,110.8,34,110.8,34.8z"/>
	<path fill="#00FFFF" d="M127.4,44.6c0,3.6-1.8,6-5,6c-3.3,0-5-2.3-5-6c0-3.6,1.8-6,5.1-6S127.4,41,127.4,44.6z M119.6,44.6
		c0,3,0.9,4.3,2.8,4.3c1.9,0,2.8-1.4,2.8-4.3c0-3-0.9-4.3-2.8-4.3C120.5,40.3,119.6,41.7,119.6,44.6z"/>
	<path fill="#00FFFF" d="M131,38.9h1.8l0.2,1.5c0.9-1.2,2.4-1.8,3.8-1.8c2.2,0,3.2,1.3,3.2,3.4v8.3h-2.1v-7c0-2.2-0.2-3.1-1.8-3.1
		c-1.3,0-2.3,0.9-2.9,1.8v8.3H131V38.9z"/>
	<path fill="#FF00FF" d="M164.3,52.3l-1.1,1.1c-3.5-2.9-5.6-5.8-5.6-10.7s2.1-7.8,5.6-10.7l1.1,1.1c-3.1,2.8-4.5,5.2-4.5,9.6
		C159.8,47.1,161.2,49.5,164.3,52.3z"/>
	<path fill="#FF00FF" d="M171.7,33.2l1.1-1.1c3.5,2.9,5.6,5.8,5.6,10.7s-2.1,7.8-5.6,10.7l-1.1-1.1c3.1-2.9,4.5-5.2,4.5-9.6
		C176.2,38.3,174.8,36,171.7,33.2z"/>
	<path fill="#FF00FF" d="M203.9,33.8c-1.6,0-2.7,0.4-2.6,1.7l0.4,4.3c0.2,1.9-0.6,2.8-2.2,3c1.7,0.3,2.4,1,2.2,3l-0.4,4.3
		c-0.1,1.3,1.1,1.7,2.6,1.7v1.6c-2.7,0-4.8-0.8-4.5-3.5l0.4-4c0.2-1.5-0.5-2.3-3.3-2.3v-1.7c2.8,0,3.4-0.7,3.3-2.2l-0.4-4
		c-0.3-2.7,1.8-3.5,4.5-3.5V33.8z"/>
	<path fill="#00FFFF" d="M61,73.9l1,1.3c-1,0.8-2.5,1.4-3.9,1.4c-3.5,0-5.5-2.3-5.5-5.9c0-3.5,2-6.1,5.5-6.1c1.5,0,2.8,0.5,3.9,1.4
		l-1,1.3c-1-0.7-1.9-1-2.9-1c-1.9,0-3.3,1.4-3.3,4.3c0,3,1.4,4.2,3.3,4.2C59.2,74.9,60.2,74.5,61,73.9z"/>
	<path fill="#00FFFF" d="M75.3,70.7c0,3.6-1.8,6-5,6c-3.3,0-5-2.3-5-6c0-3.6,1.8-6,5.1-6S75.3,67,75.3,70.7z M67.5,70.7
		c0,3,0.9,4.3,2.8,4.3c1.9,0,2.8-1.4,2.8-4.3c0-3-0.9-4.3-2.8-4.3C68.4,66.4,67.5,67.7,67.5,70.7z"/>
	<path fill="#00FFFF" d="M78.9,65h1.8l0.2,1.5c0.9-1.2,2.4-1.8,3.8-1.8c2.2,0,3.2,1.3,3.2,3.4v8.3h-2.1v-7c0-2.2-0.2-3.1-1.8-3.1
		c-1.3,0-2.3,0.9-2.9,1.8v8.3h-2.1V65z"/>
	<path fill="#00FFFF" d="M98.6,73.3c0-1-0.3-1.5-2.8-2.1c-2.3-0.6-3.8-1.3-3.8-3.3c0-2,1.8-3.2,4.4-3.2c1.9,0,3.3,0.6,4.3,1.3
		l-0.9,1.4c-0.9-0.6-1.9-1-3.3-1c-1.7,0-2.3,0.6-2.3,1.4c0,1,0.7,1.3,3,1.9c2.2,0.6,3.7,1.4,3.7,3.5c0,2.5-2.4,3.5-4.9,3.5
		c-2.1,0-3.6-0.7-4.6-1.6l1.1-1.3c0.9,0.7,2.1,1.2,3.4,1.2C97.6,75,98.6,74.4,98.6,73.3z"/>
	<path fill="#00FFFF" d="M111,76.7c-2.6,0-4-1.5-4-3.6v-6.6h-2.6V65h2.6v-2.6l2.1-0.2V65h3.9l-0.3,1.6h-3.7v6.5
		c0,1.3,0.6,1.9,2.1,1.9c0.8,0,1.6-0.2,2.2-0.5l0.8,1.4C113.4,76.3,112.2,76.7,111,76.7z"/>
	<path fill="#984FAA" d="M140.3,75.2l-0.5,1.4c-1-0.1-1.8-0.6-2.2-1.6c-0.8,1.1-2.1,1.6-3.6,1.6c-2.3,0-3.7-1.4-3.7-3.5
		c0-2.4,1.9-3.7,5.4-3.7h1.7v-0.8c0-1.6-1-2.2-2.6-2.2c-0.8,0-1.8,0.2-3,0.6l-0.5-1.5c1.4-0.5,2.7-0.8,3.9-0.8c3,0,4.4,1.4,4.4,3.8
		v5.3C139.4,74.7,139.7,75,140.3,75.2z M137.3,73.6v-2.8h-1.5c-2.4,0-3.3,0.9-3.3,2.3c0,1.3,0.7,2,2.1,2
		C135.7,75.1,136.7,74.5,137.3,73.6z"/>
	<path fill="#984FAA" d="M153.5,70.7c0,3.5-1.5,6-4.4,6c-1.2,0-2.2-0.4-3-1.3v5.4l-2.1,0.3V65h1.8l0.2,1.5c0.8-1.2,2-1.8,3.4-1.8
		C152.4,64.7,153.5,67,153.5,70.7z M146.1,68.1v5.5c0.6,0.8,1.5,1.4,2.5,1.4c1.8,0,2.7-1.3,2.7-4.3s-0.8-4.3-2.5-4.3
		C147.6,66.3,146.7,67.2,146.1,68.1z"/>
	<path fill="#984FAA" d="M166.5,70.7c0,3.5-1.5,6-4.4,6c-1.2,0-2.2-0.4-3-1.3v5.4l-2.1,0.3V65h1.8l0.2,1.5c0.8-1.2,2-1.8,3.4-1.8
		C165.4,64.7,166.5,67,166.5,70.7z M159.1,68.1v5.5c0.6,0.8,1.5,1.4,2.5,1.4c1.8,0,2.7-1.3,2.7-4.3s-0.8-4.3-2.5-4.3
		C160.7,66.3,159.8,67.2,159.1,68.1z"/>
	<path fill="#ED1C24" d="M191.9,68.4h-8.7v-1.8h8.7V68.4z M191.9,72.6h-8.7v-1.8h8.7V72.6z"/>
	<path fill="#F2F2F2" d="M218.6,75.2l-0.5,1.4c-1-0.1-1.8-0.6-2.2-1.6c-0.8,1.1-2.1,1.6-3.6,1.6c-2.3,0-3.7-1.4-3.7-3.5
		c0-2.4,1.9-3.7,5.4-3.7h1.7v-0.8c0-1.6-1-2.2-2.6-2.2c-0.8,0-1.8,0.2-3,0.6l-0.5-1.5c1.4-0.5,2.7-0.8,3.9-0.8c3,0,4.4,1.4,4.4,3.8
		v5.3C217.7,74.7,217.9,75,218.6,75.2z M215.6,73.6v-2.8H214c-2.4,0-3.3,0.9-3.3,2.3c0,1.3,0.7,2,2.1,2
		C213.9,75.1,214.9,74.5,215.6,73.6z"/>
	<path fill="#F2F2F2" d="M232.2,67.9v8.5h-1.9v-8.2c0-1.3-0.1-1.9-0.8-1.9c-0.6,0-1.3,0.4-1.9,1.3v8.8h-1.8v-8.2
		c0-1.3-0.1-1.9-0.8-1.9c-0.7,0-1.3,0.4-1.9,1.3v8.8h-1.9V65h1.6l0.2,1.3c0.6-0.9,1.3-1.6,2.5-1.6c0.9,0,1.7,0.4,2,1.5
		c0.6-0.9,1.4-1.5,2.5-1.5C231.1,64.7,232.2,65.3,232.2,67.9z"/>
	<path fill="#F2F2F2" d="M244.6,75.2l-0.5,1.4c-1-0.1-1.8-0.6-2.2-1.6c-0.8,1.1-2.1,1.6-3.6,1.6c-2.3,0-3.7-1.4-3.7-3.5
		c0-2.4,1.9-3.7,5.4-3.7h1.7v-0.8c0-1.6-1-2.2-2.6-2.2c-0.8,0-1.8,0.2-3,0.6l-0.5-1.5c1.4-0.5,2.7-0.8,3.9-0.8c3,0,4.4,1.4,4.4,3.8
		v5.3C243.7,74.7,244,75,244.6,75.2z M241.6,73.6v-2.8h-1.5c-2.4,0-3.3,0.9-3.3,2.3c0,1.3,0.7,2,2.1,2C240,75.1,241,74.5,241.6,73.6
		z"/>
	<path fill="#F2F2F2" d="M257.1,74.7l-0.2,1.7h-8.6v-1.6l6.3-8.1h-5.8V65h8.2v1.6l-6.2,8.1H257.1z"/>
	<path fill="#F2F2F2" d="M267.3,74.8h3.2v1.6h-8.8v-1.6h3.5v-8.3h-3.4V65h5.5V74.8z M267.2,60.9c0,0.8-0.6,1.4-1.5,1.4
		c-0.8,0-1.4-0.6-1.4-1.4c0-0.8,0.6-1.4,1.4-1.4C266.7,59.5,267.2,60.1,267.2,60.9z"/>
	<path fill="#F2F2F2" d="M274.4,65h1.8l0.2,1.5c0.9-1.2,2.4-1.8,3.8-1.8c2.2,0,3.2,1.3,3.2,3.4v8.3h-2.1v-7c0-2.2-0.2-3.1-1.8-3.1
		c-1.3,0-2.3,0.9-2.9,1.8v8.3h-2.1V65z"/>
	<path fill="#F2F2F2" d="M297.4,65.5c-0.9,0.3-2,0.3-3.3,0.3c1.4,0.6,2,1.6,2,2.9c0,2.3-1.6,3.9-4.4,3.9c-0.7,0-1.2-0.1-1.6-0.2
		c-0.3,0.2-0.5,0.6-0.5,1c0,0.5,0.3,0.9,1.5,0.9h2c2.4,0,4.1,1.3,4.1,3.1c0,2.3-2,3.5-5.6,3.5c-3.8,0-5-1.2-5-3.5h1.9
		c0,1.3,0.6,1.9,3.1,1.9c2.5,0,3.5-0.6,3.5-1.8c0-1-1-1.6-2.4-1.6h-2c-2.1,0-3-1-3-2.2c0-0.7,0.4-1.5,1.3-2
		c-1.3-0.7-1.9-1.7-1.9-3.2c0-2.4,1.9-4,4.6-4c2.8,0,3.9-0.4,5.3-1L297.4,65.5z M289.1,68.7c0,1.5,0.8,2.5,2.6,2.5
		c1.5,0,2.4-0.9,2.4-2.6c0-1.6-0.8-2.5-2.4-2.5C289.9,66.2,289.1,67.2,289.1,68.7z"/>
	<path fill="#00FFFF" d="M61,100l1,1.3c-1,0.8-2.5,1.4-3.9,1.4c-3.5,0-5.5-2.3-5.5-5.9c0-3.5,2-6.1,5.5-6.1c1.5,0,2.8,0.5,3.9,1.4
		l-1,1.3c-1-0.7-1.9-1-2.9-1c-1.9,0-3.3,1.4-3.3,4.3c0,3,1.4,4.2,3.3,4.2C59.2,101,60.2,100.6,61,100z"/>
	<path fill="#00FFFF" d="M75.3,96.7c0,3.6-1.8,6-5,6c-3.3,0-5-2.3-5-6c0-3.6,1.8-6,5.1-6S75.3,93.1,75.3,96.7z M67.5,96.8
		c0,3,0.9,4.3,2.8,4.3c1.9,0,2.8-1.4,2.8-4.3c0-3-0.9-4.3-2.8-4.3C68.4,92.4,67.5,93.8,67.5,96.8z"/>
	<path fill="#00FFFF" d="M78.9,91h1.8l0.2,1.5c0.9-1.2,2.4-1.8,3.8-1.8c2.2,0,3.2,1.3,3.2,3.4v8.3h-2.1v-7c0-2.2-0.2-3.1-1.8-3.1
		c-1.3,0-2.3,0.9-2.9,1.8v8.3h-2.1V91z"/>
	<path fill="#00FFFF" d="M98.6,99.4c0-1-0.3-1.5-2.8-2.1C93.5,96.7,92,96,92,94c0-2,1.8-3.2,4.4-3.2c1.9,0,3.3,0.6,4.3,1.3l-0.9,1.4
		c-0.9-0.6-1.9-1-3.3-1c-1.7,0-2.3,0.6-2.3,1.4c0,1,0.7,1.3,3,1.9c2.2,0.6,3.7,1.4,3.7,3.5c0,2.5-2.4,3.5-4.9,3.5
		c-2.1,0-3.6-0.7-4.6-1.6l1.1-1.3c0.9,0.7,2.1,1.2,3.4,1.2C97.6,101.1,98.6,100.4,98.6,99.4z"/>
	<path fill="#00FFFF" d="M111,102.7c-2.6,0-4-1.5-4-3.6v-6.6h-2.6V91h2.6v-2.6l2.1-0.2V91h3.9l-0.3,1.6h-3.7v6.5
		c0,1.3,0.6,1.9,2.1,1.9c0.8,0,1.6-0.2,2.2-0.5l0.8,1.4C113.4,102.4,112.2,102.7,111,102.7z"/>
	<path fill="#984FAA" d="M135.9,101.1c1.1,0,2-0.3,3-1l0.9,1.3c-1.1,0.8-2.5,1.4-4,1.4c-3.4,0-5.4-2.4-5.4-6c0-3.5,2-6,5.1-6
		c3,0,4.8,2.2,4.8,5.7c0,0.4,0,0.8,0,1h-7.7C132.8,100,134.2,101.1,135.9,101.1z M132.7,95.9h5.7c0-2.3-1.1-3.6-2.7-3.6
		C134,92.4,132.8,93.5,132.7,95.9z"/>
	<path fill="#984FAA" d="M143,102.5l4.2-6l-3.7-5.4h2.4l2.5,4.1L151,91h2.3l-3.7,5.3l4.2,6.1h-2.5l-3-4.8l-3,4.8H143z"/>
	<path fill="#984FAA" d="M166.5,96.7c0,3.5-1.5,6-4.4,6c-1.2,0-2.2-0.4-3-1.3v5.4l-2.1,0.3V91h1.8l0.2,1.5c0.8-1.2,2-1.8,3.4-1.8
		C165.4,90.7,166.5,93.1,166.5,96.7z M159.1,94.2v5.5c0.6,0.8,1.5,1.4,2.5,1.4c1.8,0,2.7-1.3,2.7-4.3s-0.8-4.3-2.5-4.3
		C160.6,92.4,159.7,93.2,159.1,94.2z"/>
	<path fill="#984FAA" d="M175,101.1c1.1,0,2-0.3,3-1l0.9,1.3c-1.1,0.8-2.5,1.4-4,1.4c-3.4,0-5.4-2.4-5.4-6c0-3.5,2-6,5.1-6
		c3,0,4.8,2.2,4.8,5.7c0,0.4,0,0.8,0,1h-7.7C171.9,100,173.3,101.1,175,101.1z M171.8,95.9h5.7c0-2.3-1.1-3.6-2.7-3.6
		C173.1,92.4,171.9,93.5,171.8,95.9z"/>
	<path fill="#984FAA" d="M192.7,91l-0.3,4h-1.6v-2.4h0c-1.7,0-3,1.3-3.7,3.7v4.6h2.3v1.5h-6.2v-1.5h1.8v-8.4h-1.8V91h3.3l0.4,2.7
		c0.9-1.9,2.1-2.9,4.1-2.9C191.7,90.8,192.2,90.9,192.7,91z"/>
	<path fill="#984FAA" d="M202.1,100.9h3.2v1.6h-8.8v-1.6h3.5v-8.3h-3.4V91h5.5V100.9z M202.1,86.9c0,0.8-0.6,1.4-1.5,1.4
		c-0.8,0-1.4-0.6-1.4-1.4c0-0.8,0.6-1.4,1.4-1.4C201.5,85.6,202.1,86.2,202.1,86.9z"/>
	<path fill="#984FAA" d="M214.1,101.1c1.1,0,2-0.3,3-1l0.9,1.3c-1.1,0.8-2.5,1.4-4,1.4c-3.4,0-5.4-2.4-5.4-6c0-3.5,2-6,5.1-6
		c3,0,4.8,2.2,4.8,5.7c0,0.4,0,0.8,0,1h-7.7C211,100,212.4,101.1,214.1,101.1z M210.9,95.9h5.7c0-2.3-1.1-3.6-2.7-3.6
		C212.2,92.4,211,93.5,210.9,95.9z"/>
	<path fill="#984FAA" d="M222.2,91h1.8l0.2,1.5c0.9-1.2,2.4-1.8,3.8-1.8c2.2,0,3.2,1.3,3.2,3.4v8.3h-2.1v-7c0-2.2-0.2-3.1-1.8-3.1
		c-1.3,0-2.3,0.9-2.9,1.8v8.3h-2.1V91z"/>
	<path fill="#984FAA" d="M243.5,100l1,1.3c-1,0.8-2.5,1.4-3.9,1.4c-3.5,0-5.5-2.3-5.5-5.9c0-3.5,2-6.1,5.5-6.1
		c1.5,0,2.8,0.5,3.9,1.4l-1,1.3c-1-0.7-1.9-1-2.9-1c-1.9,0-3.3,1.4-3.3,4.3c0,3,1.4,4.2,3.3,4.2C241.7,101,242.7,100.6,243.5,100z"
		/>
	<path fill="#984FAA" d="M253.2,101.1c1.1,0,2-0.3,3-1l0.9,1.3c-1.1,0.8-2.5,1.4-4,1.4c-3.4,0-5.4-2.4-5.4-6c0-3.5,2-6,5.1-6
		c3,0,4.8,2.2,4.8,5.7c0,0.4,0,0.8,0,1H250C250.1,100,251.5,101.1,253.2,101.1z M250,95.9h5.7c0-2.3-1.1-3.6-2.7-3.6
		C251.3,92.4,250.1,93.5,250,95.9z"/>
	<path fill="#ED1C24" d="M283.1,94.5h-8.7v-1.8h8.7V94.5z M283.1,98.7h-8.7v-1.8h8.7V98.7z"/>
	<path fill="#F2F2F2" d="M306,102.5h-2.4L299.5,91h2.2l3.1,9.6L308,91h2.1L306,102.5z"/>
	<path fill="#F2F2F2" d="M318.4,101.1c1.1,0,2-0.3,3-1l0.9,1.3c-1.1,0.8-2.5,1.4-4,1.4c-3.4,0-5.4-2.4-5.4-6c0-3.5,2-6,5.1-6
		c3,0,4.8,2.2,4.8,5.7c0,0.4,0,0.8,0,1h-7.7C315.3,100,316.7,101.1,318.4,101.1z M315.1,95.9h5.7c0-2.3-1.1-3.6-2.7-3.6
		C316.5,92.4,315.3,93.5,315.1,95.9z"/>
	<path fill="#F2F2F2" d="M336,91l-0.3,4h-1.6v-2.4h0c-1.7,0-3,1.3-3.7,3.7v4.6h2.3v1.5h-6.2v-1.5h1.8v-8.4h-1.8V91h3.3l0.4,2.7
		c0.9-1.9,2.1-2.9,4.1-2.9C335,90.8,335.5,90.9,336,91z"/>
	<path fill="#F2F2F2" d="M345.2,102.5c-0.8,2.5-2.2,4.3-5.3,4.6l-0.3-1.6c2.3-0.4,3-1.3,3.6-3h-0.7L338.6,91h2.2l3.1,9.9l3.1-9.9
		h2.1L345.2,102.5z"/>
	<path fill="#F2F2F2" d="M357,98.8c1.2,0,2,0.9,2,2c0,1.1-0.8,2-2,2c-1.1,0-2-0.9-2-2C355,99.6,355.8,98.8,357,98.8z"/>
	<path fill="#F2F2F2" d="M375,96.7c0,3.5-1.5,6-4.4,6c-1.2,0-2.2-0.4-3-1.3v5.4l-2.1,0.3V91h1.8l0.2,1.5c0.8-1.2,2-1.8,3.4-1.8
		C373.9,90.7,375,93.1,375,96.7z M367.6,94.2v5.5c0.6,0.8,1.5,1.4,2.5,1.4c1.8,0,2.7-1.3,2.7-4.3s-0.8-4.3-2.5-4.3
		C369.2,92.4,368.2,93.2,367.6,94.2z"/>
	<path fill="#F2F2F2" d="M388.2,91l-0.3,4h-1.6v-2.4h0c-1.7,0-3,1.3-3.7,3.7v4.6h2.3v1.5h-6.2v-1.5h1.8v-8.4h-1.8V91h3.3l0.4,2.7
		c0.9-1.9,2.1-2.9,4.1-2.9C387.2,90.8,387.7,90.9,388.2,91z"/>
	<path fill="#F2F2F2" d="M401.1,96.7c0,3.6-1.8,6-5,6c-3.3,0-5-2.3-5-6c0-3.6,1.8-6,5.1-6C399.4,90.7,401.1,93.1,401.1,96.7z
		 M393.3,96.8c0,3,0.9,4.3,2.8,4.3c1.9,0,2.8-1.4,2.8-4.3c0-3-0.9-4.3-2.8-4.3C394.2,92.4,393.3,93.8,393.3,96.8z"/>
	<path fill="#F2F2F2" d="M414.8,86.8l-0.7,1.5c-0.7-0.3-1.6-0.5-2.5-0.5c-1.5,0-2.3,0.6-2.3,1.8v2.2h3.9l-0.2,1.6h-3.6v9h-2.1v-9
		h-2.7v-1.6h2.7v-2.2c0-2.1,1.8-3.5,4.3-3.5C412.8,86.2,413.9,86.4,414.8,86.8z"/>
	<path fill="#F2F2F2" d="M422.7,101.1c1.1,0,2-0.3,3-1l0.9,1.3c-1.1,0.8-2.5,1.4-4,1.4c-3.4,0-5.4-2.4-5.4-6c0-3.5,2-6,5.1-6
		c3,0,4.8,2.2,4.8,5.7c0,0.4,0,0.8,0,1h-7.7C419.5,100,420.9,101.1,422.7,101.1z M419.4,95.9h5.7c0-2.3-1.1-3.6-2.7-3.6
		C420.7,92.4,419.5,93.5,419.4,95.9z"/>
	<path fill="#F2F2F2" d="M437.4,99.4c0-1-0.3-1.5-2.8-2.1c-2.3-0.6-3.8-1.3-3.8-3.3c0-2,1.8-3.2,4.4-3.2c1.9,0,3.3,0.6,4.3,1.3
		l-0.9,1.4c-0.9-0.6-1.9-1-3.3-1c-1.7,0-2.3,0.6-2.3,1.4c0,1,0.7,1.3,3,1.9c2.2,0.6,3.7,1.4,3.7,3.5c0,2.5-2.4,3.5-4.9,3.5
		c-2.1,0-3.6-0.7-4.6-1.6l1.1-1.3c0.9,0.7,2.1,1.2,3.4,1.2C436.4,101.1,437.4,100.4,437.4,99.4z"/>
	<path fill="#F2F2F2" d="M450.5,99.4c0-1-0.3-1.5-2.8-2.1c-2.3-0.6-3.8-1.3-3.8-3.3c0-2,1.8-3.2,4.4-3.2c1.9,0,3.3,0.6,4.3,1.3
		l-0.9,1.4c-0.9-0.6-1.9-1-3.3-1c-1.7,0-2.3,0.6-2.3,1.4c0,1,0.7,1.3,3,1.9c2.2,0.6,3.7,1.4,3.7,3.5c0,2.5-2.4,3.5-4.9,3.5
		c-2.1,0-3.6-0.7-4.6-1.6l1.1-1.3c0.9,0.7,2.1,1.2,3.4,1.2C449.5,101.1,450.5,100.4,450.5,99.4z"/>
	<path fill="#F2F2F2" d="M462.8,100.9h3.2v1.6h-8.8v-1.6h3.5v-8.3h-3.4V91h5.5V100.9z M462.7,86.9c0,0.8-0.6,1.4-1.5,1.4
		c-0.8,0-1.4-0.6-1.4-1.4c0-0.8,0.6-1.4,1.4-1.4C462.1,85.6,462.7,86.2,462.7,86.9z"/>
	<path fill="#F2F2F2" d="M479.3,96.7c0,3.6-1.8,6-5,6c-3.3,0-5-2.3-5-6c0-3.6,1.8-6,5.1-6C477.6,90.7,479.3,93.1,479.3,96.7z
		 M471.5,96.8c0,3,0.9,4.3,2.8,4.3c1.9,0,2.8-1.4,2.8-4.3c0-3-0.9-4.3-2.8-4.3C472.4,92.4,471.5,93.8,471.5,96.8z"/>
	<path fill="#F2F2F2" d="M482.9,91h1.8l0.2,1.5c0.9-1.2,2.4-1.8,3.8-1.8c2.2,0,3.2,1.3,3.2,3.4v8.3h-2.1v-7c0-2.2-0.2-3.1-1.8-3.1
		c-1.3,0-2.3,0.9-2.9,1.8v8.3h-2.1V91z"/>
	<path fill="#F2F2F2" d="M505.2,101.3l-0.5,1.4c-1-0.1-1.8-0.6-2.2-1.6c-0.8,1.1-2.1,1.6-3.6,1.6c-2.3,0-3.7-1.4-3.7-3.5
		c0-2.4,1.9-3.7,5.4-3.7h1.7v-0.8c0-1.6-1-2.2-2.6-2.2c-0.8,0-1.8,0.2-3,0.6l-0.5-1.5c1.4-0.5,2.7-0.8,3.9-0.8c3,0,4.4,1.4,4.4,3.8
		v5.3C504.3,100.8,504.6,101.1,505.2,101.3z M502.3,99.6v-2.8h-1.5c-2.4,0-3.3,0.9-3.3,2.3c0,1.3,0.7,2,2.1,2
		C500.6,101.2,501.6,100.6,502.3,99.6z"/>
	<path fill="#F2F2F2" d="M513.6,99.5c0,1.1,0.8,1.5,1.8,1.5c0.7,0,1.3-0.2,1.9-0.4l0.5,1.5c-0.6,0.3-1.6,0.6-2.8,0.6
		c-2.2,0-3.5-1.3-3.5-3.4V88h-3.5v-1.6h5.6V99.5z"/>
	<path fill="#00FFFF" d="M61,126.1l1,1.3c-1,0.8-2.5,1.4-3.9,1.4c-3.5,0-5.5-2.3-5.5-5.9c0-3.5,2-6.1,5.5-6.1c1.5,0,2.8,0.5,3.9,1.4
		l-1,1.3c-1-0.7-1.9-1-2.9-1c-1.9,0-3.3,1.4-3.3,4.3c0,3,1.4,4.2,3.3,4.2C59.2,127,60.2,126.6,61,126.1z"/>
	<path fill="#00FFFF" d="M75.3,122.8c0,3.6-1.8,6-5,6c-3.3,0-5-2.3-5-6c0-3.6,1.8-6,5.1-6S75.3,119.2,75.3,122.8z M67.5,122.8
		c0,3,0.9,4.3,2.8,4.3c1.9,0,2.8-1.4,2.8-4.3c0-3-0.9-4.3-2.8-4.3C68.4,118.5,67.5,119.8,67.5,122.8z"/>
	<path fill="#00FFFF" d="M78.9,117.1h1.8l0.2,1.5c0.9-1.2,2.4-1.8,3.8-1.8c2.2,0,3.2,1.3,3.2,3.4v8.3h-2.1v-7c0-2.2-0.2-3.1-1.8-3.1
		c-1.3,0-2.3,0.9-2.9,1.8v8.3h-2.1V117.1z"/>
	<path fill="#00FFFF" d="M98.6,125.4c0-1-0.3-1.5-2.8-2.1c-2.3-0.6-3.8-1.3-3.8-3.3c0-2,1.8-3.2,4.4-3.2c1.9,0,3.3,0.6,4.3,1.3
		l-0.9,1.4c-0.9-0.6-1.9-1-3.3-1c-1.7,0-2.3,0.6-2.3,1.4c0,1,0.7,1.3,3,1.9c2.2,0.6,3.7,1.4,3.7,3.5c0,2.5-2.4,3.5-4.9,3.5
		c-2.1,0-3.6-0.7-4.6-1.6l1.1-1.3c0.9,0.7,2.1,1.2,3.4,1.2C97.6,127.1,98.6,126.5,98.6,125.4z"/>
	<path fill="#00FFFF" d="M111,128.8c-2.6,0-4-1.5-4-3.6v-6.6h-2.6v-1.6h2.6v-2.6l2.1-0.2v2.8h3.9l-0.3,1.6h-3.7v6.5
		c0,1.3,0.6,1.9,2.1,1.9c0.8,0,1.6-0.2,2.2-0.5l0.8,1.4C113.4,128.5,112.2,128.8,111,128.8z"/>
	<path fill="#984FAA" d="M139.2,126.1l1,1.3c-1,0.8-2.5,1.4-3.9,1.4c-3.5,0-5.5-2.3-5.5-5.9c0-3.5,2-6.1,5.5-6.1
		c1.5,0,2.8,0.5,3.9,1.4l-1,1.3c-1-0.7-1.9-1-2.9-1c-1.9,0-3.3,1.4-3.3,4.3c0,3,1.4,4.2,3.3,4.2C137.4,127,138.4,126.6,139.2,126.1z
		"/>
	<path fill="#984FAA" d="M153.5,122.8c0,3.6-1.8,6-5,6c-3.3,0-5-2.3-5-6c0-3.6,1.8-6,5.1-6S153.5,119.2,153.5,122.8z M145.6,122.8
		c0,3,0.9,4.3,2.8,4.3c1.9,0,2.8-1.4,2.8-4.3c0-3-0.9-4.3-2.8-4.3C146.6,118.5,145.6,119.8,145.6,122.8z"/>
	<path fill="#984FAA" d="M167,120v8.5h-1.9v-8.2c0-1.3-0.1-1.9-0.8-1.9c-0.6,0-1.3,0.4-1.9,1.3v8.8h-1.8v-8.2c0-1.3-0.1-1.9-0.8-1.9
		c-0.7,0-1.3,0.4-1.9,1.3v8.8H156v-11.4h1.6l0.2,1.3c0.6-0.9,1.3-1.6,2.5-1.6c0.9,0,1.7,0.4,2,1.5c0.6-0.9,1.4-1.5,2.5-1.5
		C165.9,116.8,167,117.4,167,120z"/>
	<path fill="#984FAA" d="M180,120v8.5h-1.9v-8.2c0-1.3-0.1-1.9-0.8-1.9c-0.6,0-1.3,0.4-1.9,1.3v8.8h-1.8v-8.2c0-1.3-0.1-1.9-0.8-1.9
		c-0.7,0-1.3,0.4-1.9,1.3v8.8H169v-11.4h1.6l0.2,1.3c0.6-0.9,1.3-1.6,2.5-1.6c0.9,0,1.7,0.4,2,1.5c0.6-0.9,1.4-1.5,2.5-1.5
		C179,116.8,180,117.4,180,120z"/>
	<path fill="#984FAA" d="M185.2,125.1c0,1.4,0.6,2,1.8,2c1.2,0,2.3-0.8,2.9-1.7v-8.4h2.1v11.4h-1.8L190,127
		c-0.9,1.2-2.3,1.8-3.6,1.8c-2.2,0-3.3-1.3-3.3-3.4v-8.3h2.1V125.1z"/>
	<path fill="#984FAA" d="M196.1,117.1h1.8l0.2,1.5c0.9-1.2,2.4-1.8,3.8-1.8c2.2,0,3.2,1.3,3.2,3.4v8.3H203v-7c0-2.2-0.2-3.1-1.8-3.1
		c-1.3,0-2.3,0.9-2.9,1.8v8.3h-2.1V117.1z"/>
	<path fill="#984FAA" d="M215.2,126.9h3.2v1.6h-8.8v-1.6h3.5v-8.3h-3.4v-1.6h5.5V126.9z M215.1,113c0,0.8-0.6,1.4-1.5,1.4
		c-0.8,0-1.4-0.6-1.4-1.4c0-0.8,0.6-1.4,1.4-1.4C214.5,111.6,215.1,112.2,215.1,113z"/>
	<path fill="#984FAA" d="M230.4,126.1l1,1.3c-1,0.8-2.5,1.4-3.9,1.4c-3.5,0-5.5-2.3-5.5-5.9c0-3.5,2-6.1,5.5-6.1
		c1.5,0,2.8,0.5,3.9,1.4l-1,1.3c-1-0.7-1.9-1-2.9-1c-1.9,0-3.3,1.4-3.3,4.3c0,3,1.4,4.2,3.3,4.2C228.6,127,229.6,126.6,230.4,126.1z
		"/>
	<path fill="#984FAA" d="M244.6,127.4l-0.5,1.4c-1-0.1-1.8-0.6-2.2-1.6c-0.8,1.1-2.1,1.6-3.6,1.6c-2.3,0-3.7-1.4-3.7-3.5
		c0-2.4,1.9-3.7,5.4-3.7h1.7v-0.8c0-1.6-1-2.2-2.6-2.2c-0.8,0-1.8,0.2-3,0.6l-0.5-1.5c1.4-0.5,2.7-0.8,3.9-0.8c3,0,4.4,1.4,4.4,3.8
		v5.3C243.7,126.8,244,127.2,244.6,127.4z M241.6,125.7v-2.8h-1.5c-2.4,0-3.3,0.9-3.3,2.3c0,1.3,0.7,2,2.1,2
		C239.9,127.2,241,126.7,241.6,125.7z"/>
	<path fill="#984FAA" d="M254.4,128.8c-2.6,0-4-1.5-4-3.6v-6.6h-2.6v-1.6h2.6v-2.6l2.1-0.2v2.8h3.9l-0.3,1.6h-3.7v6.5
		c0,1.3,0.6,1.9,2.1,1.9c0.8,0,1.6-0.2,2.2-0.5l0.8,1.4C256.7,128.5,255.5,128.8,254.4,128.8z"/>
	<path fill="#984FAA" d="M267.3,126.9h3.2v1.6h-8.8v-1.6h3.5v-8.3h-3.4v-1.6h5.5V126.9z M267.2,113c0,0.8-0.6,1.4-1.5,1.4
		c-0.8,0-1.4-0.6-1.4-1.4c0-0.8,0.6-1.4,1.4-1.4C266.6,111.6,267.2,112.2,267.2,113z"/>
	<path fill="#984FAA" d="M283.8,122.8c0,3.6-1.8,6-5,6c-3.3,0-5-2.3-5-6c0-3.6,1.8-6,5.1-6S283.8,119.2,283.8,122.8z M275.9,122.8
		c0,3,0.9,4.3,2.8,4.3c1.9,0,2.8-1.4,2.8-4.3c0-3-0.9-4.3-2.8-4.3C276.9,118.5,275.9,119.8,275.9,122.8z"/>
	<path fill="#984FAA" d="M287.3,117.1h1.8l0.2,1.5c0.9-1.2,2.4-1.8,3.8-1.8c2.2,0,3.2,1.3,3.2,3.4v8.3h-2.1v-7
		c0-2.2-0.2-3.1-1.8-3.1c-1.3,0-2.3,0.9-2.9,1.8v8.3h-2.1V117.1z"/>
	<path fill="#ED1C24" d="M322.2,120.6h-8.7v-1.8h8.7V120.6z M322.2,124.8h-8.7V123h8.7V124.8z"/>
	<path fill="#F2F2F2" d="M345.1,128.5h-2.4l-4.1-11.4h2.2l3.1,9.6l3.1-9.6h2.1L345.1,128.5z"/>
	<path fill="#F2F2F2" d="M357.5,127.1c1.1,0,2-0.3,3-1l0.9,1.3c-1.1,0.8-2.5,1.4-4,1.4c-3.4,0-5.4-2.4-5.4-6c0-3.5,2-6,5.1-6
		c3,0,4.8,2.2,4.8,5.7c0,0.4,0,0.8,0,1h-7.7C354.3,126,355.7,127.1,357.5,127.1z M354.2,122h5.7c0-2.3-1.1-3.6-2.7-3.6
		C355.5,118.4,354.3,119.6,354.2,122z"/>
	<path fill="#F2F2F2" d="M375.1,117.1l-0.3,4h-1.6v-2.4h0c-1.7,0-3,1.3-3.7,3.7v4.6h2.3v1.5h-6.2V127h1.8v-8.4h-1.8v-1.5h3.3
		l0.4,2.7c0.9-1.9,2.1-2.9,4.1-2.9C374.1,116.8,374.6,116.9,375.1,117.1z"/>
	<path fill="#F2F2F2" d="M384.3,128.6c-0.8,2.5-2.2,4.3-5.3,4.6l-0.3-1.6c2.3-0.4,3-1.3,3.6-3h-0.7l-3.9-11.4h2.2l3.1,9.9l3.1-9.9
		h2.2L384.3,128.6z"/>
	<path fill="#F2F2F2" d="M396,124.8c1.2,0,2,0.9,2,2c0,1.1-0.8,2-2,2c-1.1,0-2-0.9-2-2C394.1,125.7,394.9,124.8,396,124.8z"/>
	<path fill="#F2F2F2" d="M414.1,122.8c0,3.6-1.8,6-5,6c-3.3,0-5-2.3-5-6c0-3.6,1.8-6,5.1-6C412.4,116.8,414.1,119.2,414.1,122.8z
		 M406.3,122.8c0,3,0.9,4.3,2.8,4.3c1.9,0,2.8-1.4,2.8-4.3c0-3-0.9-4.3-2.8-4.3C407.2,118.5,406.3,119.8,406.3,122.8z"/>
	<path fill="#F2F2F2" d="M417.7,117.1h1.8l0.2,1.5c0.9-1.2,2.4-1.8,3.8-1.8c2.2,0,3.2,1.3,3.2,3.4v8.3h-2.1v-7
		c0-2.2-0.2-3.1-1.8-3.1c-1.3,0-2.3,0.9-2.9,1.8v8.3h-2.1V117.1z"/>
	<path fill="#F2F2F2" d="M435,123.1h-1.9v5.5H431v-15h4c3.7,0,5.9,1.5,5.9,4.6C440.8,121.7,438.4,123.1,435,123.1z M435.1,115.2h-2
		v6.2h2c2,0,3.4-0.7,3.4-3.2C438.5,116,437.1,115.2,435.1,115.2z"/>
	<path fill="#F2F2F2" d="M453.2,122.8c0,3.6-1.8,6-5,6c-3.3,0-5-2.3-5-6c0-3.6,1.8-6,5.1-6C451.5,116.8,453.2,119.2,453.2,122.8z
		 M445.3,122.8c0,3,0.9,4.3,2.8,4.3c1.9,0,2.8-1.4,2.8-4.3c0-3-0.9-4.3-2.8-4.3C446.3,118.5,445.3,119.8,445.3,122.8z"/>
	<path fill="#F2F2F2" d="M462.7,126.9h3.2v1.6h-8.8v-1.6h3.5v-8.3h-3.4v-1.6h5.5V126.9z M462.7,113c0,0.8-0.6,1.4-1.5,1.4
		c-0.8,0-1.4-0.6-1.4-1.4c0-0.8,0.6-1.4,1.4-1.4C462.1,111.6,462.7,112.2,462.7,113z"/>
	<path fill="#F2F2F2" d="M469.8,117.1h1.8l0.2,1.5c0.9-1.2,2.4-1.8,3.8-1.8c2.2,0,3.2,1.3,3.2,3.4v8.3h-2.1v-7
		c0-2.2-0.2-3.1-1.8-3.1c-1.3,0-2.3,0.9-2.9,1.8v8.3h-2.1V117.1z"/>
	<path fill="#F2F2F2" d="M488.9,128.8c-2.6,0-4-1.5-4-3.6v-6.6h-2.6v-1.6h2.6v-2.6l2.1-0.2v2.8h3.9l-0.3,1.6h-3.7v6.5
		c0,1.3,0.6,1.9,2.1,1.9c0.8,0,1.6-0.2,2.2-0.5l0.8,1.4C491.3,128.5,490.1,128.8,488.9,128.8z"/>
	<path fill="#00FFFF" d="M61,152.1l1,1.3c-1,0.8-2.5,1.4-3.9,1.4c-3.5,0-5.5-2.3-5.5-5.9c0-3.5,2-6.1,5.5-6.1c1.5,0,2.8,0.5,3.9,1.4
		l-1,1.3c-1-0.7-1.9-1-2.9-1c-1.9,0-3.3,1.4-3.3,4.3c0,3,1.4,4.2,3.3,4.2C59.2,153.1,60.2,152.7,61,152.1z"/>
	<path fill="#00FFFF" d="M75.3,148.9c0,3.6-1.8,6-5,6c-3.3,0-5-2.3-5-6c0-3.6,1.8-6,5.1-6S75.3,145.2,75.3,148.9z M67.5,148.9
		c0,3,0.9,4.3,2.8,4.3c1.9,0,2.8-1.4,2.8-4.3c0-3-0.9-4.3-2.8-4.3C68.4,144.5,67.5,145.9,67.5,148.9z"/>
	<path fill="#00FFFF" d="M78.9,143.1h1.8l0.2,1.5c0.9-1.2,2.4-1.8,3.8-1.8c2.2,0,3.2,1.3,3.2,3.4v8.3h-2.1v-7c0-2.2-0.2-3.1-1.8-3.1
		c-1.3,0-2.3,0.9-2.9,1.8v8.3h-2.1V143.1z"/>
	<path fill="#00FFFF" d="M98.6,151.5c0-1-0.3-1.5-2.8-2.1c-2.3-0.6-3.8-1.3-3.8-3.3c0-2,1.8-3.2,4.4-3.2c1.9,0,3.3,0.6,4.3,1.3
		l-0.9,1.4c-0.9-0.6-1.9-1-3.3-1c-1.7,0-2.3,0.6-2.3,1.4c0,1,0.7,1.3,3,1.9c2.2,0.6,3.7,1.4,3.7,3.5c0,2.5-2.4,3.5-4.9,3.5
		c-2.1,0-3.6-0.7-4.6-1.6l1.1-1.3c0.9,0.7,2.1,1.2,3.4,1.2C97.6,153.2,98.6,152.6,98.6,151.5z"/>
	<path fill="#00FFFF" d="M111,154.9c-2.6,0-4-1.5-4-3.6v-6.6h-2.6v-1.6h2.6v-2.6l2.1-0.2v2.8h3.9l-0.3,1.6h-3.7v6.5
		c0,1.3,0.6,1.9,2.1,1.9c0.8,0,1.6-0.2,2.2-0.5l0.8,1.4C113.4,154.5,112.2,154.9,111,154.9z"/>
	<path fill="#984FAA" d="M140.6,143.1l-0.3,4h-1.6v-2.4h0c-1.7,0-3,1.3-3.7,3.7v4.6h2.3v1.5h-6.2V153h1.8v-8.4h-1.8v-1.5h3.3
		l0.4,2.7c0.9-1.9,2.1-2.9,4.1-2.9C139.5,142.9,140,143,140.6,143.1z"/>
	<path fill="#984FAA" d="M150,153h3.2v1.6h-8.8V153h3.5v-8.3h-3.4v-1.6h5.5V153z M149.9,139.1c0,0.8-0.6,1.4-1.5,1.4
		c-0.8,0-1.4-0.6-1.4-1.4c0-0.8,0.6-1.4,1.4-1.4C149.3,137.7,149.9,138.3,149.9,139.1z"/>
	<path fill="#984FAA" d="M167.1,143.7c-0.9,0.3-2,0.3-3.3,0.3c1.4,0.6,2,1.6,2,2.9c0,2.3-1.6,3.9-4.4,3.9c-0.7,0-1.2-0.1-1.6-0.2
		c-0.3,0.2-0.5,0.6-0.5,1c0,0.5,0.3,0.9,1.5,0.9h2c2.4,0,4.1,1.3,4.1,3.1c0,2.3-2,3.5-5.6,3.5c-3.8,0-5-1.2-5-3.5h1.9
		c0,1.3,0.6,1.9,3.1,1.9c2.5,0,3.5-0.6,3.5-1.8c0-1-1-1.6-2.4-1.6h-2c-2.1,0-3-1-3-2.2c0-0.7,0.4-1.5,1.3-2
		c-1.3-0.7-1.9-1.7-1.9-3.2c0-2.4,1.9-4,4.6-4c2.8,0,3.9-0.4,5.3-1L167.1,143.7z M158.7,146.9c0,1.5,0.8,2.5,2.6,2.5
		c1.5,0,2.4-0.9,2.4-2.6c0-1.7-0.8-2.5-2.4-2.5C159.5,144.4,158.7,145.4,158.7,146.9z"/>
	<path fill="#984FAA" d="M172.2,144.6c0.9-1.2,2.3-1.8,3.6-1.8c2.2,0,3.2,1.3,3.2,3.4v8.3h-2.1v-8.1c0-1.4-0.6-2-1.8-2
		c-1.2,0-2.3,0.9-2.9,1.8v8.3h-2.1v-16l2.1-0.2V144.6z"/>
	<path fill="#984FAA" d="M189.2,154.9c-2.6,0-4-1.5-4-3.6v-6.6h-2.6v-1.6h2.6v-2.6l2.1-0.2v2.8h3.9l-0.3,1.6h-3.7v6.5
		c0,1.3,0.6,1.9,2.1,1.9c0.8,0,1.6-0.2,2.2-0.5l0.8,1.4C191.6,154.5,190.4,154.9,189.2,154.9z"/>
	<path fill="#984FAA" d="M206.3,140.8l-1.2,1.4c-0.9-0.8-2-1.1-3.1-1.1c-2.4,0-4.4,1.6-4.4,6c0,4.3,1.9,5.9,4.4,5.9
		c1.7,0,2.6-0.6,3.5-1.3l1.1,1.4c-0.9,0.9-2.4,1.7-4.6,1.7c-3.7,0-6.6-2.7-6.6-7.8c0-5,3-7.8,6.5-7.8
		C203.8,139.3,205.1,139.9,206.3,140.8z"/>
	<path fill="#984FAA" d="M211.2,144.6c0.9-1.2,2.3-1.8,3.6-1.8c2.2,0,3.2,1.3,3.2,3.4v8.3H216v-8.1c0-1.4-0.6-2-1.8-2
		c-1.2,0-2.3,0.9-2.9,1.8v8.3h-2.1v-16l2.1-0.2V144.6z"/>
	<path fill="#984FAA" d="M231.7,148.9c0,3.6-1.8,6-5,6c-3.3,0-5-2.3-5-6c0-3.6,1.8-6,5.1-6S231.7,145.2,231.7,148.9z M223.8,148.9
		c0,3,0.9,4.3,2.8,4.3c1.9,0,2.8-1.4,2.8-4.3c0-3-0.9-4.3-2.8-4.3C224.8,144.5,223.8,145.9,223.8,148.9z"/>
	<path fill="#984FAA" d="M241.2,153h3.2v1.6h-8.8V153h3.5v-8.3h-3.4v-1.6h5.5V153z M241.1,139.1c0,0.8-0.6,1.4-1.5,1.4
		c-0.8,0-1.4-0.6-1.4-1.4c0-0.8,0.6-1.4,1.4-1.4C240.5,137.7,241.1,138.3,241.1,139.1z"/>
	<path fill="#984FAA" d="M256.5,152.1l1,1.3c-1,0.8-2.5,1.4-3.9,1.4c-3.5,0-5.5-2.3-5.5-5.9c0-3.5,2-6.1,5.5-6.1
		c1.5,0,2.8,0.5,3.9,1.4l-1,1.3c-1-0.7-1.9-1-2.9-1c-1.9,0-3.3,1.4-3.3,4.3c0,3,1.4,4.2,3.3,4.2
		C254.7,153.1,255.7,152.7,256.5,152.1z"/>
	<path fill="#984FAA" d="M266.2,153.2c1.1,0,2-0.3,3-1l0.9,1.3c-1.1,0.8-2.5,1.4-4,1.4c-3.4,0-5.4-2.4-5.4-6c0-3.5,2-6,5.1-6
		c3,0,4.8,2.2,4.8,5.7c0,0.4,0,0.8,0,1H263C263.1,152.1,264.5,153.2,266.2,153.2z M263,148.1h5.7c0-2.3-1.1-3.6-2.7-3.6
		C264.3,144.5,263.1,145.6,263,148.1z"/>
	<path fill="#ED1C24" d="M296.1,146.6h-8.7v-1.8h8.7V146.6z M296.1,150.8h-8.7v-1.8h8.7V150.8z"/>
	<path fill="#F2F2F2" d="M319.1,154.6h-2.4l-4.1-11.4h2.2l3.1,9.6l3.1-9.6h2.1L319.1,154.6z"/>
	<path fill="#F2F2F2" d="M331.4,153.2c1.1,0,2-0.3,3-1l0.9,1.3c-1.1,0.8-2.5,1.4-4,1.4c-3.4,0-5.4-2.4-5.4-6c0-3.5,2-6,5.1-6
		c3,0,4.8,2.2,4.8,5.7c0,0.4,0,0.8,0,1h-7.7C328.3,152.1,329.7,153.2,331.4,153.2z M328.1,148.1h5.7c0-2.3-1.1-3.6-2.7-3.6
		C329.5,144.5,328.3,145.6,328.1,148.1z"/>
	<path fill="#F2F2F2" d="M349,143.1l-0.3,4h-1.6v-2.4h0c-1.7,0-3,1.3-3.7,3.7v4.6h2.3v1.5h-6.2V153h1.8v-8.4h-1.8v-1.5h3.3l0.4,2.7
		c0.9-1.9,2.1-2.9,4.1-2.9C348,142.9,348.5,143,349,143.1z"/>
	<path fill="#F2F2F2" d="M358.3,154.7c-0.8,2.5-2.2,4.3-5.3,4.6l-0.3-1.6c2.3-0.4,3-1.3,3.6-3h-0.7l-3.9-11.4h2.2l3.1,9.9l3.1-9.9
		h2.2L358.3,154.7z"/>
	<path fill="#F2F2F2" d="M370,150.9c1.2,0,2,0.9,2,2c0,1.1-0.8,2-2,2c-1.1,0-2-0.9-2-2C368,151.7,368.8,150.9,370,150.9z"/>
	<path fill="#39B54A" d="M387.9,153.4l-0.5,1.4c-1-0.1-1.8-0.6-2.2-1.6c-0.8,1.1-2.1,1.6-3.6,1.6c-2.3,0-3.7-1.4-3.7-3.5
		c0-2.4,1.9-3.7,5.4-3.7h1.7v-0.8c0-1.6-1-2.2-2.6-2.2c-0.8,0-1.8,0.2-3,0.6l-0.5-1.5c1.4-0.5,2.7-0.8,3.9-0.8c3,0,4.4,1.4,4.4,3.8
		v5.3C387,152.9,387.3,153.2,387.9,153.4z M384.9,151.7V149h-1.5c-2.4,0-3.3,0.9-3.3,2.3c0,1.3,0.7,2,2.1,2
		C383.3,153.3,384.3,152.7,384.9,151.7z"/>
	<path fill="#39B54A" d="M391.6,143.1h1.8l0.2,1.5c0.9-1.2,2.4-1.8,3.8-1.8c2.2,0,3.2,1.3,3.2,3.4v8.3h-2.1v-7
		c0-2.2-0.2-3.1-1.8-3.1c-1.3,0-2.3,0.9-2.9,1.8v8.3h-2.1V143.1z"/>
	<path fill="#39B54A" d="M411.3,151.5c0-1-0.3-1.5-2.8-2.1c-2.3-0.6-3.8-1.3-3.8-3.3c0-2,1.8-3.2,4.4-3.2c1.9,0,3.3,0.6,4.3,1.3
		l-0.9,1.4c-0.9-0.6-1.9-1-3.3-1c-1.7,0-2.3,0.6-2.3,1.4c0,1,0.7,1.3,3,1.9c2.2,0.6,3.7,1.4,3.7,3.5c0,2.5-2.4,3.5-4.9,3.5
		c-2.1,0-3.6-0.7-4.6-1.6l1.1-1.3c0.9,0.7,2.1,1.2,3.4,1.2C410.3,153.2,411.3,152.6,411.3,151.5z"/>
	<path fill="#39B54A" d="M423.6,154.6l-1.4-8.3l-1.5,8.3h-2.7l-2-11.4h2.1l1.4,10.1l1.7-8.7h2.3l1.6,8.7l1.4-10.1h2l-1.9,11.4H423.6
		z"/>
	<path fill="#39B54A" d="M435.6,153.2c1.1,0,2-0.3,3-1l0.9,1.3c-1.1,0.8-2.5,1.4-4,1.4c-3.4,0-5.4-2.4-5.4-6c0-3.5,2-6,5.1-6
		c3,0,4.8,2.2,4.8,5.7c0,0.4,0,0.8,0,1h-7.7C432.5,152.1,433.9,153.2,435.6,153.2z M432.4,148.1h5.7c0-2.3-1.1-3.6-2.7-3.6
		C433.7,144.5,432.5,145.6,432.4,148.1z"/>
	<path fill="#39B54A" d="M453.3,143.1l-0.3,4h-1.6v-2.4h0c-1.7,0-3,1.3-3.7,3.7v4.6h2.3v1.5h-6.2V153h1.8v-8.4h-1.8v-1.5h3.3
		l0.4,2.7c0.9-1.9,2.1-2.9,4.1-2.9C452.3,142.9,452.8,143,453.3,143.1z"/>
	<path fill="#39B54A" d="M465.6,141.3h-3.3v11.6h3.3v1.7h-8.8v-1.7h3.3v-11.6h-3.3v-1.7h8.8V141.3z"/>
	<path fill="#39B54A" d="M476.5,151.5c0-1-0.3-1.5-2.8-2.1c-2.3-0.6-3.8-1.3-3.8-3.3c0-2,1.8-3.2,4.4-3.2c1.9,0,3.3,0.6,4.3,1.3
		l-0.9,1.4c-0.9-0.6-1.9-1-3.3-1c-1.7,0-2.3,0.6-2.3,1.4c0,1,0.7,1.3,3,1.9c2.2,0.6,3.7,1.4,3.7,3.5c0,2.5-2.4,3.5-4.9,3.5
		c-2.1,0-3.6-0.7-4.6-1.6l1.1-1.3c0.9,0.7,2.1,1.2,3.4,1.2C475.5,153.2,476.5,152.6,476.5,151.5z"/>
	<path fill="#00FFFF" d="M490.1,156.6l-1.1,1.1c-3.5-2.9-5.6-5.8-5.6-10.7s2.1-7.8,5.6-10.7l1.1,1.1c-3.1,2.8-4.5,5.2-4.5,9.6
		C485.6,151.4,487,153.7,490.1,156.6z"/>
	<path fill="#FFFF00" d="M499.1,138.5h2.4l-0.3,5.7h-1.7L499.1,138.5z"/>
	<path fill="#FFFF00" d="M514.6,154.7c-0.8,2.5-2.2,4.3-5.3,4.6l-0.3-1.6c2.3-0.4,3-1.3,3.6-3H512l-3.9-11.4h2.2l3.1,9.9l3.1-9.9
		h2.1L514.6,154.7z"/>
	<path fill="#FFFF00" d="M526.9,153.2c1.1,0,2-0.3,3-1l0.9,1.3c-1.1,0.8-2.5,1.4-4,1.4c-3.4,0-5.4-2.4-5.4-6c0-3.5,2-6,5.1-6
		c3,0,4.8,2.2,4.8,5.7c0,0.4,0,0.8,0,1h-7.7C523.7,152.1,525.1,153.2,526.9,153.2z M523.6,148.1h5.7c0-2.3-1.1-3.6-2.7-3.6
		C524.9,144.5,523.8,145.6,523.6,148.1z"/>
	<path fill="#FFFF00" d="M541.6,151.5c0-1-0.3-1.5-2.8-2.1c-2.3-0.6-3.8-1.3-3.8-3.3c0-2,1.8-3.2,4.4-3.2c1.9,0,3.3,0.6,4.3,1.3
		l-0.9,1.4c-0.9-0.6-1.9-1-3.3-1c-1.7,0-2.3,0.6-2.3,1.4c0,1,0.7,1.3,3,1.9c2.2,0.6,3.7,1.4,3.7,3.5c0,2.5-2.4,3.5-4.9,3.5
		c-2.1,0-3.6-0.7-4.6-1.6l1.1-1.3c0.9,0.7,2.1,1.2,3.4,1.2C540.6,153.2,541.6,152.6,541.6,151.5z"/>
	<path fill="#666666" d="M53.6,182.2l9.3-19.1l1.7,0.8l-9.2,19.1L53.6,182.2z M68.2,171.9l-4.1-1.5l-0.6,1.9l4.2,1.2l-2.7,3.4
		l1.7,1.2l2.4-3.6l2.4,3.6l1.7-1.2l-2.7-3.4l4.2-1.2l-0.6-1.9l-4.1,1.5l0.2-4.3H68L68.2,171.9z"/>
	<path fill="#666666" d="M102,169.7c-0.9,0.3-2,0.3-3.3,0.3c1.4,0.6,2,1.6,2,2.9c0,2.3-1.6,3.9-4.4,3.9c-0.7,0-1.2-0.1-1.6-0.2
		c-0.3,0.2-0.5,0.6-0.5,1c0,0.5,0.3,0.9,1.5,0.9h2c2.4,0,4.1,1.3,4.1,3.1c0,2.3-2,3.5-5.6,3.5c-3.8,0-5-1.2-5-3.5H93
		c0,1.3,0.6,1.9,3.1,1.9c2.5,0,3.5-0.6,3.5-1.8c0-1-1-1.6-2.4-1.6h-2c-2.1,0-3-1-3-2.2c0-0.7,0.4-1.5,1.3-2
		c-1.3-0.7-1.9-1.7-1.9-3.2c0-2.4,1.9-4,4.6-4c2.8,0,3.9-0.4,5.3-1L102,169.7z M93.6,172.9c0,1.5,0.8,2.5,2.6,2.5
		c1.5,0,2.4-0.9,2.4-2.6c0-1.7-0.8-2.5-2.4-2.5C94.4,170.4,93.6,171.5,93.6,172.9z"/>
	<path fill="#666666" d="M109.6,177.7c0,1.1,0.8,1.5,1.8,1.5c0.7,0,1.3-0.2,1.9-0.4l0.5,1.5c-0.6,0.3-1.6,0.6-2.8,0.6
		c-2.1,0-3.5-1.3-3.5-3.4v-11.4h-3.5v-1.6h5.6V177.7z"/>
	<path fill="#666666" d="M127.3,179.5l-0.5,1.4c-1-0.1-1.8-0.6-2.2-1.6c-0.8,1.1-2.1,1.6-3.6,1.6c-2.3,0-3.7-1.4-3.7-3.5
		c0-2.4,1.9-3.7,5.4-3.7h1.7v-0.8c0-1.6-1-2.2-2.6-2.2c-0.8,0-1.8,0.2-3,0.6l-0.5-1.5c1.4-0.5,2.7-0.8,3.9-0.8c3,0,4.4,1.4,4.4,3.8
		v5.3C126.4,178.9,126.7,179.3,127.3,179.5z M124.3,177.8V175h-1.5c-2.4,0-3.3,0.9-3.3,2.3c0,1.3,0.7,2,2.1,2
		C122.7,179.4,123.7,178.8,124.3,177.8z"/>
	<path fill="#666666" d="M139.9,164.6v16h-1.8l-0.2-1.5c-0.8,1.2-1.9,1.7-3.2,1.7c-3,0-4.3-2.4-4.3-6c0-3.5,1.7-6,4.5-6
		c1.3,0,2.2,0.5,3,1.3v-5.9L139.9,164.6z M132.5,174.9c0,3,0.9,4.3,2.6,4.3c1.2,0,2.1-0.8,2.7-1.7V172c-0.6-0.9-1.5-1.4-2.5-1.4
		C133.6,170.6,132.5,172,132.5,174.9z"/>
	<path fill="#666666" d="M165.9,167.4h-3.3V179h3.3v1.7h-8.8V179h3.3v-11.6h-3.3v-1.7h8.8V167.4z"/>
	<path fill="#666666" d="M193.2,165l-0.7,1.5c-0.7-0.3-1.6-0.5-2.5-0.5c-1.5,0-2.3,0.6-2.3,1.8v2.2h3.9l-0.2,1.6h-3.6v9h-2.1v-9H183
		v-1.6h2.7v-2.2c0-2.1,1.8-3.5,4.3-3.5C191.3,164.3,192.3,164.6,193.2,165z"/>
	<path fill="#666666" d="M205.6,174.9c0,3.6-1.8,6-5,6c-3.3,0-5-2.3-5-6c0-3.6,1.8-6,5.1-6S205.6,171.3,205.6,174.9z M197.8,174.9
		c0,3,0.9,4.3,2.8,4.3c1.9,0,2.8-1.4,2.8-4.3c0-3-0.9-4.3-2.8-4.3C198.7,170.6,197.8,172,197.8,174.9z"/>
	<path fill="#666666" d="M211.3,177.3c0,1.4,0.6,2,1.8,2c1.2,0,2.3-0.8,2.9-1.7v-8.4h2.1v11.4h-1.8l-0.2-1.5
		c-0.9,1.2-2.3,1.8-3.6,1.8c-2.2,0-3.3-1.3-3.3-3.4v-8.3h2.1V177.3z"/>
	<path fill="#666666" d="M222.2,169.2h1.8l0.2,1.5c0.9-1.2,2.4-1.8,3.8-1.8c2.2,0,3.2,1.3,3.2,3.4v8.3h-2.1v-7
		c0-2.2-0.2-3.1-1.8-3.1c-1.3,0-2.3,0.9-2.9,1.8v8.3h-2.1V169.2z"/>
	<path fill="#666666" d="M244.1,164.6v16h-1.8l-0.2-1.5c-0.8,1.2-1.9,1.7-3.2,1.7c-3,0-4.3-2.4-4.3-6c0-3.5,1.7-6,4.5-6
		c1.3,0,2.2,0.5,3,1.3v-5.9L244.1,164.6z M236.8,174.9c0,3,0.9,4.3,2.6,4.3c1.2,0,2.1-0.8,2.7-1.7V172c-0.6-0.9-1.5-1.4-2.5-1.4
		C237.8,170.6,236.8,172,236.8,174.9z"/>
	<path fill="#666666" d="M267.4,180.9c-2.6,0-4-1.5-4-3.6v-6.6h-2.6v-1.6h2.6v-2.6l2.1-0.2v2.8h3.9l-0.3,1.6h-3.7v6.5
		c0,1.3,0.6,1.9,2.1,1.9c0.8,0,1.6-0.2,2.2-0.5l0.8,1.4C269.8,180.6,268.6,180.9,267.4,180.9z"/>
	<path fill="#666666" d="M276.4,170.7c0.9-1.2,2.3-1.8,3.6-1.8c2.2,0,3.2,1.3,3.2,3.4v8.3h-2.1v-8.1c0-1.4-0.6-2-1.8-2
		c-1.2,0-2.3,0.9-2.9,1.8v8.3h-2.1v-16l2.1-0.2V170.7z"/>
	<path fill="#666666" d="M292.3,179.2c1.1,0,2-0.3,3-1l0.9,1.3c-1.1,0.8-2.5,1.4-4,1.4c-3.4,0-5.4-2.4-5.4-6c0-3.5,2-6,5.1-6
		c3,0,4.8,2.2,4.8,5.7c0,0.4,0,0.8,0,1h-7.7C289.2,178.2,290.6,179.2,292.3,179.2z M289.1,174.1h5.7c0-2.3-1.1-3.6-2.7-3.6
		C290.4,170.6,289.2,171.7,289.1,174.1z"/>
	<path fill="#666666" d="M307.1,177.6c0-1-0.3-1.5-2.8-2.1c-2.3-0.6-3.8-1.3-3.8-3.3c0-2,1.8-3.2,4.4-3.2c1.9,0,3.3,0.6,4.3,1.3
		l-0.9,1.4c-0.9-0.6-1.9-1-3.3-1c-1.7,0-2.3,0.6-2.3,1.4c0,1,0.7,1.3,3,1.9c2.2,0.6,3.7,1.4,3.7,3.5c0,2.5-2.4,3.5-4.9,3.5
		c-2.1,0-3.6-0.7-4.6-1.6l1.1-1.3c0.9,0.7,2.1,1.2,3.4,1.2C306.1,179.3,307.1,178.6,307.1,177.6z"/>
	<path fill="#666666" d="M318.4,179.2c1.1,0,2-0.3,3-1l0.9,1.3c-1.1,0.8-2.5,1.4-4,1.4c-3.4,0-5.4-2.4-5.4-6c0-3.5,2-6,5.1-6
		c3,0,4.8,2.2,4.8,5.7c0,0.4,0,0.8,0,1h-7.7C315.3,178.2,316.7,179.2,318.4,179.2z M315.1,174.1h5.7c0-2.3-1.1-3.6-2.7-3.6
		C316.5,170.6,315.3,171.7,315.1,174.1z"/>
	<path fill="#666666" d="M349.5,169.7c-0.9,0.3-2,0.3-3.3,0.3c1.4,0.6,2,1.6,2,2.9c0,2.3-1.7,3.9-4.4,3.9c-0.7,0-1.2-0.1-1.7-0.2
		c-0.3,0.2-0.5,0.6-0.5,1c0,0.5,0.3,0.9,1.5,0.9h2c2.4,0,4.1,1.3,4.1,3.1c0,2.3-2,3.5-5.6,3.5c-3.8,0-5-1.2-5-3.5h1.9
		c0,1.3,0.6,1.9,3.1,1.9c2.5,0,3.5-0.6,3.5-1.8c0-1-1-1.6-2.4-1.6h-2c-2.1,0-3-1-3-2.2c0-0.7,0.4-1.5,1.3-2
		c-1.3-0.7-1.9-1.7-1.9-3.2c0-2.4,1.9-4,4.6-4c2.8,0,3.9-0.4,5.3-1L349.5,169.7z M341.2,172.9c0,1.5,0.8,2.5,2.6,2.5
		c1.5,0,2.4-0.9,2.4-2.6c0-1.7-0.8-2.5-2.4-2.5C342,170.4,341.2,171.5,341.2,172.9z"/>
	<path fill="#666666" d="M354.6,177.3c0,1.4,0.6,2,1.8,2c1.2,0,2.3-0.8,2.9-1.7v-8.4h2.1v11.4h-1.8l-0.2-1.5
		c-0.9,1.2-2.3,1.8-3.6,1.8c-2.2,0-3.3-1.3-3.3-3.4v-8.3h2.1V177.3z"/>
	<path fill="#666666" d="M371.3,180.7c-0.8,2.5-2.2,4.3-5.3,4.6l-0.3-1.6c2.3-0.4,3-1.3,3.6-3h-0.7l-3.9-11.4h2.2l3.1,9.9l3.1-9.9
		h2.2L371.3,180.7z"/>
	<path fill="#666666" d="M385.3,177.6c0-1-0.3-1.5-2.8-2.1c-2.3-0.6-3.8-1.3-3.8-3.3c0-2,1.8-3.2,4.4-3.2c1.9,0,3.3,0.6,4.3,1.3
		l-0.9,1.4c-0.9-0.6-1.9-1-3.3-1c-1.7,0-2.3,0.6-2.3,1.4c0,1,0.7,1.3,3,1.9c2.2,0.6,3.7,1.4,3.7,3.5c0,2.5-2.4,3.5-4.9,3.5
		c-2.1,0-3.6-0.7-4.6-1.6l1.1-1.3c0.9,0.7,2.1,1.2,3.4,1.2C384.3,179.3,385.3,178.6,385.3,177.6z"/>
	<path fill="#666666" d="M408.9,167.5h2.1l-0.2,4.3l4.1-1.5l0.6,1.9l-4.2,1.2l2.7,3.4l-1.7,1.2l-2.4-3.6l-2.4,3.6l-1.7-1.2l2.7-3.4
		l-4.2-1.2l0.6-1.9l4.1,1.5L408.9,167.5z M416.6,182.9l9.2-19.1l-1.7-0.8l-9.3,19.1L416.6,182.9z"/>
	<path fill="#00FFFF" d="M61,204.2l1,1.3c-1,0.8-2.5,1.4-3.9,1.4c-3.5,0-5.5-2.3-5.5-5.9c0-3.5,2-6.1,5.5-6.1c1.5,0,2.8,0.5,3.9,1.4
		l-1,1.3c-1-0.7-1.9-1-2.9-1c-1.9,0-3.3,1.4-3.3,4.3c0,3,1.4,4.2,3.3,4.2C59.2,205.2,60.2,204.8,61,204.2z"/>
	<path fill="#00FFFF" d="M75.3,201c0,3.6-1.8,6-5,6c-3.3,0-5-2.3-5-6c0-3.6,1.8-6,5.1-6S75.3,197.4,75.3,201z M67.5,201
		c0,3,0.9,4.3,2.8,4.3c1.9,0,2.8-1.4,2.8-4.3c0-3-0.9-4.3-2.8-4.3C68.4,196.7,67.5,198,67.5,201z"/>
	<path fill="#00FFFF" d="M78.9,195.3h1.8l0.2,1.5c0.9-1.2,2.4-1.8,3.8-1.8c2.2,0,3.2,1.3,3.2,3.4v8.3h-2.1v-7c0-2.2-0.2-3.1-1.8-3.1
		c-1.3,0-2.3,0.9-2.9,1.8v8.3h-2.1V195.3z"/>
	<path fill="#00FFFF" d="M98.6,203.6c0-1-0.3-1.5-2.8-2.1c-2.3-0.6-3.8-1.3-3.8-3.3c0-2,1.8-3.2,4.4-3.2c1.9,0,3.3,0.6,4.3,1.3
		l-0.9,1.4c-0.9-0.6-1.9-1-3.3-1c-1.7,0-2.3,0.6-2.3,1.4c0,1,0.7,1.3,3,1.9c2.2,0.6,3.7,1.4,3.7,3.5c0,2.5-2.4,3.5-4.9,3.5
		c-2.1,0-3.6-0.7-4.6-1.6l1.1-1.3c0.9,0.7,2.1,1.2,3.4,1.2C97.6,205.3,98.6,204.7,98.6,203.6z"/>
	<path fill="#00FFFF" d="M111,207c-2.6,0-4-1.5-4-3.6v-6.6h-2.6v-1.6h2.6v-2.6l2.1-0.2v2.8h3.9l-0.3,1.6h-3.7v6.5
		c0,1.3,0.6,1.9,2.1,1.9c0.8,0,1.6-0.2,2.2-0.5l0.8,1.4C113.4,206.7,112.2,207,111,207z"/>
	<path fill="#984FAA" d="M137.1,207c-2.6,0-4-1.5-4-3.6v-6.6h-2.6v-1.6h2.6v-2.6l2.1-0.2v2.8h3.9l-0.3,1.6h-3.7v6.5
		c0,1.3,0.6,1.9,2.1,1.9c0.8,0,1.6-0.2,2.2-0.5l0.8,1.4C139.5,206.7,138.3,207,137.1,207z"/>
	<path fill="#984FAA" d="M150,205.1h3.2v1.6h-8.8v-1.6h3.5v-8.3h-3.4v-1.6h5.5V205.1z M149.9,191.2c0,0.8-0.6,1.4-1.5,1.4
		c-0.8,0-1.4-0.6-1.4-1.4c0-0.8,0.6-1.4,1.4-1.4C149.3,189.8,149.9,190.4,149.9,191.2z"/>
	<path fill="#984FAA" d="M167,198.2v8.5h-1.9v-8.2c0-1.3-0.1-1.9-0.8-1.9c-0.6,0-1.3,0.4-1.9,1.3v8.8h-1.8v-8.2
		c0-1.3-0.1-1.9-0.8-1.9c-0.7,0-1.3,0.4-1.9,1.3v8.8H156v-11.4h1.6l0.2,1.3c0.6-0.9,1.3-1.6,2.5-1.6c0.9,0,1.7,0.4,2,1.5
		c0.6-0.9,1.4-1.5,2.5-1.5C165.9,195,167,195.6,167,198.2z"/>
	<path fill="#984FAA" d="M175,205.3c1.1,0,2-0.3,3-1l0.9,1.3c-1.1,0.8-2.5,1.4-4,1.4c-3.4,0-5.4-2.4-5.4-6c0-3.5,2-6,5.1-6
		c3,0,4.8,2.2,4.8,5.7c0,0.4,0,0.8,0,1h-7.7C171.9,204.2,173.3,205.3,175,205.3z M171.8,200.2h5.7c0-2.3-1.1-3.6-2.7-3.6
		C173.1,196.6,171.9,197.8,171.8,200.2z"/>
	<path fill="#ED1C24" d="M204.9,198.7h-8.7V197h8.7V198.7z M204.9,202.9h-8.7v-1.8h8.7V202.9z"/>
	<path fill="#F2F2F2" d="M227.1,205.3c1.1,0,2-0.3,3-1l0.9,1.3c-1.1,0.8-2.5,1.4-4,1.4c-3.4,0-5.4-2.4-5.4-6c0-3.5,2-6,5.1-6
		c3,0,4.8,2.2,4.8,5.7c0,0.4,0,0.8,0,1h-7.7C224,204.2,225.4,205.3,227.1,205.3z M223.9,200.2h5.7c0-2.3-1.1-3.6-2.7-3.6
		C225.2,196.6,224,197.8,223.9,200.2z"/>
	<path fill="#F2F2F2" d="M234.2,206.7l4.2-6l-3.7-5.4h2.4l2.5,4.1l2.5-4.1h2.3l-3.7,5.3l4.2,6.1h-2.5l-3-4.8l-3,4.8H234.2z"/>
	<path fill="#F2F2F2" d="M256.5,204.2l1,1.3c-1,0.8-2.5,1.4-3.9,1.4c-3.5,0-5.5-2.3-5.5-5.9c0-3.5,2-6.1,5.5-6.1
		c1.5,0,2.8,0.5,3.9,1.4l-1,1.3c-1-0.7-1.9-1-2.9-1c-1.9,0-3.3,1.4-3.3,4.3c0,3,1.4,4.2,3.3,4.2
		C254.7,205.2,255.7,204.8,256.5,204.2z"/>
	<path fill="#F2F2F2" d="M267.3,205.1h3.2v1.6h-8.8v-1.6h3.5v-8.3h-3.4v-1.6h5.5V205.1z M267.2,191.2c0,0.8-0.6,1.4-1.5,1.4
		c-0.8,0-1.4-0.6-1.4-1.4c0-0.8,0.6-1.4,1.4-1.4C266.6,189.8,267.2,190.4,267.2,191.2z"/>
	<path fill="#F2F2F2" d="M280.4,207c-2.6,0-4-1.5-4-3.6v-6.6h-2.6v-1.6h2.6v-2.6l2.1-0.2v2.8h3.9l-0.3,1.6h-3.7v6.5
		c0,1.3,0.6,1.9,2.1,1.9c0.8,0,1.6-0.2,2.2-0.5l0.8,1.4C282.8,206.7,281.6,207,280.4,207z"/>
	<path fill="#F2F2F2" d="M292.3,205.3c1.1,0,2-0.3,3-1l0.9,1.3c-1.1,0.8-2.5,1.4-4,1.4c-3.4,0-5.4-2.4-5.4-6c0-3.5,2-6,5.1-6
		c3,0,4.8,2.2,4.8,5.7c0,0.4,0,0.8,0,1H289C289.2,204.2,290.6,205.3,292.3,205.3z M289,200.2h5.7c0-2.3-1.1-3.6-2.7-3.6
		C290.4,196.6,289.2,197.8,289,200.2z"/>
	<path fill="#F2F2F2" d="M304.8,203c1.2,0,2,0.9,2,2c0,1.1-0.8,2-2,2c-1.1,0-2-0.9-2-2C302.8,203.9,303.7,203,304.8,203z"/>
	<path fill="#F2F2F2" d="M319.5,207c-2.6,0-4-1.5-4-3.6v-6.6H313v-1.6h2.6v-2.6l2.1-0.2v2.8h3.9l-0.3,1.6h-3.7v6.5
		c0,1.3,0.6,1.9,2.1,1.9c0.8,0,1.6-0.2,2.2-0.5l0.8,1.4C321.9,206.7,320.7,207,319.5,207z"/>
	<path fill="#F2F2F2" d="M332.4,205.1h3.2v1.6h-8.8v-1.6h3.5v-8.3H327v-1.6h5.5V205.1z M332.3,191.2c0,0.8-0.6,1.4-1.5,1.4
		c-0.8,0-1.4-0.6-1.4-1.4c0-0.8,0.6-1.4,1.4-1.4C331.8,189.8,332.3,190.4,332.3,191.2z"/>
	<path fill="#F2F2F2" d="M349.4,198.2v8.5h-1.9v-8.2c0-1.3-0.1-1.9-0.8-1.9c-0.6,0-1.3,0.4-1.9,1.3v8.8H343v-8.2
		c0-1.3-0.1-1.9-0.8-1.9c-0.7,0-1.3,0.4-1.9,1.3v8.8h-1.9v-11.4h1.6l0.2,1.3c0.6-0.9,1.3-1.6,2.5-1.6c0.9,0,1.7,0.4,2,1.5
		c0.6-0.9,1.4-1.5,2.5-1.5C348.4,195,349.4,195.6,349.4,198.2z"/>
	<path fill="#F2F2F2" d="M357.5,205.3c1.1,0,2-0.3,3-1l0.9,1.3c-1.1,0.8-2.5,1.4-4,1.4c-3.4,0-5.4-2.4-5.4-6c0-3.5,2-6,5.1-6
		c3,0,4.8,2.2,4.8,5.7c0,0.4,0,0.8,0,1h-7.7C354.3,204.2,355.7,205.3,357.5,205.3z M354.2,200.2h5.7c0-2.3-1.1-3.6-2.7-3.6
		C355.5,196.6,354.3,197.8,354.2,200.2z"/>
	<path fill="#ED1C24" d="M387.4,198.7h-8.7V197h8.7V198.7z M387.4,202.9h-8.7v-1.8h8.7V202.9z"/>
	<path fill="#39B54A" d="M414,205.5l-0.5,1.4c-1-0.1-1.8-0.6-2.2-1.6c-0.8,1.1-2.1,1.6-3.6,1.6c-2.3,0-3.7-1.4-3.7-3.5
		c0-2.4,1.9-3.7,5.4-3.7h1.7v-0.8c0-1.6-1-2.2-2.6-2.2c-0.8,0-1.8,0.2-3,0.6l-0.5-1.5c1.4-0.5,2.7-0.8,3.9-0.8c3,0,4.4,1.4,4.4,3.8
		v5.3C413.1,205,413.4,205.3,414,205.5z M411,203.9v-2.8h-1.5c-2.4,0-3.3,0.9-3.3,2.3c0,1.3,0.7,2,2.1,2
		C409.3,205.4,410.4,204.8,411,203.9z"/>
	<path fill="#39B54A" d="M427.1,201c0,3.5-1.5,6-4.4,6c-1.2,0-2.2-0.4-3-1.3v5.4l-2.1,0.3v-16.1h1.8l0.2,1.5c0.8-1.2,2-1.8,3.4-1.8
		C426,195,427.1,197.4,427.1,201z M419.7,198.4v5.5c0.6,0.8,1.5,1.4,2.5,1.4c1.8,0,2.7-1.3,2.7-4.3c0-3-0.8-4.3-2.5-4.3
		C421.3,196.6,420.4,197.5,419.7,198.4z"/>
	<path fill="#39B54A" d="M440.2,201c0,3.5-1.5,6-4.4,6c-1.2,0-2.2-0.4-3-1.3v5.4l-2.1,0.3v-16.1h1.8l0.2,1.5c0.8-1.2,2-1.8,3.4-1.8
		C439.1,195,440.2,197.4,440.2,201z M432.8,198.4v5.5c0.6,0.8,1.5,1.4,2.5,1.4c1.8,0,2.7-1.3,2.7-4.3c0-3-0.8-4.3-2.5-4.3
		C434.3,196.6,433.4,197.5,432.8,198.4z"/>
	<path fill="#39B54A" d="M449.9,200.1l4.4,6.6h-2.6l-4-6.3h-1.8v6.3h-2.1v-15h4c3.8,0,5.7,1.4,5.7,4.3
		C453.4,198.2,451.9,199.6,449.9,200.1z M447.9,193.4h-2v5.4h2c2,0,3.2-0.8,3.2-2.8C451.2,194.2,450.1,193.4,447.9,193.4z"/>
	<path fill="#39B54A" d="M461.7,205.3c1.1,0,2-0.3,3-1l0.9,1.3c-1.1,0.8-2.5,1.4-4,1.4c-3.4,0-5.4-2.4-5.4-6c0-3.5,2-6,5.1-6
		c3,0,4.8,2.2,4.8,5.7c0,0.4,0,0.8,0,1h-7.7C458.6,204.2,460,205.3,461.7,205.3z M458.5,200.2h5.7c0-2.3-1.1-3.6-2.7-3.6
		C459.8,196.6,458.6,197.8,458.5,200.2z"/>
	<path fill="#39B54A" d="M475.5,206.7h-2.4l-4.1-11.4h2.2l3.1,9.6l3.1-9.6h2.1L475.5,206.7z"/>
	<path fill="#39B54A" d="M487.8,205.3c1.1,0,2-0.3,3-1l0.9,1.3c-1.1,0.8-2.5,1.4-4,1.4c-3.4,0-5.4-2.4-5.4-6c0-3.5,2-6,5.1-6
		c3,0,4.8,2.2,4.8,5.7c0,0.4,0,0.8,0,1h-7.7C484.7,204.2,486.1,205.3,487.8,205.3z M484.6,200.2h5.7c0-2.3-1.1-3.6-2.7-3.6
		C485.9,196.6,484.7,197.8,484.6,200.2z"/>
	<path fill="#39B54A" d="M505.2,205.5l-0.5,1.4c-1-0.1-1.8-0.6-2.2-1.6c-0.8,1.1-2.1,1.6-3.6,1.6c-2.3,0-3.7-1.4-3.7-3.5
		c0-2.4,1.9-3.7,5.4-3.7h1.7v-0.8c0-1.6-1-2.2-2.6-2.2c-0.8,0-1.8,0.2-3,0.6l-0.5-1.5c1.4-0.5,2.7-0.8,3.9-0.8c3,0,4.4,1.4,4.4,3.8
		v5.3C504.3,205,504.6,205.3,505.2,205.5z M502.3,203.9v-2.8h-1.5c-2.4,0-3.3,0.9-3.3,2.3c0,1.3,0.7,2,2.1,2
		C500.6,205.4,501.6,204.8,502.3,203.9z"/>
	<path fill="#39B54A" d="M513.6,203.8c0,1.1,0.8,1.5,1.8,1.5c0.7,0,1.3-0.2,1.9-0.4l0.5,1.5c-0.6,0.3-1.6,0.6-2.8,0.6
		c-2.2,0-3.5-1.3-3.5-3.4v-11.4h-3.5v-1.6h5.6V203.8z"/>
	<path fill="#00FFFF" d="M529.2,208.7l-1.1,1.1c-3.5-2.9-5.6-5.8-5.6-10.7c0-4.9,2.1-7.8,5.6-10.7l1.1,1.1c-3.1,2.8-4.5,5.2-4.5,9.6
		C524.7,203.5,526.1,205.8,529.2,208.7z"/>
	<path fill="#00FFFF" d="M536.6,189.5l1.1-1.1c3.5,2.9,5.6,5.8,5.6,10.7c0,4.9-2.1,7.8-5.6,10.7l-1.1-1.1c3.1-2.9,4.5-5.2,4.5-9.6
		C541.1,194.7,539.7,192.4,536.6,189.5z"/>
	<path fill="#FFFFFF" d="M62.4,247.4l-0.3,4h-1.6V249h0c-1.7,0-3,1.3-3.7,3.7v4.6h2.3v1.5h-6.2v-1.5h1.8v-8.4h-1.8v-1.5h3.3l0.4,2.7
		c0.9-1.9,2.1-2.9,4.1-2.9C61.3,247.1,61.8,247.2,62.4,247.4z"/>
	<path fill="#FFFFFF" d="M75.3,253.1c0,3.6-1.8,6-5,6c-3.3,0-5-2.3-5-6c0-3.6,1.8-6,5.1-6S75.3,249.5,75.3,253.1z M67.5,253.1
		c0,3,0.9,4.3,2.8,4.3c1.9,0,2.8-1.4,2.8-4.3c0-3-0.9-4.3-2.8-4.3C68.4,248.8,67.5,250.2,67.5,253.1z"/>
	<path fill="#FFFFFF" d="M88.3,253.1c0,3.6-1.8,6-5,6c-3.3,0-5-2.3-5-6c0-3.6,1.8-6,5.1-6S88.3,249.5,88.3,253.1z M80.5,253.1
		c0,3,0.9,4.3,2.8,4.3c1.9,0,2.8-1.4,2.8-4.3c0-3-0.9-4.3-2.8-4.3C81.4,248.8,80.5,250.2,80.5,253.1z"/>
	<path fill="#FFFFFF" d="M98,259.1c-2.6,0-4-1.5-4-3.6V249h-2.6v-1.6h2.6v-2.6l2.1-0.2v2.8h3.9l-0.3,1.6h-3.7v6.5
		c0,1.3,0.6,1.9,2.1,1.9c0.8,0,1.6-0.2,2.2-0.5l0.8,1.4C100.4,258.8,99.2,259.1,98,259.1z"/>
	<path fill="#FFFFFF" d="M109.3,255.1c1.2,0,2,0.9,2,2c0,1.1-0.8,2-2,2c-1.1,0-2-0.9-2-2C107.4,256,108.2,255.1,109.3,255.1z"/>
	<path fill="#FFFFFF" d="M127.3,257.7l-0.5,1.4c-1-0.1-1.8-0.6-2.2-1.6c-0.8,1.1-2.1,1.6-3.6,1.6c-2.3,0-3.7-1.4-3.7-3.5
		c0-2.4,1.9-3.7,5.4-3.7h1.7V251c0-1.6-1-2.2-2.6-2.2c-0.8,0-1.8,0.2-3,0.6l-0.5-1.5c1.4-0.5,2.7-0.8,3.9-0.8c3,0,4.4,1.4,4.4,3.8
		v5.3C126.4,257.1,126.7,257.5,127.3,257.7z M124.3,256v-2.8h-1.5c-2.4,0-3.3,0.9-3.3,2.3c0,1.3,0.7,2,2.1,2
		C122.6,257.6,123.7,257,124.3,256z"/>
	<path fill="#FFFFFF" d="M139.2,256.4l1,1.3c-1,0.8-2.5,1.4-3.9,1.4c-3.5,0-5.5-2.3-5.5-5.9c0-3.5,2-6.1,5.5-6.1
		c1.5,0,2.8,0.5,3.9,1.4l-1,1.3c-1-0.7-1.9-1-2.9-1c-1.9,0-3.3,1.4-3.3,4.3c0,3,1.4,4.2,3.3,4.2
		C137.4,257.3,138.4,256.9,139.2,256.4z"/>
	<path fill="#FFFFFF" d="M150.1,259.1c-2.6,0-4-1.5-4-3.6V249h-2.6v-1.6h2.6v-2.6l2.1-0.2v2.8h3.9l-0.3,1.6h-3.7v6.5
		c0,1.3,0.6,1.9,2.1,1.9c0.8,0,1.6-0.2,2.2-0.5l0.8,1.4C152.5,258.8,151.3,259.1,150.1,259.1z"/>
	<path fill="#FFFFFF" d="M163,257.3h3.2v1.6h-8.8v-1.6h3.5V249h-3.4v-1.6h5.5V257.3z M162.9,243.3c0,0.8-0.6,1.4-1.5,1.4
		c-0.8,0-1.4-0.6-1.4-1.4c0-0.8,0.6-1.4,1.4-1.4C162.4,241.9,162.9,242.5,162.9,243.3z"/>
	<path fill="#FFFFFF" d="M179.6,253.1c0,3.6-1.8,6-5,6c-3.3,0-5-2.3-5-6c0-3.6,1.8-6,5.1-6S179.6,249.5,179.6,253.1z M171.7,253.1
		c0,3,0.9,4.3,2.8,4.3c1.9,0,2.8-1.4,2.8-4.3c0-3-0.9-4.3-2.8-4.3C172.7,248.8,171.7,250.2,171.7,253.1z"/>
	<path fill="#FFFFFF" d="M183.1,247.4h1.8l0.2,1.5c0.9-1.2,2.4-1.8,3.8-1.8c2.2,0,3.2,1.3,3.2,3.4v8.3h-2.1v-7
		c0-2.2-0.2-3.1-1.8-3.1c-1.3,0-2.3,0.9-2.9,1.8v8.3h-2.1V247.4z"/>
	<path fill="#FFFFFF" d="M196.9,243.9h2.1V257h6.8l-0.2,1.9h-8.7V243.9z"/>
	<path fill="#FFFFFF" d="M215.2,257.3h3.2v1.6h-8.8v-1.6h3.5V249h-3.4v-1.6h5.5V257.3z M215.1,243.3c0,0.8-0.6,1.4-1.5,1.4
		c-0.8,0-1.4-0.6-1.4-1.4c0-0.8,0.6-1.4,1.4-1.4C214.5,241.9,215.1,242.5,215.1,243.3z"/>
	<path fill="#FFFFFF" d="M228.9,255.8c0-1-0.3-1.5-2.8-2.1c-2.3-0.6-3.8-1.3-3.8-3.3c0-2,1.8-3.2,4.4-3.2c1.9,0,3.3,0.6,4.3,1.3
		l-0.9,1.4c-0.9-0.6-1.9-1-3.3-1c-1.7,0-2.3,0.6-2.3,1.4c0,1,0.7,1.3,3,1.9c2.2,0.6,3.7,1.4,3.7,3.5c0,2.5-2.4,3.5-4.9,3.5
		c-2.1,0-3.6-0.7-4.6-1.6l1.1-1.3c0.9,0.7,2.1,1.2,3.4,1.2C227.9,257.5,228.9,256.8,228.9,255.8z"/>
	<path fill="#FFFFFF" d="M241.3,259.1c-2.6,0-4-1.5-4-3.6V249h-2.6v-1.6h2.6v-2.6l2.1-0.2v2.8h3.9l-0.3,1.6h-3.7v6.5
		c0,1.3,0.6,1.9,2.1,1.9c0.8,0,1.6-0.2,2.2-0.5l0.8,1.4C243.7,258.8,242.5,259.1,241.3,259.1z"/>
	<path fill="#F2F2F2" d="M252.7,255.1c1.2,0,2,0.9,2,2c0,1.1-0.8,2-2,2c-1.1,0-2-0.9-2-2C250.7,256,251.6,255.1,252.7,255.1z"/>
	<path fill="#39B54A" d="M268,255.8c0-1-0.3-1.5-2.8-2.1c-2.3-0.6-3.8-1.3-3.8-3.3c0-2,1.8-3.2,4.4-3.2c1.9,0,3.3,0.6,4.3,1.3
		l-0.9,1.4c-0.9-0.6-1.9-1-3.3-1c-1.7,0-2.3,0.6-2.3,1.4c0,1,0.7,1.3,3,1.9c2.2,0.6,3.7,1.4,3.7,3.5c0,2.5-2.4,3.5-4.9,3.5
		c-2.1,0-3.6-0.7-4.6-1.6l1.1-1.3c0.9,0.7,2.1,1.2,3.4,1.2C267,257.5,268,256.8,268,255.8z"/>
	<path fill="#39B54A" d="M276.4,248.9c0.9-1.2,2.3-1.8,3.6-1.8c2.2,0,3.2,1.3,3.2,3.4v8.3h-2.1v-8.1c0-1.4-0.6-2-1.8-2
		c-1.2,0-2.3,0.9-2.9,1.8v8.3h-2.1v-16l2.1-0.2V248.9z"/>
	<path fill="#39B54A" d="M296.8,253.1c0,3.6-1.8,6-5,6c-3.3,0-5-2.3-5-6c0-3.6,1.8-6,5.1-6S296.8,249.5,296.8,253.1z M289,253.1
		c0,3,0.9,4.3,2.8,4.3c1.9,0,2.8-1.4,2.8-4.3c0-3-0.9-4.3-2.8-4.3C289.9,248.8,289,250.2,289,253.1z"/>
	<path fill="#39B54A" d="M306.3,258.8l-1.4-8.3l-1.5,8.3h-2.7l-2-11.4h2.1l1.4,10.1l1.7-8.7h2.3l1.6,8.7l1.4-10.1h2l-1.9,11.4H306.3
		z"/>
	<path fill="#39B54A" d="M317.9,259.1c-3.7,0-5.6-3.1-5.6-7.7c0-4.6,1.9-7.8,5.6-7.8s5.6,3.1,5.6,7.8
		C323.4,255.9,321.6,259.1,317.9,259.1z M317.9,245.4c-2.4,0-3.3,2.1-3.3,6c0,3.9,1,6,3.3,6c2.4,0,3.3-2.1,3.3-6
		C321.2,247.4,320.3,245.4,317.9,245.4z"/>
	<path fill="#39B54A" d="M336.5,243.2l-0.7,1.5c-0.7-0.3-1.6-0.5-2.5-0.5c-1.5,0-2.3,0.6-2.3,1.8v2.2h3.9l-0.2,1.6h-3.6v9H329v-9
		h-2.7v-1.6h2.7v-2.2c0-2.1,1.8-3.5,4.3-3.5C334.6,242.5,335.6,242.8,336.5,243.2z"/>
	<path fill="#39B54A" d="M349.6,243.2l-0.7,1.5c-0.7-0.3-1.6-0.5-2.5-0.5c-1.5,0-2.3,0.6-2.3,1.8v2.2h3.9l-0.2,1.6h-3.6v9h-2.1v-9
		h-2.7v-1.6h2.7v-2.2c0-2.1,1.8-3.5,4.3-3.5C347.6,242.5,348.7,242.8,349.6,243.2z"/>
	<path fill="#00FFFF" d="M359.8,260.8l-1.1,1.1c-3.5-2.9-5.6-5.8-5.6-10.7s2.1-7.8,5.6-10.7l1.1,1.1c-3.1,2.8-4.5,5.2-4.5,9.6
		C355.2,255.6,356.7,258,359.8,260.8z"/>
	<path fill="#FCEE21" d="M368.8,242.8h2.4l-0.3,5.7h-1.7L368.8,242.8z"/>
	<path fill="#FCEE21" d="M388.5,250.3v8.5h-1.9v-8.2c0-1.3-0.1-1.9-0.8-1.9c-0.6,0-1.3,0.4-1.9,1.3v8.8h-1.8v-8.2
		c0-1.3-0.1-1.9-0.8-1.9c-0.7,0-1.3,0.4-1.9,1.3v8.8h-1.9v-11.4h1.6l0.2,1.3c0.6-0.9,1.3-1.6,2.5-1.6c0.9,0,1.7,0.4,2,1.5
		c0.6-0.9,1.4-1.5,2.5-1.5C387.4,247.1,388.5,247.7,388.5,250.3z"/>
	<path fill="#FCEE21" d="M397.4,258.9c-0.8,2.5-2.2,4.3-5.3,4.6l-0.3-1.6c2.3-0.4,3-1.3,3.6-3h-0.7l-3.9-11.4h2.2l3.1,9.9l3.1-9.9
		h2.2L397.4,258.9z"/>
	<path fill="#FCEE21" d="M404.7,252h8.8v1.7h-8.8V252z"/>
	<path fill="#FCEE21" d="M427,257.7l-0.5,1.4c-1-0.1-1.8-0.6-2.2-1.6c-0.8,1.1-2.1,1.6-3.6,1.6c-2.3,0-3.7-1.4-3.7-3.5
		c0-2.4,1.9-3.7,5.4-3.7h1.7V251c0-1.6-1-2.2-2.6-2.2c-0.8,0-1.8,0.2-3,0.6l-0.5-1.5c1.4-0.5,2.7-0.8,3.9-0.8c3,0,4.4,1.4,4.4,3.8
		v5.3C426.1,257.1,426.4,257.5,427,257.7z M424,256v-2.8h-1.5c-2.4,0-3.3,0.9-3.3,2.3c0,1.3,0.7,2,2.1,2
		C422.3,257.6,423.4,257,424,256z"/>
	<path fill="#FCEE21" d="M440.2,253.1c0,3.5-1.5,6-4.4,6c-1.2,0-2.2-0.4-3-1.3v5.4l-2.1,0.3v-16.1h1.8l0.2,1.5
		c0.8-1.2,2-1.8,3.4-1.8C439.1,247.1,440.2,249.5,440.2,253.1z M432.8,250.5v5.5c0.6,0.8,1.5,1.4,2.5,1.4c1.8,0,2.7-1.3,2.7-4.3
		s-0.8-4.3-2.5-4.3C434.3,248.8,433.4,249.6,432.8,250.5z"/>
	<path fill="#FCEE21" d="M453.2,253.1c0,3.5-1.5,6-4.4,6c-1.2,0-2.2-0.4-3-1.3v5.4l-2.1,0.3v-16.1h1.8l0.2,1.5
		c0.8-1.2,2-1.8,3.4-1.8C452.1,247.1,453.2,249.5,453.2,253.1z M445.8,250.5v5.5c0.6,0.8,1.5,1.4,2.5,1.4c1.8,0,2.7-1.3,2.7-4.3
		s-0.8-4.3-2.5-4.3C447.3,248.8,446.4,249.6,445.8,250.5z"/>
	<path fill="#FCEE21" d="M462.8,257.6c0,0.9-0.7,1.5-1.5,1.5c-0.9,0-1.5-0.7-1.5-1.5c0-0.8,0.7-1.5,1.5-1.5
		C462.1,256,462.8,256.7,462.8,257.6z M462.1,253.8h-1.8l-0.3-9.9h2.3L462.1,253.8z"/>
	<path fill="#FCEE21" d="M473.1,242.8h2.4l-0.3,5.7h-1.7L473.1,242.8z"/>
	<path fill="#00FFFF" d="M484.5,241.7l1.1-1.1c3.5,2.9,5.6,5.8,5.6,10.7s-2.1,7.8-5.6,10.7l-1.1-1.1c3.1-2.9,4.5-5.2,4.5-9.6
		C489,246.8,487.6,244.5,484.5,241.7z"/>
	<path fill="#FFFFFF" d="M62.4,273.5l-0.3,4h-1.6v-2.4h0c-1.7,0-3,1.3-3.7,3.7v4.6h2.3v1.5h-6.2v-1.5h1.8V275h-1.8v-1.5h3.3l0.4,2.7
		c0.9-1.9,2.1-2.9,4.1-2.9C61.3,273.2,61.8,273.3,62.4,273.5z"/>
	<path fill="#FFFFFF" d="M75.3,279.2c0,3.6-1.8,6-5,6c-3.3,0-5-2.3-5-6c0-3.6,1.8-6,5.1-6S75.3,275.5,75.3,279.2z M67.5,279.2
		c0,3,0.9,4.3,2.8,4.3c1.9,0,2.8-1.4,2.8-4.3c0-3-0.9-4.3-2.8-4.3C68.4,274.8,67.5,276.2,67.5,279.2z"/>
	<path fill="#FFFFFF" d="M88.3,279.2c0,3.6-1.8,6-5,6c-3.3,0-5-2.3-5-6c0-3.6,1.8-6,5.1-6S88.3,275.5,88.3,279.2z M80.5,279.2
		c0,3,0.9,4.3,2.8,4.3c1.9,0,2.8-1.4,2.8-4.3c0-3-0.9-4.3-2.8-4.3C81.4,274.8,80.5,276.2,80.5,279.2z"/>
	<path fill="#FFFFFF" d="M98,285.2c-2.6,0-4-1.5-4-3.6V275h-2.6v-1.6h2.6v-2.6l2.1-0.2v2.8h3.9l-0.3,1.6h-3.7v6.5
		c0,1.3,0.6,1.9,2.1,1.9c0.8,0,1.6-0.2,2.2-0.5l0.8,1.4C100.4,284.8,99.2,285.2,98,285.2z"/>
	<path fill="#FFFFFF" d="M109.3,281.2c1.2,0,2,0.9,2,2c0,1.1-0.8,2-2,2c-1.1,0-2-0.9-2-2C107.4,282.1,108.2,281.2,109.3,281.2z"/>
	<path fill="#FFFFFF" d="M127.3,283.7l-0.5,1.4c-1-0.1-1.8-0.6-2.2-1.6c-0.8,1.1-2.1,1.6-3.6,1.6c-2.3,0-3.7-1.4-3.7-3.5
		c0-2.4,1.9-3.7,5.4-3.7h1.7v-0.8c0-1.6-1-2.2-2.6-2.2c-0.8,0-1.8,0.2-3,0.6l-0.5-1.5c1.4-0.5,2.7-0.8,3.9-0.8c3,0,4.4,1.4,4.4,3.8
		v5.3C126.4,283.2,126.7,283.5,127.3,283.7z M124.3,282.1v-2.8h-1.5c-2.4,0-3.3,0.9-3.3,2.3c0,1.3,0.7,2,2.1,2
		C122.6,283.6,123.7,283,124.3,282.1z"/>
	<path fill="#FFFFFF" d="M139.2,282.4l1,1.3c-1,0.8-2.5,1.4-3.9,1.4c-3.5,0-5.5-2.3-5.5-5.9c0-3.5,2-6.1,5.5-6.1
		c1.5,0,2.8,0.5,3.9,1.4l-1,1.3c-1-0.7-1.9-1-2.9-1c-1.9,0-3.3,1.4-3.3,4.3c0,3,1.4,4.2,3.3,4.2C137.4,283.4,138.4,283,139.2,282.4z
		"/>
	<path fill="#FFFFFF" d="M150.1,285.2c-2.6,0-4-1.5-4-3.6V275h-2.6v-1.6h2.6v-2.6l2.1-0.2v2.8h3.9l-0.3,1.6h-3.7v6.5
		c0,1.3,0.6,1.9,2.1,1.9c0.8,0,1.6-0.2,2.2-0.5l0.8,1.4C152.5,284.8,151.3,285.2,150.1,285.2z"/>
	<path fill="#FFFFFF" d="M163,283.3h3.2v1.6h-8.8v-1.6h3.5V275h-3.4v-1.6h5.5V283.3z M162.9,269.4c0,0.8-0.6,1.4-1.5,1.4
		c-0.8,0-1.4-0.6-1.4-1.4c0-0.8,0.6-1.4,1.4-1.4C162.4,268,162.9,268.6,162.9,269.4z"/>
	<path fill="#FFFFFF" d="M179.6,279.2c0,3.6-1.8,6-5,6c-3.3,0-5-2.3-5-6c0-3.6,1.8-6,5.1-6S179.6,275.5,179.6,279.2z M171.7,279.2
		c0,3,0.9,4.3,2.8,4.3c1.9,0,2.8-1.4,2.8-4.3c0-3-0.9-4.3-2.8-4.3C172.7,274.8,171.7,276.2,171.7,279.2z"/>
	<path fill="#FFFFFF" d="M183.1,273.5h1.8l0.2,1.5c0.9-1.2,2.4-1.8,3.8-1.8c2.2,0,3.2,1.3,3.2,3.4v8.3h-2.1v-7
		c0-2.2-0.2-3.1-1.8-3.1c-1.3,0-2.3,0.9-2.9,1.8v8.3h-2.1V273.5z"/>
	<path fill="#FFFFFF" d="M196.9,269.9h2.1V283h6.8l-0.2,1.9h-8.7V269.9z"/>
	<path fill="#FFFFFF" d="M215.2,283.3h3.2v1.6h-8.8v-1.6h3.5V275h-3.4v-1.6h5.5V283.3z M215.1,269.4c0,0.8-0.6,1.4-1.5,1.4
		c-0.8,0-1.4-0.6-1.4-1.4c0-0.8,0.6-1.4,1.4-1.4C214.5,268,215.1,268.6,215.1,269.4z"/>
	<path fill="#FFFFFF" d="M228.9,281.8c0-1-0.3-1.5-2.8-2.1c-2.3-0.6-3.8-1.3-3.8-3.3c0-2,1.8-3.2,4.4-3.2c1.9,0,3.3,0.6,4.3,1.3
		l-0.9,1.4c-0.9-0.6-1.9-1-3.3-1c-1.7,0-2.3,0.6-2.3,1.4c0,1,0.7,1.3,3,1.9c2.2,0.6,3.7,1.4,3.7,3.5c0,2.5-2.4,3.5-4.9,3.5
		c-2.1,0-3.6-0.7-4.6-1.6l1.1-1.3c0.9,0.7,2.1,1.2,3.4,1.2C227.9,283.5,228.9,282.9,228.9,281.8z"/>
	<path fill="#FFFFFF" d="M241.3,285.2c-2.6,0-4-1.5-4-3.6V275h-2.6v-1.6h2.6v-2.6l2.1-0.2v2.8h3.9l-0.3,1.6h-3.7v6.5
		c0,1.3,0.6,1.9,2.1,1.9c0.8,0,1.6-0.2,2.2-0.5l0.8,1.4C243.7,284.8,242.5,285.2,241.3,285.2z"/>
	<path fill="#F2F2F2" d="M252.7,281.2c1.2,0,2,0.9,2,2c0,1.1-0.8,2-2,2c-1.1,0-2-0.9-2-2C250.7,282.1,251.6,281.2,252.7,281.2z"/>
	<path fill="#39B54A" d="M268,281.8c0-1-0.3-1.5-2.8-2.1c-2.3-0.6-3.8-1.3-3.8-3.3c0-2,1.8-3.2,4.4-3.2c1.9,0,3.3,0.6,4.3,1.3
		l-0.9,1.4c-0.9-0.6-1.9-1-3.3-1c-1.7,0-2.3,0.6-2.3,1.4c0,1,0.7,1.3,3,1.9c2.2,0.6,3.7,1.4,3.7,3.5c0,2.5-2.4,3.5-4.9,3.5
		c-2.1,0-3.6-0.7-4.6-1.6l1.1-1.3c0.9,0.7,2.1,1.2,3.4,1.2C267,283.5,268,282.9,268,281.8z"/>
	<path fill="#39B54A" d="M276.4,275c0.9-1.2,2.3-1.8,3.6-1.8c2.2,0,3.2,1.3,3.2,3.4v8.3h-2.1v-8.1c0-1.4-0.6-2-1.8-2
		c-1.2,0-2.3,0.9-2.9,1.8v8.3h-2.1v-16l2.1-0.2V275z"/>
	<path fill="#39B54A" d="M296.7,283.7l-0.5,1.4c-1-0.1-1.8-0.6-2.2-1.6c-0.8,1.1-2.1,1.6-3.6,1.6c-2.3,0-3.7-1.4-3.7-3.5
		c0-2.4,1.9-3.7,5.4-3.7h1.7v-0.8c0-1.6-1-2.2-2.6-2.2c-0.8,0-1.8,0.2-3,0.6l-0.5-1.5c1.4-0.5,2.7-0.8,3.9-0.8c3,0,4.4,1.4,4.4,3.8
		v5.3C295.8,283.2,296.1,283.5,296.7,283.7z M293.7,282.1v-2.8h-1.5c-2.4,0-3.3,0.9-3.3,2.3c0,1.3,0.7,2,2.1,2
		C292,283.6,293.1,283,293.7,282.1z"/>
	<path fill="#39B54A" d="M310,273.5l-0.3,4H308v-2.4h0c-1.7,0-3,1.3-3.7,3.7v4.6h2.3v1.5h-6.2v-1.5h1.8V275h-1.8v-1.5h3.3l0.4,2.7
		c0.9-1.9,2.1-2.9,4.1-2.9C308.9,273.2,309.4,273.3,310,273.5z"/>
	<path fill="#39B54A" d="M318.4,283.5c1.1,0,2-0.3,3-1l0.9,1.3c-1.1,0.8-2.5,1.4-4,1.4c-3.4,0-5.4-2.4-5.4-6c0-3.5,2-6,5.1-6
		c3,0,4.8,2.2,4.8,5.7c0,0.4,0,0.8,0,1h-7.7C315.2,282.4,316.6,283.5,318.4,283.5z M315.1,278.4h5.7c0-2.3-1.1-3.6-2.7-3.6
		C316.4,274.8,315.3,276,315.1,278.4z"/>
	<path fill="#39B54A" d="M335.1,284.9h-2.7l-1.6-11.2l-1.7,11.2h-2.7l-2-15h2.1l1.4,12.7l1.7-11h2.4l1.6,11l1.6-12.7h2L335.1,284.9z
		"/>
	<path fill="#39B54A" d="M345.5,283.3h3.2v1.6h-8.8v-1.6h3.5V275H340v-1.6h5.5V283.3z M345.4,269.4c0,0.8-0.6,1.4-1.5,1.4
		c-0.8,0-1.4-0.6-1.4-1.4c0-0.8,0.6-1.4,1.4-1.4C344.8,268,345.4,268.6,345.4,269.4z"/>
	<path fill="#39B54A" d="M358.6,285.2c-2.6,0-4-1.5-4-3.6V275h-2.6v-1.6h2.6v-2.6l2.1-0.2v2.8h3.9l-0.3,1.6h-3.7v6.5
		c0,1.3,0.6,1.9,2.1,1.9c0.8,0,1.6-0.2,2.2-0.5l0.8,1.4C361,284.8,359.8,285.2,358.6,285.2z"/>
	<path fill="#39B54A" d="M367.6,275c0.9-1.2,2.3-1.8,3.6-1.8c2.2,0,3.2,1.3,3.2,3.4v8.3h-2.1v-8.1c0-1.4-0.6-2-1.8-2
		c-1.2,0-2.3,0.9-2.9,1.8v8.3h-2.1v-16l2.1-0.2V275z"/>
	<path fill="#00FFFF" d="M385.8,286.9l-1.1,1.1c-3.5-2.9-5.6-5.8-5.6-10.7s2.1-7.8,5.6-10.7l1.1,1.1c-3.1,2.8-4.5,5.2-4.5,9.6
		C381.3,281.7,382.7,284,385.8,286.9z"/>
	<path fill="#FCEE21" d="M394.8,268.9h2.4l-0.3,5.7h-1.7L394.8,268.9z"/>
	<path fill="#FCEE21" d="M410.8,285.2c-2.6,0-4-1.5-4-3.6V275h-2.6v-1.6h2.6v-2.6l2.1-0.2v2.8h3.9l-0.3,1.6h-3.7v6.5
		c0,1.3,0.6,1.9,2.1,1.9c0.8,0,1.6-0.2,2.2-0.5l0.8,1.4C413.1,284.8,411.9,285.2,410.8,285.2z"/>
	<path fill="#FCEE21" d="M419.7,275c0.9-1.2,2.3-1.8,3.6-1.8c2.2,0,3.2,1.3,3.2,3.4v8.3h-2.1v-8.1c0-1.4-0.6-2-1.8-2
		c-1.2,0-2.3,0.9-2.9,1.8v8.3h-2.1v-16l2.1-0.2V275z"/>
	<path fill="#FCEE21" d="M435.6,283.5c1.1,0,2-0.3,3-1l0.9,1.3c-1.1,0.8-2.5,1.4-4,1.4c-3.4,0-5.4-2.4-5.4-6c0-3.5,2-6,5.1-6
		c3,0,4.8,2.2,4.8,5.7c0,0.4,0,0.8,0,1h-7.7C432.5,282.4,433.9,283.5,435.6,283.5z M432.4,278.4h5.7c0-2.3-1.1-3.6-2.7-3.6
		C433.7,274.8,432.5,276,432.4,278.4z"/>
	<path fill="#FCEE21" d="M443.8,278.1h8.8v1.7h-8.8V278.1z"/>
	<path fill="#FCEE21" d="M462.7,284.9l-1.4-8.3l-1.5,8.3H457l-2-11.4h2.1l1.4,10.1l1.7-8.7h2.3l1.6,8.7l1.4-10.1h2l-1.9,11.4H462.7z
		"/>
	<path fill="#FCEE21" d="M479.3,279.2c0,3.6-1.8,6-5,6c-3.3,0-5-2.3-5-6c0-3.6,1.8-6,5.1-6C477.5,273.2,479.3,275.5,479.3,279.2z
		 M471.4,279.2c0,3,0.9,4.3,2.8,4.3c1.9,0,2.8-1.4,2.8-4.3c0-3-0.9-4.3-2.8-4.3C472.4,274.8,471.4,276.2,471.4,279.2z"/>
	<path fill="#FCEE21" d="M492.4,273.5l-0.3,4h-1.6v-2.4h0c-1.7,0-3,1.3-3.7,3.7v4.6h2.3v1.5h-6.2v-1.5h1.8V275h-1.8v-1.5h3.3
		l0.4,2.7c0.9-1.9,2.1-2.9,4.1-2.9C491.4,273.2,491.9,273.3,492.4,273.5z"/>
	<path fill="#FCEE21" d="M500.6,282c0,1.1,0.8,1.5,1.8,1.5c0.7,0,1.3-0.2,1.9-0.4l0.5,1.5c-0.6,0.3-1.6,0.6-2.8,0.6
		c-2.2,0-3.5-1.3-3.5-3.4v-11.4H495v-1.6h5.6V282z"/>
	<path fill="#FCEE21" d="M517.8,268.9v16h-1.8l-0.2-1.5c-0.8,1.2-1.9,1.7-3.2,1.7c-3,0-4.3-2.4-4.3-6c0-3.5,1.7-6,4.5-6
		c1.3,0,2.2,0.5,3,1.3v-5.9L517.8,268.9z M510.4,279.2c0,3,0.9,4.3,2.6,4.3c1.2,0,2.1-0.8,2.7-1.7v-5.6c-0.6-0.9-1.5-1.4-2.5-1.4
		C511.5,274.8,510.4,276.2,510.4,279.2z"/>
	<path fill="#FCEE21" d="M525.1,268.9h2.4l-0.3,5.7h-1.7L525.1,268.9z"/>
	<path fill="#00FFFF" d="M536.6,267.7l1.1-1.1c3.5,2.9,5.6,5.8,5.6,10.7s-2.1,7.8-5.6,10.7l-1.1-1.1c3.1-2.9,4.5-5.2,4.5-9.6
		C541.1,272.9,539.7,270.6,536.6,267.7z"/>
	<path fill="#FFFFFF" d="M58.7,337l-1.4-8.3l-1.5,8.3h-2.7l-2-11.4h2.1l1.4,10.1l1.7-8.7h2.3l1.6,8.7l1.4-10.1h2L61.5,337H58.7z"/>
	<path fill="#FFFFFF" d="M71.8,335.4H75v1.6h-8.8v-1.6h3.5v-8.3h-3.4v-1.6h5.5V335.4z M71.7,321.5c0,0.8-0.6,1.4-1.5,1.4
		c-0.8,0-1.4-0.6-1.4-1.4c0-0.8,0.6-1.4,1.4-1.4C71.1,320.1,71.7,320.7,71.7,321.5z"/>
	<path fill="#FFFFFF" d="M78.9,325.6h1.8l0.2,1.5c0.9-1.2,2.4-1.8,3.8-1.8c2.2,0,3.2,1.3,3.2,3.4v8.3h-2.1v-7c0-2.2-0.2-3.1-1.8-3.1
		c-1.3,0-2.3,0.9-2.9,1.8v8.3h-2.1V325.6z"/>
	<path fill="#FFFFFF" d="M100.8,321v16h-1.8l-0.2-1.5c-0.8,1.2-1.9,1.7-3.2,1.7c-3,0-4.3-2.4-4.3-6c0-3.5,1.7-6,4.5-6
		c1.3,0,2.2,0.5,3,1.3v-5.9L100.8,321z M93.4,331.3c0,3,0.9,4.3,2.6,4.3c1.2,0,2.1-0.8,2.7-1.7v-5.6c-0.6-0.9-1.5-1.4-2.5-1.4
		C94.5,327,93.4,328.4,93.4,331.3z"/>
	<path fill="#FFFFFF" d="M114.4,331.3c0,3.6-1.8,6-5,6c-3.3,0-5-2.3-5-6c0-3.6,1.8-6,5.1-6S114.4,327.7,114.4,331.3z M106.5,331.3
		c0,3,0.9,4.3,2.8,4.3c1.9,0,2.8-1.4,2.8-4.3c0-3-0.9-4.3-2.8-4.3C107.5,327,106.5,328.3,106.5,331.3z"/>
	<path fill="#FFFFFF" d="M123.9,337l-1.4-8.3l-1.5,8.3h-2.7l-2-11.4h2.1l1.4,10.1l1.7-8.7h2.3l1.6,8.7l1.4-10.1h2l-1.9,11.4H123.9z"
		/>
	<path fill="#F2F2F2" d="M135.4,333.3c1.2,0,2,0.9,2,2c0,1.1-0.8,2-2,2c-1.1,0-2-0.9-2-2C133.4,334.2,134.3,333.3,135.4,333.3z"/>
	<path fill="#39B54A" d="M153.4,335.9l-0.5,1.4c-1-0.1-1.8-0.6-2.2-1.6c-0.8,1.1-2.1,1.6-3.6,1.6c-2.3,0-3.7-1.4-3.7-3.5
		c0-2.4,1.9-3.7,5.4-3.7h1.7v-0.8c0-1.6-1-2.2-2.6-2.2c-0.8,0-1.8,0.2-3,0.6l-0.5-1.5c1.4-0.5,2.7-0.8,3.9-0.8c3,0,4.4,1.4,4.4,3.8
		v5.3C152.5,335.3,152.7,335.7,153.4,335.9z M150.4,334.2v-2.8h-1.5c-2.4,0-3.3,0.9-3.3,2.3c0,1.3,0.7,2,2.1,2
		C148.7,335.7,149.7,335.2,150.4,334.2z"/>
	<path fill="#39B54A" d="M165.9,321v16h-1.8l-0.2-1.5c-0.8,1.2-1.9,1.7-3.2,1.7c-3,0-4.3-2.4-4.3-6c0-3.5,1.7-6,4.5-6
		c1.3,0,2.2,0.5,3,1.3v-5.9L165.9,321z M158.6,331.3c0,3,0.9,4.3,2.6,4.3c1.2,0,2.1-0.8,2.7-1.7v-5.6c-0.6-0.9-1.5-1.4-2.5-1.4
		C159.6,327,158.6,328.4,158.6,331.3z"/>
	<path fill="#39B54A" d="M179,321v16h-1.8l-0.2-1.5c-0.8,1.2-1.9,1.7-3.2,1.7c-3,0-4.3-2.4-4.3-6c0-3.5,1.7-6,4.5-6
		c1.3,0,2.2,0.5,3,1.3v-5.9L179,321z M171.6,331.3c0,3,0.9,4.3,2.6,4.3c1.2,0,2.1-0.8,2.7-1.7v-5.6c-0.6-0.9-1.5-1.4-2.5-1.4
		C172.7,327,171.6,328.4,171.6,331.3z"/>
	<path fill="#39B54A" d="M191.8,337h-2.7l-1.6-11.2l-1.7,11.2h-2.7l-2-15h2.1l1.4,12.7l1.7-11h2.4l1.6,11l1.6-12.7h2L191.8,337z"/>
	<path fill="#39B54A" d="M198.2,327.1c0.9-1.2,2.3-1.8,3.6-1.8c2.2,0,3.2,1.3,3.2,3.4v8.3H203v-8.1c0-1.4-0.6-2-1.8-2
		c-1.2,0-2.3,0.9-2.9,1.8v8.3h-2.1v-16l2.1-0.2V327.1z"/>
	<path fill="#39B54A" d="M218.5,335.9l-0.5,1.4c-1-0.1-1.8-0.6-2.2-1.6c-0.8,1.1-2.1,1.6-3.6,1.6c-2.3,0-3.7-1.4-3.7-3.5
		c0-2.4,1.9-3.7,5.4-3.7h1.7v-0.8c0-1.6-1-2.2-2.6-2.2c-0.8,0-1.8,0.2-3,0.6l-0.5-1.5c1.4-0.5,2.7-0.8,3.9-0.8c3,0,4.4,1.4,4.4,3.8
		v5.3C217.6,335.3,217.9,335.7,218.5,335.9z M215.5,334.2v-2.8H214c-2.4,0-3.3,0.9-3.3,2.3c0,1.3,0.7,2,2.1,2
		C213.9,335.7,214.9,335.2,215.5,334.2z"/>
	<path fill="#39B54A" d="M228.3,337.3c-2.6,0-4-1.5-4-3.6v-6.6h-2.6v-1.6h2.6V323l2.1-0.2v2.8h3.9l-0.3,1.6h-3.7v6.5
		c0,1.3,0.6,1.9,2.1,1.9c0.8,0,1.6-0.2,2.2-0.5l0.8,1.4C230.7,337,229.5,337.3,228.3,337.3z"/>
	<path fill="#39B54A" d="M240.7,337h-2.1v-13.2H234v-1.8h11.4l-0.2,1.8h-4.5V337z"/>
	<path fill="#39B54A" d="M257.7,331.3c0,3.6-1.8,6-5,6c-3.3,0-5-2.3-5-6c0-3.6,1.8-6,5.1-6S257.7,327.7,257.7,331.3z M249.9,331.3
		c0,3,0.9,4.3,2.8,4.3c1.9,0,2.8-1.4,2.8-4.3c0-3-0.9-4.3-2.8-4.3C250.8,327,249.9,328.3,249.9,331.3z"/>
	<path fill="#39B54A" d="M264.5,337h-3.5v-15h3.3c3.6,0,7.1,1.2,7.1,7.4C271.3,335.7,267.6,337,264.5,337z M264.7,323.8h-1.6v11.6
		h1.6c2.1,0,4.3-1.1,4.3-5.9C269,324.5,266.7,323.8,264.7,323.8z"/>
	<path fill="#39B54A" d="M283.8,331.3c0,3.6-1.8,6-5,6c-3.3,0-5-2.3-5-6c0-3.6,1.8-6,5.1-6S283.8,327.7,283.8,331.3z M275.9,331.3
		c0,3,0.9,4.3,2.8,4.3c1.9,0,2.8-1.4,2.8-4.3c0-3-0.9-4.3-2.8-4.3C276.9,327,275.9,328.3,275.9,331.3z"/>
	<path fill="#39B54A" d="M288.7,324.1c0,0.7,0.3,3.4,0.3,5.8v7.2h-2v-15h2.9l5.1,13c0-0.7-0.3-3.1-0.3-5.8v-7.2h2v15h-2.9
		L288.7,324.1z"/>
	<path fill="#39B54A" d="M305.3,335.6c1.1,0,2-0.3,3-1l0.9,1.3c-1.1,0.8-2.5,1.4-4,1.4c-3.4,0-5.4-2.4-5.4-6c0-3.5,2-6,5.1-6
		c3,0,4.8,2.2,4.8,5.7c0,0.4,0,0.8,0,1h-7.7C302.2,334.5,303.6,335.6,305.3,335.6z M302.1,330.5h5.7c0-2.3-1.1-3.6-2.7-3.6
		C303.4,326.9,302.2,328.1,302.1,330.5z"/>
	<path fill="#39B54A" d="M312.4,337l4.2-6l-3.7-5.4h2.4l2.5,4.1l2.5-4.1h2.3l-3.7,5.3l4.2,6.1h-2.5l-3-4.8l-3,4.8H312.4z"/>
	<path fill="#39B54A" d="M332.6,337.3c-2.6,0-4-1.5-4-3.6v-6.6H326v-1.6h2.6V323l2.1-0.2v2.8h3.9l-0.3,1.6h-3.7v6.5
		c0,1.3,0.6,1.9,2.1,1.9c0.8,0,1.6-0.2,2.2-0.5l0.8,1.4C334.9,337,333.7,337.3,332.6,337.3z"/>
	<path fill="#00FFFF" d="M346.7,339l-1.1,1.1c-3.5-2.9-5.6-5.8-5.6-10.7s2.1-7.8,5.6-10.7l1.1,1.1c-3.1,2.8-4.5,5.2-4.5,9.6
		C342.2,333.8,343.6,336.1,346.7,339z"/>
	<path fill="#FCEE21" d="M355.7,321h2.4l-0.3,5.7h-1.7L355.7,321z"/>
	<path fill="#FCEE21" d="M370.2,334.1c0,1.1,0.8,1.5,1.8,1.5c0.7,0,1.3-0.2,1.9-0.4l0.5,1.5c-0.6,0.3-1.6,0.6-2.8,0.6
		c-2.2,0-3.5-1.3-3.5-3.4v-11.4h-3.5V321h5.6V334.1z"/>
	<path fill="#FCEE21" d="M388.1,331.3c0,3.6-1.8,6-5,6c-3.3,0-5-2.3-5-6c0-3.6,1.8-6,5.1-6C386.3,325.3,388.1,327.7,388.1,331.3z
		 M380.2,331.3c0,3,0.9,4.3,2.8,4.3c1.9,0,2.8-1.4,2.8-4.3c0-3-0.9-4.3-2.8-4.3C381.2,327,380.2,328.3,380.2,331.3z"/>
	<path fill="#FCEE21" d="M401,335.9l-0.5,1.4c-1-0.1-1.8-0.6-2.2-1.6c-0.8,1.1-2.1,1.6-3.6,1.6c-2.3,0-3.7-1.4-3.7-3.5
		c0-2.4,1.9-3.7,5.4-3.7h1.7v-0.8c0-1.6-1-2.2-2.6-2.2c-0.8,0-1.8,0.2-3,0.6l-0.5-1.5c1.4-0.5,2.7-0.8,3.9-0.8c3,0,4.4,1.4,4.4,3.8
		v5.3C400,335.3,400.3,335.7,401,335.9z M398,334.2v-2.8h-1.5c-2.4,0-3.3,0.9-3.3,2.3c0,1.3,0.7,2,2.1,2
		C396.3,335.7,397.3,335.2,398,334.2z"/>
	<path fill="#FCEE21" d="M413.5,321v16h-1.8l-0.2-1.5c-0.8,1.2-1.9,1.7-3.2,1.7c-3,0-4.3-2.4-4.3-6c0-3.5,1.7-6,4.5-6
		c1.3,0,2.2,0.5,3,1.3v-5.9L413.5,321z M406.2,331.3c0,3,0.9,4.3,2.6,4.3c1.2,0,2.1-0.8,2.7-1.7v-5.6c-0.6-0.9-1.5-1.4-2.5-1.4
		C407.2,327,406.2,328.4,406.2,331.3z"/>
	<path fill="#FCEE21" d="M420.9,321h2.4l-0.3,5.7h-1.7L420.9,321z"/>
	<path fill="#F2F2F2" d="M437,335.1c0,0.6-0.2,1.1-0.5,1.9l-1.7,4H433l1-4.3c-0.5-0.3-0.8-0.9-0.8-1.5c0-1,0.8-1.8,1.8-1.8
		C436.2,333.3,437,334.1,437,335.1z"/>
	<path fill="#00FFFF" d="M466.8,321.4l-0.7,1.5c-0.7-0.3-1.6-0.5-2.5-0.5c-1.5,0-2.3,0.6-2.3,1.8v2.2h3.9L465,328h-3.6v9h-2.1v-9
		h-2.7v-1.6h2.7v-2.2c0-2.1,1.8-3.5,4.3-3.5C464.9,320.7,465.9,321,466.8,321.4z"/>
	<path fill="#00FFFF" d="M471.9,333.6c0,1.4,0.6,2,1.8,2c1.2,0,2.3-0.8,2.9-1.7v-8.4h2.1V337h-1.8l-0.2-1.5
		c-0.9,1.2-2.3,1.8-3.6,1.8c-2.2,0-3.3-1.3-3.3-3.4v-8.3h2.1V333.6z"/>
	<path fill="#00FFFF" d="M482.8,325.6h1.8l0.2,1.5c0.9-1.2,2.4-1.8,3.8-1.8c2.2,0,3.2,1.3,3.2,3.4v8.3h-2.1v-7
		c0-2.2-0.2-3.1-1.8-3.1c-1.3,0-2.3,0.9-2.9,1.8v8.3h-2.1V325.6z"/>
	<path fill="#00FFFF" d="M504.1,334.6l1,1.3c-1,0.8-2.5,1.4-3.9,1.4c-3.5,0-5.4-2.3-5.4-5.9c0-3.5,2-6.1,5.5-6.1
		c1.5,0,2.8,0.5,3.9,1.4l-1,1.3c-1-0.7-1.9-1-2.9-1c-1.9,0-3.3,1.4-3.3,4.3c0,3,1.4,4.2,3.3,4.2
		C502.3,335.5,503.3,335.1,504.1,334.6z"/>
	<path fill="#00FFFF" d="M515,337.3c-2.6,0-4-1.5-4-3.6v-6.6h-2.6v-1.6h2.6V323l2.1-0.2v2.8h3.9l-0.3,1.6h-3.7v6.5
		c0,1.3,0.6,1.9,2.1,1.9c0.8,0,1.6-0.2,2.2-0.5l0.8,1.4C517.4,337,516.2,337.3,515,337.3z"/>
	<path fill="#00FFFF" d="M527.9,335.4h3.2v1.6h-8.8v-1.6h3.5v-8.3h-3.4v-1.6h5.5V335.4z M527.8,321.5c0,0.8-0.6,1.4-1.5,1.4
		c-0.8,0-1.4-0.6-1.4-1.4c0-0.8,0.6-1.4,1.4-1.4C527.2,320.1,527.8,320.7,527.8,321.5z"/>
	<path fill="#00FFFF" d="M544.4,331.3c0,3.6-1.8,6-5,6c-3.3,0-5-2.3-5-6c0-3.6,1.8-6,5.1-6C542.7,325.3,544.4,327.7,544.4,331.3z
		 M536.6,331.3c0,3,0.9,4.3,2.8,4.3c1.9,0,2.8-1.4,2.8-4.3c0-3-0.9-4.3-2.8-4.3C537.5,327,536.6,328.3,536.6,331.3z"/>
	<path fill="#00FFFF" d="M548,325.6h1.8l0.2,1.5c0.9-1.2,2.4-1.8,3.8-1.8c2.2,0,3.2,1.3,3.2,3.4v8.3h-2.1v-7c0-2.2-0.2-3.1-1.8-3.1
		c-1.3,0-2.3,0.9-2.9,1.8v8.3H548V325.6z"/>
	<path fill="#FFFFFF" d="M84.2,351.4c3,0,4.3,2.4,4.3,6c0,3.5-1.6,6-4.6,6c-1.3,0-2.3-0.5-3.1-1.4l-0.1,1.2h-1.8v-16l2.1-0.3v6.3
		C81.8,352,82.9,351.4,84.2,351.4z M86.2,357.4c0-3-0.9-4.3-2.6-4.3c-1.2,0-2.1,0.8-2.7,1.8v5.5c0.6,0.9,1.5,1.4,2.5,1.4
		C85.2,361.7,86.2,360.3,86.2,357.4z"/>
	<path fill="#FFFFFF" d="M101.4,357.4c0,3.6-1.8,6-5,6c-3.3,0-5-2.3-5-6c0-3.6,1.8-6,5.1-6S101.4,353.7,101.4,357.4z M93.5,357.4
		c0,3,0.9,4.3,2.8,4.3c1.9,0,2.8-1.4,2.8-4.3c0-3-0.9-4.3-2.8-4.3C94.5,353,93.5,354.4,93.5,357.4z"/>
	<path fill="#FFFFFF" d="M113.8,347v16H112l-0.2-1.5c-0.8,1.2-1.9,1.7-3.2,1.7c-3,0-4.3-2.4-4.3-6c0-3.5,1.7-6,4.5-6
		c1.3,0,2.2,0.5,3,1.3v-5.9L113.8,347z M106.5,357.4c0,3,0.9,4.3,2.6,4.3c1.2,0,2.1-0.8,2.7-1.7v-5.6c-0.6-0.9-1.5-1.4-2.5-1.4
		C107.5,353,106.5,354.4,106.5,357.4z"/>
	<path fill="#FFFFFF" d="M123.7,363.2c-0.8,2.5-2.2,4.3-5.3,4.6l-0.3-1.6c2.3-0.4,3-1.3,3.6-3H121l-3.9-11.4h2.2l3.1,9.9l3.1-9.9
		h2.1L123.7,363.2z"/>
	<path fill="#FFFFFF" d="M135.4,359.4c1.2,0,2,0.9,2,2c0,1.1-0.8,2-2,2c-1.1,0-2-0.9-2-2C133.4,360.2,134.3,359.4,135.4,359.4z"/>
	<path fill="#FFFFFF" d="M153.4,361.9l-0.5,1.4c-1-0.1-1.8-0.6-2.2-1.6c-0.8,1.1-2.1,1.6-3.6,1.6c-2.3,0-3.7-1.4-3.7-3.5
		c0-2.4,1.9-3.7,5.4-3.7h1.7v-0.8c0-1.6-1-2.2-2.6-2.2c-0.8,0-1.8,0.2-3,0.6l-0.5-1.5c1.4-0.5,2.7-0.8,3.9-0.8c3,0,4.4,1.4,4.4,3.8
		v5.3C152.5,361.4,152.7,361.7,153.4,361.9z M150.4,360.2v-2.8h-1.5c-2.4,0-3.3,0.9-3.3,2.3c0,1.3,0.7,2,2.1,2
		C148.7,361.8,149.7,361.2,150.4,360.2z"/>
	<path fill="#FFFFFF" d="M165.3,360.6l1,1.3c-1,0.8-2.5,1.4-3.9,1.4c-3.5,0-5.5-2.3-5.5-5.9c0-3.5,2-6.1,5.5-6.1
		c1.5,0,2.8,0.5,3.9,1.4l-1,1.3c-1-0.7-1.9-1-2.9-1c-1.9,0-3.3,1.4-3.3,4.3c0,3,1.4,4.2,3.3,4.2
		C163.5,361.6,164.4,361.2,165.3,360.6z"/>
	<path fill="#FFFFFF" d="M176.2,363.4c-2.6,0-4-1.5-4-3.6v-6.6h-2.6v-1.6h2.6v-2.6l2.1-0.2v2.8h3.9l-0.3,1.6h-3.7v6.5
		c0,1.3,0.6,1.9,2.1,1.9c0.8,0,1.6-0.2,2.2-0.5l0.8,1.4C178.6,363,177.3,363.4,176.2,363.4z"/>
	<path fill="#FFFFFF" d="M189.1,361.5h3.2v1.6h-8.8v-1.6h3.5v-8.3h-3.4v-1.6h5.5V361.5z M189,347.6c0,0.8-0.6,1.4-1.5,1.4
		c-0.8,0-1.4-0.6-1.4-1.4c0-0.8,0.6-1.4,1.4-1.4C188.4,346.2,189,346.8,189,347.6z"/>
	<path fill="#FFFFFF" d="M205.6,357.4c0,3.6-1.8,6-5,6c-3.3,0-5-2.3-5-6c0-3.6,1.8-6,5.1-6S205.6,353.7,205.6,357.4z M197.8,357.4
		c0,3,0.9,4.3,2.8,4.3c1.9,0,2.8-1.4,2.8-4.3c0-3-0.9-4.3-2.8-4.3C198.7,353,197.8,354.4,197.8,357.4z"/>
	<path fill="#FFFFFF" d="M209.2,351.6h1.8l0.2,1.5c0.9-1.2,2.4-1.8,3.8-1.8c2.2,0,3.2,1.3,3.2,3.4v8.3H216v-7c0-2.2-0.2-3.1-1.8-3.1
		c-1.3,0-2.3,0.9-2.9,1.8v8.3h-2.1V351.6z"/>
	<path fill="#FFFFFF" d="M222.9,348.1h2.1v13.1h6.8l-0.2,1.9h-8.7V348.1z"/>
	<path fill="#FFFFFF" d="M241.2,361.5h3.2v1.6h-8.8v-1.6h3.5v-8.3h-3.4v-1.6h5.5V361.5z M241.1,347.6c0,0.8-0.6,1.4-1.5,1.4
		c-0.8,0-1.4-0.6-1.4-1.4c0-0.8,0.6-1.4,1.4-1.4C240.5,346.2,241.1,346.8,241.1,347.6z"/>
	<path fill="#FFFFFF" d="M255,360c0-1-0.3-1.5-2.8-2.1c-2.3-0.6-3.8-1.3-3.8-3.3c0-2,1.8-3.2,4.4-3.2c1.9,0,3.3,0.6,4.3,1.3
		l-0.9,1.4c-0.9-0.6-1.9-1-3.3-1c-1.7,0-2.3,0.6-2.3,1.4c0,1,0.7,1.3,3,1.9c2.2,0.6,3.7,1.4,3.7,3.5c0,2.5-2.4,3.5-4.9,3.5
		c-2.1,0-3.6-0.7-4.6-1.6l1.1-1.3c0.9,0.7,2.1,1.2,3.4,1.2C253.9,361.7,255,361,255,360z"/>
	<path fill="#FFFFFF" d="M267.4,363.4c-2.6,0-4-1.5-4-3.6v-6.6h-2.6v-1.6h2.6v-2.6l2.1-0.2v2.8h3.9l-0.3,1.6h-3.7v6.5
		c0,1.3,0.6,1.9,2.1,1.9c0.8,0,1.6-0.2,2.2-0.5l0.8,1.4C269.8,363,268.6,363.4,267.4,363.4z"/>
	<path fill="#F2F2F2" d="M278.7,359.4c1.2,0,2,0.9,2,2c0,1.1-0.8,2-2,2c-1.1,0-2-0.9-2-2C276.8,360.2,277.6,359.4,278.7,359.4z"/>
	<path fill="#39B54A" d="M294.1,360c0-1-0.3-1.5-2.8-2.1c-2.3-0.6-3.8-1.3-3.8-3.3c0-2,1.8-3.2,4.4-3.2c1.9,0,3.3,0.6,4.3,1.3
		l-0.9,1.4c-0.9-0.6-1.9-1-3.3-1c-1.7,0-2.3,0.6-2.3,1.4c0,1,0.7,1.3,3,1.9c2.2,0.6,3.7,1.4,3.7,3.5c0,2.5-2.4,3.5-4.9,3.5
		c-2.1,0-3.6-0.7-4.6-1.6l1.1-1.3c0.9,0.7,2.1,1.2,3.4,1.2C293,361.7,294.1,361,294.1,360z"/>
	<path fill="#39B54A" d="M302.5,353.1c0.9-1.2,2.3-1.8,3.6-1.8c2.2,0,3.2,1.3,3.2,3.4v8.3h-2.1v-8.1c0-1.4-0.6-2-1.8-2
		c-1.2,0-2.3,0.9-2.9,1.8v8.3h-2.1v-16l2.1-0.2V353.1z"/>
	<path fill="#39B54A" d="M322.9,357.4c0,3.6-1.8,6-5,6c-3.3,0-5-2.3-5-6c0-3.6,1.8-6,5.1-6C321.2,351.4,322.9,353.7,322.9,357.4z
		 M315,357.4c0,3,0.9,4.3,2.8,4.3c1.9,0,2.8-1.4,2.8-4.3c0-3-0.9-4.3-2.8-4.3C316,353,315,354.4,315,357.4z"/>
	<path fill="#39B54A" d="M330.9,363.4c-3.7,0-5.6-3.1-5.6-7.7c0-4.6,1.9-7.8,5.6-7.8s5.6,3.1,5.6,7.8
		C336.5,360.2,334.6,363.4,330.9,363.4z M330.9,349.6c-2.4,0-3.3,2.1-3.3,6c0,3.9,1,6,3.3,6c2.4,0,3.3-2.1,3.3-6
		C334.2,351.7,333.3,349.6,330.9,349.6z"/>
	<path fill="#39B54A" d="M349.6,347.4l-0.7,1.5c-0.7-0.3-1.6-0.5-2.5-0.5c-1.5,0-2.3,0.6-2.3,1.8v2.2h3.9l-0.2,1.6h-3.6v9h-2.1v-9
		h-2.7v-1.6h2.7v-2.2c0-2.1,1.8-3.5,4.3-3.5C347.6,346.8,348.7,347,349.6,347.4z"/>
	<path fill="#39B54A" d="M362.6,347.4l-0.7,1.5c-0.7-0.3-1.6-0.5-2.5-0.5c-1.5,0-2.3,0.6-2.3,1.8v2.2h3.9l-0.2,1.6h-3.6v9h-2.1v-9
		h-2.7v-1.6h2.7v-2.2c0-2.1,1.8-3.5,4.3-3.5C360.7,346.8,361.7,347,362.6,347.4z"/>
	<path fill="#984FAA" d="M372.8,365.1l-1.1,1.1c-3.5-2.9-5.6-5.8-5.6-10.7s2.1-7.8,5.6-10.7l1.1,1.1c-3.1,2.8-4.5,5.2-4.5,9.6
		C368.3,359.9,369.7,362.2,372.8,365.1z"/>
	<path fill="#FFFF00" d="M381.8,347h2.4l-0.3,5.7h-1.7L381.8,347z"/>
	<path fill="#FFFF00" d="M393.7,353.1c0.9-1.2,2.3-1.8,3.6-1.8c2.2,0,3.2,1.3,3.2,3.4v8.3h-2.1v-8.1c0-1.4-0.6-2-1.8-2
		c-1.2,0-2.3,0.9-2.9,1.8v8.3h-2.1v-16l2.1-0.2V353.1z"/>
	<path fill="#FFFF00" d="M406.7,359.7c0,1.4,0.6,2,1.8,2c1.2,0,2.3-0.8,2.9-1.7v-8.4h2.1v11.4h-1.8l-0.2-1.5
		c-0.9,1.2-2.3,1.8-3.6,1.8c-2.2,0-3.3-1.3-3.3-3.4v-8.3h2.1V359.7z"/>
	<path fill="#FFFF00" d="M427.7,352.2c-0.9,0.3-2,0.3-3.3,0.3c1.4,0.6,2,1.6,2,2.9c0,2.3-1.7,3.9-4.4,3.9c-0.7,0-1.2-0.1-1.7-0.2
		c-0.3,0.2-0.5,0.6-0.5,1c0,0.5,0.3,0.9,1.5,0.9h2c2.4,0,4.1,1.3,4.1,3.1c0,2.3-2,3.5-5.6,3.5c-3.8,0-5-1.2-5-3.5h1.9
		c0,1.3,0.6,1.9,3.1,1.9c2.5,0,3.5-0.6,3.5-1.8c0-1-1-1.6-2.4-1.6h-2c-2.1,0-3-1-3-2.2c0-0.7,0.4-1.5,1.3-2
		c-1.3-0.7-1.9-1.7-1.9-3.2c0-2.4,1.9-4,4.6-4c2.8,0,3.9-0.4,5.3-1L427.7,352.2z M419.4,355.4c0,1.5,0.8,2.5,2.6,2.5
		c1.5,0,2.4-0.9,2.4-2.6c0-1.7-0.8-2.5-2.4-2.5C420.2,352.9,419.4,353.9,419.4,355.4z"/>
	<path fill="#FFFF00" d="M435.6,361.7c1.1,0,2-0.3,3-1l0.9,1.3c-1.1,0.8-2.5,1.4-4,1.4c-3.4,0-5.4-2.4-5.4-6c0-3.5,2-6,5.1-6
		c3,0,4.8,2.2,4.8,5.7c0,0.4,0,0.8,0,1h-7.7C432.5,360.6,433.9,361.7,435.6,361.7z M432.4,356.6h5.7c0-2.3-1.1-3.6-2.7-3.6
		C433.7,353,432.5,354.1,432.4,356.6z"/>
	<path fill="#FFFF00" d="M443.8,356.3h8.8v1.7h-8.8V356.3z"/>
	<path fill="#FFFF00" d="M463.5,360c0-1-0.3-1.5-2.8-2.1c-2.3-0.6-3.8-1.3-3.8-3.3c0-2,1.8-3.2,4.4-3.2c1.9,0,3.3,0.6,4.3,1.3
		l-0.9,1.4c-0.9-0.6-1.9-1-3.3-1c-1.7,0-2.3,0.6-2.3,1.4c0,1,0.7,1.3,3,1.9c2.2,0.6,3.7,1.4,3.7,3.5c0,2.5-2.4,3.5-4.9,3.5
		c-2.1,0-3.6-0.7-4.6-1.6l1.1-1.3c0.9,0.7,2.1,1.2,3.4,1.2C462.4,361.7,463.5,361,463.5,360z"/>
	<path fill="#FFFF00" d="M479.7,354.6v8.5h-1.9v-8.2c0-1.3-0.1-1.9-0.8-1.9c-0.6,0-1.3,0.4-1.9,1.3v8.8h-1.8v-8.2
		c0-1.3-0.1-1.9-0.8-1.9c-0.7,0-1.3,0.4-1.9,1.3v8.8h-1.9v-11.4h1.6l0.2,1.3c0.6-0.9,1.3-1.6,2.5-1.6c0.9,0,1.7,0.4,2,1.5
		c0.6-0.9,1.4-1.5,2.5-1.5C478.7,351.4,479.7,352,479.7,354.6z"/>
	<path fill="#FFFF00" d="M488.8,361.5h3.2v1.6h-8.8v-1.6h3.5v-8.3h-3.4v-1.6h5.5V361.5z M488.7,347.6c0,0.8-0.6,1.4-1.5,1.4
		c-0.8,0-1.4-0.6-1.4-1.4c0-0.8,0.6-1.4,1.4-1.4C488.1,346.2,488.7,346.8,488.7,347.6z"/>
	<path fill="#FFFF00" d="M500.6,360.1c0,1.1,0.8,1.5,1.8,1.5c0.7,0,1.3-0.2,1.9-0.4l0.5,1.5c-0.6,0.3-1.6,0.6-2.8,0.6
		c-2.2,0-3.5-1.3-3.5-3.4v-11.4H495V347h5.6V360.1z"/>
	<path fill="#FFFF00" d="M513.8,361.7c1.1,0,2-0.3,3-1l0.9,1.3c-1.1,0.8-2.5,1.4-4,1.4c-3.4,0-5.4-2.4-5.4-6c0-3.5,2-6,5.1-6
		c3,0,4.8,2.2,4.8,5.7c0,0.4,0,0.8,0,1h-7.7C510.7,360.6,512.1,361.7,513.8,361.7z M510.6,356.6h5.7c0-2.3-1.1-3.6-2.7-3.6
		C511.9,353,510.7,354.1,510.6,356.6z"/>
	<path fill="#FFFF00" d="M525.1,347h2.4l-0.3,5.7h-1.7L525.1,347z"/>
	<path fill="#984FAA" d="M536.6,345.9l1.1-1.1c3.5,2.9,5.6,5.8,5.6,10.7s-2.1,7.8-5.6,10.7l-1.1-1.1c3.1-2.9,4.5-5.2,4.5-9.6
		C541.1,351.1,539.7,348.8,536.6,345.9z"/>
</g>
</svg>
