<svg xmlns="http://www.w3.org/2000/svg" x="0px" y="0px" width="600px" height="400px" viewBox="0 0 600 400">
<rect id="Background" x="16.4" y="14" fill="#53C1DE" width="599" height="402"/>
<path fill="#E2DDD7" d="M588,400H12c-6.6,0-12-5.4-12-12V12C0,5.4,5.4,0,12,0h576c6.6,0,12,5.4,12,12v376
	C600,394.6,594.6,400,588,400z"/>
<g>
	<path fill="#53C1DE" d="M502.8,93.7c-2-0.7-4.1-1.4-6.3-2c0.4-1.4,0.7-2.9,1-4.3c4.7-23,1.6-41.5-8.9-47.6
		c-10.1-5.8-26.7,0.2-43.5,14.8c-1.6,1.4-3.2,2.9-4.8,4.4c-1.1-1-2.1-2-3.2-3c-17.6-15.6-35.2-22.2-45.7-16
		c-10.1,5.9-13.1,23.3-8.9,45.1c0.4,2.1,0.9,4.3,1.4,6.4c-2.5,0.7-4.9,1.5-7.2,2.3c-20.6,7.2-33.7,18.4-33.7,30.1
		c0,12,14.1,24.1,35.5,31.5c1.7,0.6,3.4,1.1,5.3,1.6c-0.6,2.4-1.1,4.7-1.5,6.9c-4.1,21.4-0.9,38.4,9.2,44.2c10.4,6,28-0.2,45-15.1
		c1.3-1.2,2.7-2.4,4.1-3.7c1.8,1.7,3.5,3.3,5.3,4.8c16.5,14.2,32.8,20,42.9,14.1c10.4-6,13.8-24.3,9.4-46.5
		c-0.3-1.7-0.7-3.4-1.2-5.2c1.2-0.4,2.4-0.7,3.6-1.1c22.3-7.4,36.8-19.3,36.8-31.5C537.3,112.2,523.7,100.9,502.8,93.7z M450.5,60.9
		c14.4-12.5,27.8-17.4,33.9-13.9c6.5,3.8,9,18.9,5,38.7c-0.3,1.3-0.6,2.6-0.9,3.9c-8.1-1.9-16.8-3.2-26-4.1
		C457.1,77.9,451.6,71,446,65C447.5,63.6,449,62.2,450.5,60.9z M404.7,124.1c2.5-5.2,5.3-10.5,8.3-15.7l0,0c3-5.2,6.2-10.2,9.4-15
		c5.8-0.4,11.7-0.7,17.7-0.7h0c6,0,12,0.2,17.7,0.7c3.2,4.7,6.4,9.7,9.4,15c3,5.3,5.8,10.5,8.4,15.6c-2.5,5.2-5.3,10.5-8.4,15.7
		c-3,5.3-6.2,10.3-9.3,15c-5.8,0.4-11.7,0.6-17.8,0.6c-6,0-11.9-0.2-17.6-0.6c-3.3-4.8-6.5-9.9-9.5-15.1h0
		C410,134.6,407.2,129.4,404.7,124.1z M400.3,133.9c1.7,3.4,3.6,6.7,5.5,10.1h0c2,3.4,4,6.7,6.1,10c-6.4-0.7-12.4-1.7-17.9-2.9
		C395.7,145.5,397.8,139.8,400.3,133.9z M400.3,114.4c-2.4-5.7-4.5-11.4-6.2-16.8c5.5-1.2,11.5-2.3,17.6-3c-2,3.2-4,6.5-6,9.8v0
		C403.9,107.6,402,111,400.3,114.4z M474.4,143.9c2-3.4,3.9-6.9,5.6-10.3c2.6,5.9,4.8,11.7,6.5,17.1c-5.6,1.3-11.7,2.3-18.1,3.1
		C470.5,150.6,472.5,147.3,474.4,143.9z M480,114.4c-1.8-3.3-3.6-6.7-5.6-10.1c-1.9-3.3-3.9-6.6-5.9-9.7c6.2,0.8,12.1,1.8,17.7,3.1
		C484.5,103,482.5,108.6,480,114.4z M440.2,71c3.8,4.1,7.7,8.8,11.4,13.8c-3.8-0.2-7.7-0.3-11.5-0.3c-3.8,0-7.7,0.1-11.4,0.3
		C432.5,79.8,436.3,75.2,440.2,71z M395.4,47.3c6.5-3.8,20.9,1.6,36,15.1c1,0.9,1.9,1.8,2.9,2.7c-5.6,6.1-11.2,13-16.6,20.5
		c-9.1,0.8-17.9,2.2-25.9,4c-0.5-2-1-4-1.3-6C386.9,64.9,389.3,50.8,395.4,47.3z M386,149c-1.7-0.5-3.3-1-4.8-1.5
		c-9.5-3.2-17.3-7.5-22.7-12c-4.8-4.1-7.3-8.2-7.3-11.6c0-7.1,10.6-16.1,28.2-22.2c2.1-0.7,4.4-1.4,6.7-2.1
		c2.4,7.9,5.6,16.2,9.5,24.6C391.6,132.6,388.4,141,386,149z M431,186.9c-7.5,6.6-15.1,11.3-21.8,13.6c-6,2.1-10.8,2.2-13.6,0.5
		c-6.1-3.5-8.7-17.2-5.2-35.5c0.4-2.1,0.9-4.3,1.4-6.5c8,1.8,16.8,3,26.2,3.8c5.4,7.6,11,14.5,16.7,20.6
		C433.4,184.7,432.2,185.8,431,186.9z M440.4,177.5c-3.9-4.2-7.9-8.9-11.7-14c3.7,0.1,7.5,0.2,11.4,0.2c4,0,7.9-0.1,11.7-0.3
		C448.1,168.6,444.2,173.3,440.4,177.5z M490.9,189.1c-1.2,6.2-3.5,10.4-6.4,12.1c-6.1,3.5-19.2-1.1-33.4-13.2
		c-1.6-1.4-3.3-2.9-4.9-4.5c5.5-6,11-13,16.3-20.7c9.4-0.8,18.3-2.2,26.3-4.1c0.4,1.6,0.7,3.2,1.1,4.7
		C491.9,173.2,492.2,182.1,490.9,189.1z M497.9,147.6c-1.1,0.4-2.2,0.7-3.3,1c-2.5-7.8-5.8-16.1-9.8-24.6c3.9-8.4,7.1-16.5,9.5-24.3
		c2,0.6,3.9,1.2,5.8,1.8c18,6.2,29,15.3,29,22.4C529,131.5,517.2,141.2,497.9,147.6z"/>
</g>
<g>
	<circle fill="#53C1DE" cx="440.1" cy="123.9" r="17.4"/>
</g>
<g>
	<path fill="#679E63" d="M169.8,352.4c-8.8,0-10.6-4-10.6-7.4c0-0.3,0.3-0.6,0.6-0.6h2.6c0.3,0,0.5,0.2,0.6,0.5c0.4,2.6,1.6,4,6.9,4
		c4.2,0,6-1,6-3.2c0-1.3-0.5-2.2-7.1-2.9c-5.5-0.5-8.9-1.8-8.9-6.1c0-4,3.4-6.5,9.1-6.5c6.4,0,9.6,2.2,10,7c0,0.2,0,0.3-0.2,0.4
		c-0.1,0.1-0.3,0.2-0.4,0.2h-2.6c-0.3,0-0.5-0.2-0.6-0.5c-0.6-2.8-2.1-3.7-6.3-3.7c-4.6,0-5.1,1.6-5.1,2.8c0,1.5,0.6,1.9,6.9,2.7
		c6.2,0.8,9.1,2,9.1,6.3C179.8,349.9,176.1,352.4,169.8,352.4z"/>
</g>
<g>
	<path fill="#679E63" d="M198.7,328.2c0,2.1-1.7,3.9-3.9,3.9c-2.1,0-3.9-1.7-3.9-3.9c0-2.2,1.8-3.9,3.9-3.9
		C196.9,324.3,198.7,326,198.7,328.2z M191.6,328.2c0,1.8,1.5,3.2,3.2,3.2c1.8,0,3.2-1.5,3.2-3.2c0-1.8-1.5-3.2-3.2-3.2
		C193,324.9,191.6,326.4,191.6,328.2z M193.3,326h1.5c0.5,0,1.5,0,1.5,1.1c0,0.8-0.5,1-0.8,1.1c0.6,0,0.6,0.4,0.7,1
		c0,0.3,0.1,0.9,0.2,1.1h-0.9c0-0.2-0.2-1.3-0.2-1.4c-0.1-0.2-0.1-0.4-0.4-0.4h-0.8v1.7h-0.8V326z M194.2,327.9h0.7
		c0.6,0,0.7-0.4,0.7-0.6c0-0.6-0.4-0.6-0.6-0.6h-0.7V327.9z"/>
</g>
<g>
	<path fill-rule="evenodd" clip-rule="evenodd" fill="#333333" d="M101.5,277.9c0-0.9-0.5-1.8-1.3-2.2L79,263.5
		c-0.4-0.2-0.8-0.3-1.2-0.3c0,0-0.2,0-0.2,0c-0.4,0-0.8,0.1-1.2,0.3l-21.2,12.2c-0.8,0.5-1.3,1.3-1.3,2.2l0,32.9
		c0,0.5,0.2,0.9,0.6,1.1c0.4,0.2,0.9,0.2,1.3,0l12.6-7.2c0.8-0.5,1.3-1.3,1.3-2.2v-15.4c0-0.9,0.5-1.8,1.3-2.2l5.4-3.1
		c0.4-0.2,0.8-0.3,1.3-0.3c0.4,0,0.9,0.1,1.3,0.3l5.4,3.1c0.8,0.5,1.3,1.3,1.3,2.2v15.4c0,0.9,0.5,1.8,1.3,2.2l12.6,7.2
		c0.4,0.2,0.9,0.2,1.3,0c0.4-0.2,0.6-0.7,0.6-1.1L101.5,277.9z"/>
</g>
<g>
	<path fill-rule="evenodd" clip-rule="evenodd" fill="#333333" d="M203.7,232.7c-0.4-0.2-0.9-0.2-1.3,0c-0.4,0.2-0.6,0.7-0.6,1.1
		v32.6c0,0.3-0.2,0.6-0.4,0.8c-0.3,0.2-0.6,0.2-0.9,0l-5.3-3.1c-0.8-0.5-1.8-0.5-2.6,0l-21.2,12.3c-0.8,0.5-1.3,1.3-1.3,2.2v24.5
		c0,0.9,0.5,1.8,1.3,2.2l21.2,12.3c0.8,0.5,1.8,0.5,2.6,0l21.2-12.3c0.8-0.5,1.3-1.3,1.3-2.2V242c0-0.9-0.5-1.8-1.3-2.2L203.7,232.7
		z M201.8,295c0,0.2-0.1,0.4-0.3,0.6l-7.3,4.2c-0.2,0.1-0.4,0.1-0.6,0l-7.3-4.2c-0.2-0.1-0.3-0.3-0.3-0.6v-8.4
		c0-0.2,0.1-0.4,0.3-0.6l7.3-4.2c0.2-0.1,0.4-0.1,0.6,0l7.3,4.2c0.2,0.1,0.3,0.3,0.3,0.6V295z"/>
</g>
<g>
	<path fill-rule="evenodd" clip-rule="evenodd" fill="#333333" d="M274.5,286.4c0.8-0.5,1.3-1.3,1.3-2.2v-5.9c0-0.9-0.5-1.8-1.3-2.2
		l-21.1-12.3c-0.8-0.5-1.8-0.5-2.6,0L229.6,276c-0.8,0.5-1.3,1.3-1.3,2.2v24.5c0,0.9,0.5,1.8,1.3,2.2l21.1,12c0.8,0.4,1.7,0.4,2.5,0
		l12.8-7.1c0.4-0.2,0.7-0.7,0.7-1.1c0-0.5-0.2-0.9-0.6-1.1l-21.4-12.3c-0.4-0.2-0.6-0.7-0.6-1.1v-7.7c0-0.5,0.2-0.9,0.6-1.1l6.7-3.8
		c0.4-0.2,0.9-0.2,1.3,0l6.7,3.8c0.4,0.2,0.6,0.7,0.6,1.1v6c0,0.5,0.2,0.9,0.6,1.1c0.4,0.2,0.9,0.2,1.3,0L274.5,286.4z"/>
</g>
<g>
	<path fill-rule="evenodd" clip-rule="evenodd" fill="#679E63" d="M251.8,285.2c0.2-0.1,0.3-0.1,0.5,0l4.1,2.4
		c0.2,0.1,0.2,0.3,0.2,0.4v4.7c0,0.2-0.1,0.3-0.2,0.4l-4.1,2.4c-0.2,0.1-0.3,0.1-0.5,0l-4.1-2.4c-0.2-0.1-0.2-0.3-0.2-0.4V288
		c0-0.2,0.1-0.3,0.2-0.4L251.8,285.2z"/>
</g>
<g>
	<path fill="#3F873F" d="M159.5,280.4v-2.1c0-0.9-0.5-1.8-1.3-2.2l-21.1-12.2c-0.8-0.5-1.8-0.5-2.6,0l-4,2.3L159.5,280.4z"/>
	<polygon fill="#3F873F" points="159.5,281.6 159.5,280.4 130.6,266.2 129.4,266.8 	"/>
	<polygon fill="#3F873F" points="159.5,282.8 159.5,281.6 129.4,266.8 128.2,267.5 	"/>
	<polygon fill="#3F873F" points="159.5,284.1 159.5,282.8 128.2,267.5 127.1,268.2 	"/>
	<polygon fill="#3F873F" points="159.5,285.3 159.5,284.1 127.1,268.2 125.9,268.9 	"/>
	<polygon fill="#3F873F" points="159.5,286.6 159.5,285.3 125.9,268.9 124.8,269.5 	"/>
	<polygon fill="#3F883F" points="159.5,287.8 159.5,286.6 124.8,269.5 123.6,270.2 	"/>
	<polygon fill="#3F883F" points="159.5,289 159.5,287.8 123.6,270.2 122.4,270.9 	"/>
	<polygon fill="#3F883E" points="159.5,290.3 159.5,289 122.4,270.9 121.3,271.5 	"/>
	<polygon fill="#3F883E" points="159.5,291.5 159.5,290.3 121.3,271.5 120.1,272.2 	"/>
	<polygon fill="#3F893E" points="159.5,292.7 159.5,291.5 120.1,272.2 119,272.9 	"/>
	<polygon fill="#3F893E" points="159.5,294 159.5,292.7 119,272.9 117.8,273.5 	"/>
	<polygon fill="#3F8A3E" points="159.5,295.2 159.5,294 117.8,273.5 116.6,274.2 	"/>
	<polygon fill="#3F8A3D" points="159.5,296.5 159.5,295.2 116.6,274.2 115.5,274.9 	"/>
	<polygon fill="#3F8B3D" points="159.5,297.7 159.5,296.5 115.5,274.9 114.3,275.6 	"/>
	<path fill="#3F8C3D" d="M159.5,298.9v-1.2l-45.2-22.1l-0.9,0.5c-0.1,0-0.1,0.1-0.2,0.2L159.5,298.9z"/>
	<path fill="#3F8C3C" d="M159.5,300.2v-1.2l-46.3-22.7c-0.3,0.2-0.6,0.5-0.8,0.9L159.5,300.2z"/>
	<path fill="#3F8D3C" d="M159.5,301.4v-1.2l-47.1-23.1c-0.2,0.3-0.3,0.7-0.3,1.1L159.5,301.4z"/>
	<path fill="#3F8E3B" d="M159.5,302.6v-1.2l-47.3-23.2c0,0,0,0.1,0,0.1v1.1L159.5,302.6z"/>
	<path fill="#3F8F3B" d="M159.2,303.8c0.2-0.3,0.3-0.7,0.3-1.1v0l-47.4-23.2v1.2L159.2,303.8z"/>
	<path fill="#3F903A" d="M158.5,304.7c0.3-0.2,0.5-0.5,0.7-0.9l-47.1-23.1v1.2L158.5,304.7z"/>
	<path fill="#3E913A" d="M157.4,305.4l0.8-0.5c0.1-0.1,0.2-0.2,0.3-0.2l-46.4-22.7v1.2L157.4,305.4z"/>
	<polygon fill="#3E9239" points="156.3,306 157.4,305.4 112.1,283.2 112.1,284.4 	"/>
	<polygon fill="#3E9339" points="155.1,306.7 156.3,306 112.1,284.4 112.1,285.6 	"/>
	<polygon fill="#3E9438" points="153.9,307.4 155.1,306.7 112.1,285.6 112.1,286.9 	"/>
	<polygon fill="#3E9637" points="152.8,308 153.9,307.4 112.1,286.9 112.1,288.1 	"/>
	<polygon fill="#3E9737" points="151.6,308.7 152.8,308 112.1,288.1 112.1,289.3 	"/>
	<polygon fill="#3E9836" points="150.5,309.4 151.6,308.7 112.1,289.3 112.1,290.6 	"/>
	<polygon fill="#3E9A35" points="149.3,310 150.5,309.4 112.1,290.6 112.1,291.8 	"/>
	<polygon fill="#3E9B35" points="148.1,310.7 149.3,310 112.1,291.8 112.1,293.1 	"/>
	<polygon fill="#3E9D34" points="147,311.4 148.1,310.7 112.1,293.1 112.1,294.3 	"/>
	<polygon fill="#3E9F33" points="145.8,312.1 147,311.4 112.1,294.3 112.1,295.5 	"/>
	<polygon fill="#3EA032" points="144.7,312.7 145.8,312.1 112.1,295.5 112.1,296.8 	"/>
	<polygon fill="#3EA231" points="143.5,313.4 144.7,312.7 112.1,296.8 112.1,298 	"/>
	<polygon fill="#3EA430" points="142.3,314.1 143.5,313.4 112.1,298 112.1,299.2 	"/>
	<polygon fill="#3DA62F" points="141.2,314.7 142.3,314.1 112.1,299.2 112.1,300.5 	"/>
	<polygon fill="#3DA82E" points="140,315.4 141.2,314.7 112.1,300.5 112.1,301.7 	"/>
	<path fill="#3DAA2D" d="M138.9,316.1l1.2-0.7l-27.9-13.7v1c0,0.1,0,0.2,0,0.3L138.9,316.1z"/>
	<path fill="#3DAC2C" d="M112.2,303c0.1,0.7,0.4,1.3,1,1.7l24.6,12l1.2-0.7L112.2,303z"/>
	<path fill="#3DAE2B" d="M113.1,304.7c0.1,0.1,0.2,0.1,0.3,0.2l13.4,7.7l9.7,4.7c0.2-0.1,0.4-0.1,0.6-0.3l0.6-0.4L113.1,304.7z"/>
	<path fill="#3DAE2B" d="M126.8,312.6l7.8,4.5c0.6,0.3,1.3,0.4,1.9,0.3L126.8,312.6z"/>
</g>
<path fill="#FF9900" d="M527,336.1c-25,10.6-52.1,15.7-76.8,15.7c-36.6,0-72-10.1-100.7-26.7c-2.5-1.5-4.4,1.1-2.3,3
	c26.5,23.9,61.6,38.4,100.6,38.4c27.8,0,60.1-8.7,82.4-25.2C533.9,338.5,530.7,334.4,527,336.1z"/>
<g>
	<path fill="#1E242D" d="M404.5,305.5c-0.5-1.5-0.7-3.5-0.7-6h-0.1v-21.9c0-7.4-1.9-13-5.6-16.6c-3.8-3.7-9.7-5.5-17.7-5.5
		c-3.7,0-7.2,0.4-10.6,1.3c-3.3,0.8-6.2,1.8-8.5,3c-0.9,0.5-1.6,0.9-1.9,1.4c-0.3,0.5-0.5,1.3-0.5,2.4v3.3c0,1.4,0.5,2.1,1.4,2.1
		c0.3,0,0.6-0.1,1.1-0.2c0.5-0.1,1.3-0.4,2.4-0.9c2.4-0.9,4.8-1.7,7.3-2.3c2.5-0.6,4.9-0.9,7.3-0.9c5.2,0,8.9,1,11,3.1
		c2.1,2.1,3.2,5.7,3.2,10.8v4.9c-2.7-0.6-5.3-1.1-7.8-1.5c-2.5-0.3-4.9-0.5-7.2-0.5c-7,0-12.4,1.8-16.6,5.3
		c-4.1,3.5-6.2,8.2-6.2,13.9c0,5.4,1.7,9.7,5,13c3.3,3.2,7.8,4.9,13.5,4.9c8,0,14.6-3.1,19.9-9.3c0.7,1.6,1.4,2.8,2.1,4
		c0.7,1.1,1.5,2.2,2.4,3.2c0.7,0.6,1.4,0.9,2,0.9c0.5,0,1.1-0.2,1.8-0.6l4.3-2.8c0.9-0.7,1.3-1.4,1.3-2c0-0.5-0.1-1-0.5-1.6
		C405.7,308.6,405,307,404.5,305.5z M392.6,294c0,2.3-0.3,4.3-0.7,5.9c-0.4,1.6-1.2,3-2.3,4.3c-1.8,2-4,3.5-6.4,4.3
		c-2.4,0.8-4.7,1.2-7,1.2c-3.1,0-5.5-0.8-7.1-2.5c-1.7-1.6-2.5-4-2.5-7.2c0-3.4,1.1-6,3.3-7.8c2.2-1.8,5.5-2.7,10.1-2.7
		c2.1,0,4.2,0.1,6.4,0.4c2.2,0.3,4.3,0.7,6.2,1.1V294z"/>
	<path fill="#1E242D" d="M538.3,290.4c-2.1-2.8-5.6-4.9-10.5-6.5l-9.6-3c-3.6-1.1-6.1-2.4-7.4-3.7c-1.4-1.3-2-2.9-2-4.8
		c0-2.8,1.1-4.7,3.2-6c2.1-1.3,5.1-1.9,9-1.9c4.8,0,9.1,0.9,13,2.6c1.1,0.5,2,0.8,2.6,0.8c1,0,1.6-0.7,1.6-2.2v-3.2
		c0-0.9-0.2-1.7-0.6-2.2c-0.4-0.6-1.1-1.1-2-1.7c-0.7-0.4-1.6-0.8-2.8-1.2c-1.2-0.4-2.5-0.7-3.9-1.1c-1.4-0.3-2.8-0.5-4.4-0.7
		c-1.5-0.2-3-0.3-4.5-0.3c-3,0-5.8,0.3-8.5,1.1c-2.7,0.8-5,2-7,3.5c-2,1.5-3.7,3.4-4.9,5.5c-1.2,2.2-1.8,4.7-1.8,7.5
		c0,3.5,1.1,6.8,3.4,9.8c2.2,3,5.9,5.3,10.8,6.9l9.8,3c3.3,1.1,5.6,2.2,6.8,3.5c1.2,1.3,1.8,2.8,1.8,4.7c0,2.8-1.2,4.9-3.5,6.4
		s-5.6,2.2-9.9,2.2c-2.7,0-5.3-0.3-8-0.8c-2.6-0.5-5.1-1.4-7.4-2.4c-0.7-0.3-1.3-0.5-1.7-0.7c-0.4-0.1-0.8-0.2-1.2-0.2
		c-1,0-1.6,0.7-1.6,2.1v3.4c0,0.6,0.1,1.3,0.4,1.9c0.3,0.6,1,1.3,2.1,1.9c1.8,1,4.4,1.9,7.8,2.7c3.4,0.8,6.9,1.2,10.4,1.2
		c3.4,0,6.6-0.5,9.7-1.4c2.9-0.9,5.4-2.1,7.5-3.8c2.1-1.6,3.7-3.7,4.9-6c1.1-2.3,1.8-4.9,1.8-7.8
		C541.4,296.3,540.3,293.2,538.3,290.4z"/>
	<path fill="#1E242D" d="M490.3,257H484c-1.2,0-2.1,0.3-2.6,0.7c-0.5,0.4-0.9,1.3-1.4,2.6l-11.7,45.3l-10.7-45.3
		c-0.3-1.3-0.7-2.2-1.3-2.6c-0.5-0.5-1.4-0.7-2.7-0.7h-5.4c-1.2,0-2.2,0.3-2.7,0.7c-0.5,0.4-0.9,1.3-1.3,2.6l-10.6,44.8l-11.4-44.8
		c-0.4-1.3-0.8-2.2-1.4-2.6c-0.5-0.5-1.4-0.7-2.6-0.7h-6.6c-1.1,0-1.6,0.6-1.6,1.7c0,0.5,0.2,1.4,0.6,2.7l15.9,52.3
		c0.4,1.3,0.9,2.2,1.4,2.6c0.5,0.5,1.4,0.7,2.6,0.7h5.8c1.2,0,2.2-0.2,2.7-0.7c0.5-0.5,0.9-1.4,1.3-2.7l10.4-43.6l10.5,43.6
		c0.3,1.4,0.7,2.2,1.3,2.7c0.5,0.5,1.4,0.7,2.7,0.7h5.8c1.1,0,2-0.3,2.6-0.7c0.5-0.4,1-1.3,1.4-2.6l16.3-52.3
		c0.3-0.7,0.4-1.3,0.5-1.7c0.1-0.4,0.1-0.7,0.1-1.1C492,257.6,491.4,257,490.3,257z"/>
</g>
<g>
	<path fill="#F7DF1E" d="M70,35.2v172.7h172.7V35.2H70z M165,169.9c0,16.8-9.9,24.5-24.2,24.5c-13,0-20.5-6.7-24.3-14.8l0,0l13.2-8
		c2.5,4.5,4.9,8.3,10.4,8.3c5.3,0,8.7-2.1,8.7-10.2v-55.2H165V169.9z M203.3,194.3c-15.1,0-24.8-7.2-29.6-16.6l0,0l13.2-7.6
		c3.5,5.7,8,9.9,16,9.9c6.7,0,11-3.4,11-8c0-5.6-4.4-7.5-11.8-10.8l-4.1-1.7c-11.7-5-19.5-11.2-19.5-24.5c0-12.2,9.3-21.4,23.8-21.4
		c10.3,0,17.7,3.6,23.1,13l-12.6,8.1c-2.8-5-5.8-7-10.4-7c-4.8,0-7.8,3-7.8,7c0,4.9,3,6.8,10,9.9l4.1,1.7
		c13.8,5.9,21.6,11.9,21.6,25.5C230.2,186.3,218.7,194.3,203.3,194.3z"/>
	<path d="M208.6,146.2l-4.1-1.7c-7-3-10-5-10-9.9c0-3.9,3-7,7.8-7c4.6,0,7.6,2,10.4,7l12.6-8.1c-5.3-9.4-12.7-13-23.1-13
		c-14.5,0-23.8,9.3-23.8,21.4c0,13.2,7.8,19.5,19.5,24.5l4.1,1.7c7.4,3.2,11.8,5.2,11.8,10.8c0,4.6-4.3,8-11,8c-8,0-12.5-4.2-16-9.9
		l-13.2,7.6l0,0c4.8,9.4,14.5,16.6,29.6,16.6c15.4,0,26.9-8,26.9-22.6C230.2,158.2,222.4,152.1,208.6,146.2z"/>
	<path d="M148.7,169.6c0,8.1-3.4,10.2-8.7,10.2c-5.6,0-7.9-3.8-10.4-8.3l-13.2,8l0,0c3.8,8.1,11.4,14.8,24.3,14.8
		c14.4,0,24.2-7.6,24.2-24.5v-55.4h-16.2V169.6z"/>
</g>
<g>
	<path fill="#679E63" d="M163.6,368.4c-0.7,0-1.5-0.2-2.1-0.6l-6.7-4c-1-0.6-0.5-0.8-0.2-0.9c1.3-0.5,1.6-0.6,3-1.4
		c0.1-0.1,0.3-0.1,0.5,0l5.1,3.1c0.2,0.1,0.4,0.1,0.6,0l20-11.6c0.2-0.1,0.3-0.3,0.3-0.5v-23.1c0-0.2-0.1-0.4-0.3-0.6l-20-11.6
		c-0.2-0.1-0.4-0.1-0.6,0l-20,11.6c-0.2,0.1-0.3,0.3-0.3,0.5v23.1c0,0.2,0.1,0.4,0.3,0.5l5.5,3.2c3,1.5,4.8-0.3,4.8-2v-22.8
		c0-0.3,0.3-0.6,0.6-0.6h2.5c0.3,0,0.6,0.3,0.6,0.6v22.8c0,4-2.2,6.3-5.9,6.3c-1.2,0-2.1,0-4.6-1.3l-5.3-3c-1.3-0.8-2.1-2.2-2.1-3.7
		v-23.1c0-1.5,0.8-2.9,2.1-3.7l20-11.6c1.3-0.7,3-0.7,4.2,0l20,11.6c1.3,0.8,2.1,2.1,2.1,3.7v23.1c0,1.5-0.8,2.9-2.1,3.7l-20,11.6
		C165,368.2,164.3,368.4,163.6,368.4z"/>
</g>
</svg>