<svg version="1.1" id="Layer_1" xmlns="http://www.w3.org/2000/svg" xmlns:xlink="http://www.w3.org/1999/xlink" x="0px" y="0px"
	 width="538px" height="380px" viewBox="0 0 538 380" enable-background="new 0 0 538 380" xml:space="preserve">
<path fill="none" d="M537.7,364.7c0,8.1-6.7,14.7-14.9,14.7H15.3c-8.2,0-14.9-6.6-14.9-14.7v-350C0.3,6.6,7.1,0,15.3,0h507.4
	c8.2,0,14.9,6.6,14.9,14.7V364.7z"/>
<g>
	<path d="M537.7,14.7c0-8.1-6.7-14.7-14.9-14.7H15.3C7.1,0,0.3,6.6,0.3,14.7V319h537.3V14.7z"/>
	<linearGradient id="SVGID_1_" gradientUnits="userSpaceOnUse" x1="0.3333" y1="349.1693" x2="537.6667" y2="349.1693">
		<stop  offset="0" style="stop-color:#C9C9C9"/>
		<stop  offset="0.9888" style="stop-color:#EAEAEA"/>
	</linearGradient>
	<path fill="url(#SVGID_1_)" d="M0.3,319v45.7c0,8.1,6.7,14.7,14.9,14.7h507.4c8.2,0,14.9-6.6,14.9-14.7V319H0.3z"/>
</g>
<rect x="25.4" y="26" fill="#606060" width="486.5" height="269.7"/>
<g>
	
		<radialGradient id="SVGID_2_" cx="213.8068" cy="40.3973" r="12.6319" gradientTransform="matrix(0.3098 0 0 0.3098 203.7695 -4.9877)" gradientUnits="userSpaceOnUse">
		<stop  offset="0.5644" style="stop-color:#212121"/>
		<stop  offset="0.7546" style="stop-color:#353535"/>
	</radialGradient>
	<path fill="url(#SVGID_2_)" d="M267.6,9.5c0-1.3,1.1-2.4,2.4-2.4c1.3,0,2.4,1.1,2.4,2.4c0,1.3-1.1,2.4-2.4,2.4
		C268.7,11.9,267.6,10.8,267.6,9.5z"/>
	
		<radialGradient id="SVGID_3_" cx="238.2899" cy="-100.2305" r="1.764" gradientTransform="matrix(0.7005 0 0 0.7005 103.1562 79.5804)" gradientUnits="userSpaceOnUse">
		<stop  offset="0" style="stop-color:#1A1A1A"/>
		<stop  offset="0.7485" style="stop-color:#282828"/>
		<stop  offset="1" style="stop-color:#000000"/>
	</radialGradient>
	<path fill="url(#SVGID_3_)" d="M270,8.4c0.6,0,1.1,0.5,1.1,1.1c0,0.6-0.5,1.1-1.1,1.1c-0.6,0-1.1-0.5-1.1-1.1
		C268.9,8.9,269.4,8.4,270,8.4z"/>
	<path fill="#1A1A1A" d="M270.1,9.8c-0.3,0-0.5-0.2-0.5-0.5c0-0.3,0.2-0.5,0.5-0.5c0.3,0,0.5,0.2,0.5,0.5
		C270.7,9.5,270.4,9.8,270.1,9.8z"/>
	<path fill="#606060" d="M270,9.2c-0.2,0-0.3-0.1-0.3-0.3c0-0.2,0.1-0.3,0.3-0.3c0.2,0,0.3,0.1,0.3,0.3C270.3,9.1,270.1,9.2,270,9.2
		z"/>
	<path fill="#919191" d="M270.4,10.2c-0.2,0-0.3-0.1-0.3-0.3c0-0.2,0.1-0.3,0.3-0.3c0.2,0,0.3,0.1,0.3,0.3
		C270.7,10,270.5,10.2,270.4,10.2z"/>
</g>
<path d="M281,348.7c-3.3,0-6-2.7-6-6c0-2.6,1.6-4.7,3.8-5.6c-2.4-1.9-5.5-3.1-8.8-3.1c-7.9,0-14.3,6.4-14.3,14.3s6.4,14.3,14.3,14.3
	s14.3-6.4,14.3-14.3c0-0.2,0-0.4,0-0.7C283.4,348.3,282.2,348.7,281,348.7z"/>
<rect x="25.3" y="26" fill="#424349" width="117" height="269.3"/>
<g>
	<g>
		<path fill="#FFFFFF" d="M58.8,59.2l0-13.8L52,56.7h-2.4l-6.8-11.1v13.5h-5V36.1h4.4l8.6,14.3l8.5-14.3h4.4l0.1,23.1H58.8z"/>
		<path fill="#FFFFFF" d="M81.1,51v8.2h-5.3v-8.2l-8.9-14.8h5.7l6.2,10.3l6.2-10.3h5.2L81.1,51z"/>
		<path fill="#F9FF7C" d="M118.4,54.2h-10.7l-2,4.9h-5.5l10.3-23.1h5.3L126,59.2h-5.6L118.4,54.2z M116.7,50.2l-3.7-8.8l-3.7,8.8
			H116.7z"/>
		<path fill="#F9FF7C" d="M150.2,59.2l0-13.8l-6.8,11.4h-2.4l-6.8-11.1v13.5h-5V36.1h4.4l8.6,14.3l8.5-14.3h4.4l0.1,23.1H150.2z"/>
		<path fill="#F9FF7C" d="M176.6,54.2h-10.7l-2,4.9h-5.5l10.3-23.1h5.3l10.3,23.1h-5.6L176.6,54.2z M174.9,50.2l-3.7-8.8l-3.7,8.8
			H174.9z"/>
		<path fill="#F9FF7C" d="M206.1,54.8v4.4h-20.2v-3.5l12.7-15.3h-12.4v-4.4h19.4v3.5L193,54.8H206.1z"/>
		<path fill="#F9FF7C" d="M210.3,36.1h5.3v23.1h-5.3V36.1z"/>
		<path fill="#F9FF7C" d="M243,36.1v23.1h-4.4l-11.5-14v14h-5.3V36.1h4.4l11.5,14v-14H243z"/>
		<path fill="#F9FF7C" d="M264.8,47.3h4.9v9.4c-2.5,1.9-6,2.9-9.3,2.9c-7.3,0-12.6-5-12.6-11.9s5.3-11.9,12.7-11.9
			c4.1,0,7.4,1.4,9.7,4l-3.4,3.2c-1.7-1.8-3.6-2.6-6-2.6c-4.5,0-7.5,3-7.5,7.4c0,4.3,3.1,7.4,7.5,7.4c1.5,0,2.8-0.3,4.2-1V47.3z"/>
		<path fill="#FFFFFF" d="M72.7,75.7l-7.5,23.1h-5.7l-5.1-15.6l-5.2,15.6h-5.7l-7.6-23.1h5.5l5.2,16.2L52,75.7h4.9L62.2,92l5.4-16.3
			H72.7z"/>
		<path fill="#FFFFFF" d="M94.3,94.4v4.3H76.4V75.7h17.4v4.3H81.7v5h10.7v4.2H81.7v5.3H94.3z"/>
		<path fill="#FFFFFF" d="M120.4,92.4c0,4-3.2,6.3-9.2,6.3H99.3V75.7h11.3c5.8,0,8.7,2.4,8.7,6c0,2.3-1.2,4.1-3.1,5.1
			C118.8,87.6,120.4,89.5,120.4,92.4z M104.6,79.7v5.4h5.3c2.6,0,4-0.9,4-2.7s-1.4-2.7-4-2.7H104.6z M115.1,91.9
			c0-1.9-1.5-2.9-4.3-2.9h-6.2v5.7h6.2C113.6,94.7,115.1,93.8,115.1,91.9z"/>
		<path fill="#FFFFFF" d="M53,133.3H42.3l-2,4.9h-5.5l10.3-23.1h5.3l10.3,23.1H55L53,133.3z M51.3,129.3l-3.7-8.8l-3.7,8.8H51.3z"/>
		<path fill="#FFFFFF" d="M83.8,123.6c0,5.1-3.9,8.3-10,8.3h-4.6v6.4h-5.3v-23.1h10C80,115.2,83.8,118.4,83.8,123.6z M78.4,123.6
			c0-2.5-1.6-4-4.9-4h-4.4v8h4.4C76.8,127.6,78.4,126.1,78.4,123.6z"/>
		<path fill="#FFFFFF" d="M108.4,123.6c0,5.1-3.9,8.3-10,8.3h-4.6v6.4h-5.3v-23.1h10C104.5,115.2,108.4,118.4,108.4,123.6z
			 M103,123.6c0-2.5-1.6-4-4.9-4h-4.4v8h4.4C101.3,127.6,103,126.1,103,123.6z"/>
	</g>
</g>
<rect x="34.7" y="147.6" fill="#AAA5A5" width="91.3" height="12.7"/>
<rect x="34.7" y="168.1" fill="#AAA5A5" width="91.3" height="12.7"/>
<rect x="34.7" y="188.7" fill="#AAA5A5" width="91.3" height="12.7"/>
<g>
	<rect x="34.3" y="274.2" fill="#AAA5A5" width="42" height="12.7"/>
	<rect x="84.3" y="274.2" fill="#AAA5A5" width="41.3" height="12.7"/>
</g>
<linearGradient id="SVGID_4_" gradientUnits="userSpaceOnUse" x1="50.9967" y1="237" x2="109.6633" y2="237">
	<stop  offset="0" style="stop-color:#FF7D12"/>
	<stop  offset="0.1528" style="stop-color:#FF7A2B"/>
	<stop  offset="0.5514" style="stop-color:#FF7267"/>
	<stop  offset="0.8451" style="stop-color:#FF6E8C"/>
	<stop  offset="1" style="stop-color:#FF6C9A"/>
</linearGradient>
<circle fill="url(#SVGID_4_)" cx="80.3" cy="237" r="29.3"/>
<linearGradient id="SVGID_5_" gradientUnits="userSpaceOnUse" x1="294.2087" y1="137.75" x2="504.3019" y2="137.75">
	<stop  offset="0" style="stop-color:#FF64F8"/>
	<stop  offset="0.3942" style="stop-color:#FF47CD"/>
	<stop  offset="0.7901" style="stop-color:#FF2EA8"/>
	<stop  offset="1" style="stop-color:#FF259A"/>
</linearGradient>
<ellipse fill="url(#SVGID_5_)" cx="399.3" cy="137.8" rx="105" ry="102.8"/>
<path fill="#84DEFF" d="M261.7,101.7h-87.3c-5.8,0-10.5-4.7-10.5-10.5v0c0-5.8,4.7-10.5,10.5-10.5h87.3c5.8,0,10.5,4.7,10.5,10.5v0
	C272.2,96.9,267.5,101.7,261.7,101.7z"/>
<path fill="#84DEFF" d="M261.7,142.3h-87.3c-5.8,0-10.5-4.7-10.5-10.5v0c0-5.8,4.7-10.5,10.5-10.5h87.3c5.8,0,10.5,4.7,10.5,10.5v0
	C272.2,137.6,267.5,142.3,261.7,142.3z"/>
<rect x="164.3" y="166.7" fill="#FFFFFF" width="110.3" height="3.3"/>
<rect x="164.3" y="184.3" fill="#FFFFFF" width="115.3" height="3.3"/>
<rect x="164.3" y="203" fill="#FFFFFF" width="122" height="3.3"/>
<rect x="164.3" y="223.3" fill="#FFFFFF" width="133.3" height="3.3"/>
<rect x="142.3" y="254.7" fill="#84DEFF" width="369.2" height="40.7"/>
<g>
	<defs>
		<path id="SVGID_6_" d="M460.5,204.4H338c-6.6,0-12-5.4-12-12V81c0-6.6,5.4-12,12-12h122.4c6.6,0,12,5.4,12,12v111.4
			C472.5,199,467.1,204.4,460.5,204.4z"/>
	</defs>
	<clipPath id="SVGID_7_">
		<use xlink:href="#SVGID_6_"  overflow="visible"/>
	</clipPath>
	<g clip-path="url(#SVGID_7_)">
		<path fill="#F1EDE9" d="M303.7,204.7c0-59.7,0-119.4,0-179.1c0-1.6,0.3-1.9,1.4-1.9c69,0,137.9,0,206.9,0c0.3,0.7,0.1,1.5,0.1,2.2
			c0,58.8,0,117.6,0,176.4c0,2.8,0,2.8-2.2,2.8c-68,0-136.1,0-204.1,0C305.1,205.1,304.3,205.3,303.7,204.7z"/>
		<path fill="#101214" d="M356.6,187.5c2.3-2,4.6-3.9,7-5.9c4.4-3.6,8.8-7.1,13.2-10.6c0.3-0.3,0.9-0.4,0.9-1c0.6-0.5,1.1-1.1,1.9-1
			c1.1,0.6,1.6,1.8,2.3,2.7c3.9,5.5,7.8,10.9,12.3,15.9c0.2,0.3,0.4,0.5,0.5,0.8c0.2,0.8,0.8,1.2,1.5,1.3c1.4,0.9,2.7,0.6,3.8-0.4
			c1.6-1.4,3.4-2.7,5-4.1c2.3-2.1,4.5-4.4,6.7-6.7c2.8-3.1,5.8-6,8.4-9.3c0.3-0.3,0.5-0.7,1-0.7c1,0.6,1.5,1.6,2.6,2.1
			c0.2,0,0.2,0.2,0.3,0.3c0.9,1,1.9,1.9,2.8,2.9c0.4,0.6,0.1,1.1-0.1,1.6c-1,2.3-1.9,4.7-3.1,7c-0.2,0.3-0.2,0.6-0.2,1
			c-1.5,2.9-3.1,5.7-4.4,8.6c-0.3,0.6-0.6,1.1-0.2,1.7c-0.8,0.6-0.4,1.6-0.9,2.4c-1.3,2.5-2.6,5.1-4.1,7.5c-0.2,0.4-0.4,0.7-0.9,0.9
			c-0.3,0-0.7,0-1,0c-22.7,0-45.4,0-68,0c-0.3,0-0.6,0-1.2,0c2.6-5.6,6.5-10,10.8-14C354.9,189.8,356,188.9,356.6,187.5z"/>
		<path fill="#FAC19C" d="M418.3,131.9c-0.8,1.8-0.7,3.8-1.2,5.7c-0.8,3.3-1.9,6.5-3.7,9.4c-0.2,0.3-0.2,0.6-0.4,0.9
			c-0.1,0.2-0.3,0.4-0.5,0.4c-1,1.2-2.2,2.2-3.1,3.6c-1.4,1.7-3.2,2.5-5.2,3.2c-0.7,0.2-1.4,0.4-2.1,0.6c-0.1,0-0.3,0.1-0.4,0.1
			c-4.4,0.4-8.3-0.8-11.7-3.6c-1.3-1-2.3-2.2-3.1-3.7c-0.9-1.8-1.8-3.6-2.6-5.4c-1.5-3.4-2.2-7.1-2.6-10.8c0-0.2-0.1-0.3-0.2-0.5
			c-0.7-1.4-0.6-2.5,0.3-3.4c0.8-0.2,1.5,0.1,2.2,0.3c2.4,0.6,4.8,0.4,7.2-0.1c0.8,0,1.5-0.1,1.8-0.9c2.1-1.8,2.9-4.1,2.7-6.8
			c-0.1-1.4,0.3-2.8,0.2-4.3c-0.1-1.1,0.8-1.3,1.7-1.2c1.4,0.5,1.6,0.8,1.3,2.3c-0.1,0.6-0.1,1.1-0.2,1.7c-0.7,3.5-1.2,7.1-1.8,10.7
			c-0.2,1,0.3,1.4,1.2,1.3c0.3,0,0.7,0,1,0c0.3,0,0.6,0,0.9,0c0.7,0,1.5,0,2.2,0c0.6-0.4,0.3-0.9,0.2-1.4c-0.2-1.3-0.3-2.6-0.5-3.9
			c-0.1-0.4-0.3-0.9,0.2-1.1c0.4-0.2,0.6,0.3,0.8,0.6c0.2,0.2,0.3,0.3,0.6,0.4c0.3,0.1,0.5,0.3,0.7,0.5c3.9,3.7,8.3,3,12.8,1.5
			c0.5-0.2,0.9-0.6,1.5-0.5c0.5,0.7,0,1.4,0.1,2.1c0,0.1,0,0.3,0,0.4C418.5,130.6,418.5,131.3,418.3,131.9z"/>
		<path fill="#EE8D6D" d="M386.9,148.4c1.3,0.9,2,2.4,3.3,3.4c3.4,2.7,7.3,3.9,11.7,3.5c0,0.9,0.9,1.8-0.1,2.6
			c0.8,1.2,0.3,2.6,0.8,3.9c0.4,1.1,0.7,2.2,1.5,3.2c0.5,0.5,0.7,1.2,0.9,1.8c1.3,2.3,2.1,4.8,3.5,6.9c1.1,1.7,1.8,3.7,3.4,5
			c-3.1,3.7-6.5,7.1-10.5,9.9c-0.5,0.3-0.8,0.8-1.2,1.1c-1.3,1.1-2.7,1.4-4.1,0.2c-0.7-0.1-1.1-0.6-1.4-1.2
			c-5.3-5.7-9.8-12-14.2-18.3c-0.3-0.4-0.6-0.8-1-1.2c0-0.1,0-0.2,0.1-0.3c4.4-3.1,6.2-7.5,6.6-12.7
			C386.4,153.6,386.7,151,386.9,148.4z"/>
		<path d="M413.1,204.5c1.4-2.6,2.9-5.3,4.2-7.9c0.4-0.7,1.3-1.4,0.7-2.4c-0.1-0.3,0.7-0.1,0.8-0.5c0.3-0.5,0.9-0.6,1.4-0.6
			c1.4-0.2,2.8-0.5,4.2-0.7c1.1-0.1,2.1-0.2,3.1,0.4c-1.2-2.6-2.4-5.1-3.7-7.6c-0.3-0.6-0.8-1.1-0.5-1.8c-0.2-0.3-0.3-0.5-0.1-0.9
			c1.1-2.4,2.1-4.9,3.2-7.3c0.2-0.4,0.2-0.9,0.3-1.3c1.6,0.8,2.6,2.4,4.1,3.4c1.6,1.2,3.1,2.7,4.6,4.1c1.4,1.3,2.8,2.4,4.1,3.8
			c0.9,0.9,1.7,1.9,2.9,2.5c1,0.6,1.5,1.6,2.3,2.5c3.7,4.2,6,9.2,8,14.4c-0.4,0-0.7,0-1,0c-12.7,0-25.4,0-38.1,0
			C413.5,204.5,413.3,204.5,413.1,204.5z"/>
		<path fill="#E06254" d="M401,157.9c0.1-0.6,1.7-0.8,0.4-1.7c0,0,0.3-0.5,0.4-0.8c0.1,0,0.2,0,0.3,0c1.5,0.2,3-0.1,4.2-1
			c0.5-0.4,0.9-0.2,1.4,0.2c0-1.1,0.5-1.8,1.4-2.2c1.4-0.7,2.1-2.1,2.9-3.4c0.5-0.4,0.8-0.3,0.9,0.3c0,3.3,0.4,6.5,1.3,9.7
			c0.5,1.7,1.2,3.2,2.2,4.6c0.6,1.2,1.5,2.3,2.6,3.1c0.7,0.6,1.4,1.2,2,1.8c-2.8,3.6-6,6.9-9.2,10.2c-1-0.3-1.5-1-1.9-1.8
			c-0.6-1-1.1-1.9-1.8-2.8c-0.4-0.5-0.7-1.4-1.1-2.1c-0.8-1.5-1.2-3.2-2.2-4.7c-0.1-0.1-0.1-0.3-0.1-0.4c0.1-1.1,0.1-2.3-1.1-2.9
			c-0.7-1.4-1.3-2.7-1.4-4.3C402.2,158.8,402.1,157.9,401,157.9z"/>
		<path fill="#010000" d="M397.5,115.6c-1.1-0.1-1.4,0.4-1.3,1.4c0.1,1.6-0.1,3.1-0.1,4.7c0,2.5-0.9,4.6-2.9,6.2
			c-0.4,0.6-1.1,0.7-1.8,0.9c-3.2,0.9-6.3,0.6-9.5-0.3c-0.6-0.2-1.3-0.1-1.8-0.7c-0.5-0.4-1-0.8-1.3-1.3c-1.1-1.2-1.3-2.8-1.7-4.2
			c-0.1-0.5-0.1-0.9-0.1-1.4c0-2.1-0.1-4.2,0.1-6.3c-0.3-0.5-1.1-0.6-1.2-1.4c0.8-1.4,2.4-1.5,3.7-1.8c1.1-0.2,1.5-0.6,1.5-1.9
			c-0.1-2.8,0.2-5.6,0.6-8.5c0.2-1.6,0.9-2.9,2.3-3.8c0.4,0.5,0.4,0.5,0.1,0.9c-1.6,1.8-1.9,3.9-1.4,6.1c0,0.4,0,0.8-0.1,1.2
			c-0.2,1.3-0.4,2.5-0.5,3.8c-0.1,0.8,0.2,1.2,1.1,1c2.5-0.4,5-0.2,7.4-0.1c1.4,0.3,2.8,0.4,4.2,0.9c0.9,0.3,1.8,0.6,2.3,1.6
			c0.2,0.5,0.5,0.6,1,0.5c0.2,0-0.1,0,0.1,0c1.5,0.1,2.9,0.3,4-1.4c0.7-1,2.3-0.9,3.6-1.3c3.9-0.6,7.7-0.5,11.6,0.1
			c0.4,0.1,0.7-0.5,1.1-0.4c0,0.7,0.2,1.1,1,1.2c0.6,0.1,1.2,0.3,1.8,0.5c0.5,0.2,1,0.4,1,1.1c0,0.6-0.5,0.8-1,0.8
			c-0.3,0-0.4,0.2-0.3,0.5c1.1,2.1,0.5,4.3,0.5,6.5c-0.3,1.1-0.2,2.3-0.6,3.3c0,0.1-0.1,0.3-0.1,0.4c-0.5,0.8-0.9,1.6-1.5,2.3
			c-0.2,0.2-0.5,0.3-0.7,0.2c-3.7,2.3-7.6,2.6-11.7,1.3c-1.4-0.5-2.3-1.6-3.5-2.4c-0.9-1.1-1.5-2.3-1.4-3.8c0.1-1.6-0.4-3.2-0.3-4.9
			c0.1-1-0.7-1.4-1.5-1.6C399.3,115.6,398.4,115.6,397.5,115.6z"/>
		<path fill="#090C0E" d="M382.3,104.4c-0.6-2.5-0.3-4.7,1.7-6.5c0.2-0.2,0.2-0.3-0.1-0.5c1.1-1.3,2.6-2.1,3.9-3.1
			c0.7-0.5,1.5-1,2.2-1.5c0.4-0.2,0.3-0.5,0.4-0.8c0.1-0.2,0.1-0.5,0.2-0.7c0-0.2,0.1-0.4,0.2-0.5c0.3-0.3,0.6-0.6,0.9-0.8
			c2-1.9,4.2-1.9,6.5-0.8c3,1.5,6.1,3,8.8,5.2c2.4,2,4.1,4.3,3.6,7.6c0.2-0.7,0-1.4,0.1-2.1c0-0.3,0-0.6,0.5-0.4
			c0.6,0.9,0.3,1.8,0.3,2.8c-0.1,0.8-0.6,1-1.3,1c-1,0-2,0.1-3,0c-0.5-0.1-1.1-0.3-1.7-0.3c-0.5-0.1-1-0.2-1.5-0.4
			c-0.9-0.3-1.7-0.6-2.6-0.8c-0.5-0.1-0.8-0.4-1.3-0.6c-1.1-0.4-2.1-0.8-3.1-1.4c-0.2-0.1-0.3-0.2-0.4-0.3c-0.1-0.1-0.1-0.3-0.3-0.1
			c0,0,0.1,0.2,0.1,0.3c0.2,0.6,0.6,0.8,1.1,0.8c0.5,0.1,0.9,0.4,1.2,0.8c0.3,0.4,0.7,0.7,1.1,0.9c0.4,0.4,1.1,0.5,1.4,1.1
			c-0.1,0.3-0.3,0.4-0.6,0.5c-3.1-0.4-5.3-2.2-7.2-4.5c-0.8-1-1.4-2.1-2.2-3.2c-0.3-0.4-0.7-0.2-1.1-0.1c-1.4,0.5-2.5,1.6-3.9,2.1
			c-0.8,0-1.1,0.5-1.2,1.3c-0.9,1.4-1.6,2.8-2.1,4.3C382.8,104.1,382.7,104.4,382.3,104.4z"/>
		<path d="M410.8,99.4c0,1,0,2,0,2.9c0-5.3-3.8-7.8-7.7-10.1c-2-1.1-3.9-2.4-6.1-3.1c-1.8-0.6-3.4-0.6-4.7,1
			c-0.1,0.2-0.3,0.4-0.6,0.1c-0.1-0.1-0.1-0.2-0.1-0.4c0.2-0.7,0.8-1.2,1.2-1.7c2-1.9,4.4-2.5,7-1.9c1.9,0.4,3.8,0.9,5.4,2.1
			c1.7,1,3.2,2.2,4.1,4c0.2,0.4,0.7,0.7,1.1,1c-0.1,1.2,0.5,2.2,0.5,3.4C411.1,97.7,411.4,98.6,410.8,99.4z"/>
		<path fill="#ED8E6D" d="M380.3,127.6c0.6,0.3,1.1,0.6,1.7,0.9c-0.9,0.2-0.5,1-0.5,1.5c-0.1,0.6,0,1.1,0,1.7
			c-1.6,0.7-2.5,0.6-3.8-0.7c-2.4-2.4-3.1-5.5-3.4-8.7c-0.2-2.1-0.4-4.3,1-6.2c0.8,0.2,0.8,0.2,0.4,1.5c-0.2,0.6,0.2,1.1,0.4,1.6
			c0.6,1,0.9,2.2,1.3,3.3c0.5,1.4,0.8,2.9,1.7,4.1c0.4,0.8,0.8,1.5,1,2.4c0.1,0.2,0.2,0.4,0.2,0.6c0,0,0.1,0,0.1,0s-0.1-0.1-0.1-0.1
			c-0.1-0.3-0.2-0.5-0.3-0.7C380.1,128.3,379.5,127.8,380.3,127.6z"/>
		<path fill="#ED8D6D" d="M418.3,131.9c-0.5-0.6,0.1-1.3,0-1.9c0.4-0.2,0.5-0.6,0.5-1c0.1-0.4,0.2-0.8,0.4-1.1
			c0.4-1.1,1.1-1.9,1.3-3l0,0c0.9-2.1,1.6-4.3,2.7-6.3c0.2-0.4,0.4-0.7,0.8-0.9c0.5,0,0.6,0.4,0.6,0.8c0.5,2.7,0.2,5.3-0.6,7.9
			c-0.4,1.2-0.9,2.2-1.2,3.4C421.7,131.8,420.1,132.6,418.3,131.9z"/>
		<path fill="#0A0C0E" d="M410.5,96.6c0.1-0.5,0.1-1-0.1-1.5c-0.2-0.5-0.5-1.2,0.1-1.7c2.2,1.3,4.3,2.8,6.1,4.6
			c1.1,1.1,1.4,2.4,1.4,3.9c0.3,0.8-0.1,1.6,0.3,2.4c0.1,0.3,0.2,0.7,0,1c0.1,1.6,0.3,3.2-0.1,4.8c-0.7-0.2-0.5-0.8-0.6-1.2
			c0-0.6,0.1-1.2-0.1-1.8c-0.1-0.2-0.1-0.4-0.1-0.6c0-0.5,0-1-0.2-1.4c-0.6-1.9-1.1-3.8-2.4-5.3c-0.3-0.3-0.6-0.7-1-1
			C412.8,97.7,411.6,97.3,410.5,96.6z"/>
		<path fill="#ED8D6D" d="M422.8,129.7c-0.1-1.1,0.4-2.2,0.8-3.1c0.9-2.1,0.9-4.3,0.8-6.6c0-0.8,0.4-1.7-0.4-2.4
			c-0.5,0.2-0.6,0.7-0.8,1.2c-0.3,0.5-0.5,1-0.8,1.5c-0.2,0.3-0.4,0.3-0.7,0.1c-0.6-1.7-0.4-3.5-0.4-5.2c0-0.2,0.2-0.3,0.4-0.4
			c1.6-0.1,2.4,0.8,2.9,2.1c0.3,0.9,0.4,1.8,0.6,2.7c0.2,0.8,0.2,1.6,0,2.4C424.9,124.7,424.3,127.3,422.8,129.7z"/>
		<path fill="#101112" d="M390.9,90.8c0,0.2,0,0.4,0,0.6c-0.4,0.2-0.6,0.2-0.6-0.4c0.2-1.8,0.7-3.3,2-4.6c0.5-0.1,0.8-0.3,0.8-0.8
			c0.1-0.3,0.5-0.4,0.4-0.8c1.1-0.7,2.1-1.3,3.4-0.7c0.2,0.1,0.6-0.1,0.6,0.4c-0.5,0.6-1.3,0.9-2,1.3c-0.9,0.8-1.9,1.7-2.8,2.6
			c-0.4,0.5-0.9,0.8-1.2,1.4C391.3,90,391.2,90.5,390.9,90.8z"/>
		<path fill="#F5F3F0" d="M392.6,88.2c0.8-1.1,1.7-2,2.9-2.6c0.1,0.1,0.1,0.2,0.1,0.2c0,0.1,0,0.1-0.1,0.1c0.5,0.6,1,0.1,1.4,0
			c3-0.7,5.5,0.7,8.1,1.8c0.2,0.1,0.2,0.4,0.2,0.6c-1.5-0.5-2.9-1-4.4-1.5c-3-1.1-5.6-0.3-7.9,1.8C392.6,88.7,392.5,88.5,392.6,88.2
			z"/>
		<path fill="#DA6353" d="M416.5,163.7c-1.2-0.9-1.8-2.2-2.2-3.6c-0.7-2.3-1.4-4.6-1.6-7c-0.1-1.2-0.3-2.6,0.1-3.8
			c0.2,0.1,0.4,0.2,0.5,0.4c0.1,0.2,0.1,0.4,0.1,0.7c0,0.9,0,1.8,0.3,2.7c0.3,3.2,1.1,6.3,2.4,9.2c0.3,0.5,0.5,1,0.8,1.5
			C416.7,163.8,416.6,163.8,416.5,163.7z"/>
		<path fill="#ED8E6D" d="M375.3,117.6c-0.4-0.5,1-1-0.1-1.5c0.4-0.6,1-1,1.5-1.4c0.1-0.3,0.4-0.4,0.7-0.5c0,2.3-0.1,4.6-0.1,6.8
			c-0.6,0-0.6-0.5-0.7-0.9c0.2-0.9,0.4-1.7,0.3-2.5c-0.2,0.4,0.3,1.2-0.3,1.7C375.6,119.2,375.5,118.4,375.3,117.6z"/>
		<path fill="#F6EDE8" d="M416,162.2c-1.8-2.8-2.3-6-2.7-9.2c-0.3-1,0.1-2-0.2-2.9c0-0.2,0-0.3,0-0.5c-0.1-0.5-0.4-1,0.1-1.4
			c0.5,0.1,0.5,0.5,0.5,0.9c0.1,3.1,0.4,6.2,1.1,9.3c0.2,1,0.7,1.9,1,2.8C415.9,161.4,416.4,161.7,416,162.2z"/>
		<path fill="#EE9171" d="M421.7,114.8c-0.6,1.9,0.1,3.8,0.3,5.7c0.2,0.5-0.1,0.8-0.2,1.2c-0.1,0.3-0.2,0.6-0.5,0.5
			c-0.4-0.1-0.2-0.5-0.1-0.9c0-2.3-0.1-4.5-0.1-6.8C421.2,114.6,421.4,114.7,421.7,114.8z"/>
		<path fill="#F2F0ED" d="M396.9,84.2c-1.2-0.1-2.3,0.4-3.4,0.7c1.3-1.5,3-1.5,4.9-1.5C398,83.9,397,83.3,396.9,84.2z"/>
		<path fill="#0E0F0F" d="M356.6,187.5c0.2,1.5-1.3,1.7-1.9,2.6c-0.2,0.3-0.4,1-1,0.4C354.7,189.6,355.6,188.6,356.6,187.5z"/>
		<path fill="#D96353" d="M416.5,163.7c0.1,0,0.2,0,0.2,0c0.8,1,1.5,2,2.3,3c-1.1,0.7-0.7-0.6-1.1-0.9
			C417.2,165.4,416.5,164.7,416.5,163.7z"/>
		<path fill="#14100F" d="M418,110.1c0.6-1.6,0.1-3.2,0.3-4.8c0.4,1.7,0.3,3.4,0.2,5.1c-0.3,0.2-0.2,0.7-0.6,0.8
			C417.6,110.9,417.6,110.5,418,110.1z"/>
		<path fill="#F6F5F4" d="M395.5,86c0-0.1,0-0.2,0-0.4c0.7-0.3,1.2-1,2.1-1.1c0.1,0,0.3,0,0.4,0c0.3,0.1,0.1,0.2,0,0.3
			C397.1,85.2,396.4,85.8,395.5,86z"/>
		<path fill="#F1F0EE" d="M377.5,114.2c-0.1,0.3-0.2,0.6-0.7,0.5c-0.6-0.3-1.2-0.6-0.9-1.4C376.3,113.8,376.9,114.1,377.5,114.2z"/>
		<path fill="#FAF4EF" d="M379.7,168.8c0,0.1-0.1,0.2-0.1,0.3c-0.6,0.3-1.3,0.6-1.9,0.9C378.1,169.4,378.6,168.6,379.7,168.8z"/>
		<path fill="#DB6655" d="M413.1,148.1c0,0.5,0,1-0.1,1.4c-0.1-0.1-0.2-0.2-0.3-0.3c0-0.5-0.3-0.4-0.6-0.3c-0.1,0.1-0.2,0.1-0.3,0
			c-0.1-0.5,0.3-0.7,0.6-0.9c0.2-0.1,0.3-0.2,0.5-0.3C413,148,413.1,148.1,413.1,148.1z"/>
		<path fill="#161617" d="M390.3,91.1c0.1,0.3,0.3,0.4,0.6,0.4c0,0.2,0,0.5-0.3,0.6c-0.3,0.1,0,0.7-0.5,0.6
			C390,92,390,91.5,390.3,91.1z"/>
		<path fill="#14100F" d="M418.2,104.4c-0.6-0.8-0.2-1.6-0.3-2.4C418.2,102.7,418.3,103.6,418.2,104.4z"/>
		<path fill="#ED8D6D" d="M425.2,122c0-0.8,0-1.6,0-2.4C425.5,120.4,425.5,121.2,425.2,122z"/>
		<path d="M393.1,85.6c0.1,0.6-0.2,0.9-0.8,0.8C392.4,86.1,392.7,85.8,393.1,85.6z"/>
		<path fill="#050505" d="M390.1,92.6c0.2-0.2,0.4-0.4,0.5-0.6c-0.1,0.4,0.2,1-0.6,0.8C390,92.7,390,92.6,390.1,92.6z"/>
		<path fill="#FEFEFE" d="M424,170.9c-0.1-0.1-0.2-0.2-0.3-0.3C424.1,170.3,423.9,170.8,424,170.9z"/>
		<path fill="#FCFCFC" d="M423.4,183.3c1.6,3.4,3.3,6.8,5,10.4c-3.3-2.2-6.5-0.3-9.6-0.1c-0.2-0.2-1.2,0.5-0.7-0.6
			c1.6-3.2,3.3-6.4,4.9-9.7C423,183.3,423.2,183.4,423.4,183.3z"/>
		<path fill="#100E0E" d="M394.7,188.7c0.5,0.4,0.9,0.8,1.4,1.2C395.1,190.1,394.7,189.6,394.7,188.7z"/>
		<path fill="#EE8D6D" d="M399.2,131.7c-2.8,0-2.9,0-2.6-2.8c0.4-3.2,0.9-6.5,1.7-9.6c0.6,0.2,0.7,0.7,0.8,1.2
			c0.3,2.1,0.3,4.2,0.1,6.3c-0.3,0.6-0.2,1.3,0.1,1.9C399.6,129.8,400,130.8,399.2,131.7z"/>
		<path fill="#E06B5A" d="M402.6,131.7c-0.8,0-1.7,0-2.5,0.1c-0.5-2.9-0.3-5.8-0.4-8.7c-0.1-1.9-0.2-3.8-0.4-5.7c-0.1-1-0.1-1,0.8-1
			c1.1,2.2,1.2,4.6,1.6,7c0.4,2.3,0.6,4.6,1,6.9C402.7,130.7,402.8,131.2,402.6,131.7z"/>
		<path fill="#F9C49F" d="M402.6,131.7c-0.6-3.3-1.1-6.6-1.7-9.9c-0.3-1.9-0.6-3.7-1.2-5.5c-0.1-0.1-0.1-0.2-0.1-0.4
			c0.1-0.2,0.2-0.4,0.5-0.3c2.1,0.4,2,0.4,2.1,2.4c0.1,2,0.2,4,0.3,6c0,0.9,0.8,1.4,0.9,2.3c-0.7-0.1-0.6-0.9-1.2-1.2
			c0.3,2.2,0.6,4.3,0.9,6.5c0,0.1-0.1,0.2-0.2,0.3C402.8,131.8,402.7,131.7,402.6,131.7z"/>
		<path fill="#E5745F" d="M399.8,115.9c0,0.1,0,0.2,0,0.3c-0.5,1.2,0,2.4,0.1,3.5c0.3,2.5-0.2,5,0.4,7.5c0.2,1-0.2,2.1-0.2,3.2
			c0,0.4,0.4,0.9,0,1.3c-0.3,0-0.6,0-0.9,0c0.1-1,0.2-2-0.3-2.9c0.2-0.6,0.1-1.2,0-1.7c-0.1-2,0.3-3.9-0.3-5.9
			c-0.1-0.3,0-0.6,0.3-0.8c-0.4-1.3-0.2-2.7-0.1-4.1C398.8,115.7,399.2,115.5,399.8,115.9z"/>
		<path fill="#DD6152" d="M411.9,149c0.1,0,0.2,0,0.3,0c0.1,1.2-1.5,1.6-1.2,2.9c-0.5-0.5-0.8,0.2-1.2,0.3c-1.2,0.5-1.7,1.7-2,3.1
			c-0.6-1.2-1.2-1.4-1.6-0.2c-0.2,0.7-0.4-0.1-0.6,0c-1.1,0.3-2.2,1.2-3.4,0.2c2.1-0.6,4.3-1.3,6.1-2.7c0.4-0.3,0.9-0.6,1.1-1
			C410.2,150.7,410.9,149.6,411.9,149z"/>
		<path fill="#FAC59F" d="M405.3,132.3c0.3,0.2,0.2,0.5,0,0.7c-0.7,0.8-1.5,1.4-2.5,1.6c-2.5,0.5-4.9,0.5-7.4,0
			c-0.8-0.1-0.8-0.2-1-0.9c0.1-0.1,0.3-0.1,0.4-0.1c0.5,0.1,1,0.1,1.5,0.2c1.9,0.2,3.8,0.1,5.7,0c0.3-0.1,0.7-0.2,1-0.3
			c0.3-0.1,0.7-0.3,0.9-0.5c0.2-0.2,0.4-0.4,0.7-0.6C404.8,132.4,405,132.1,405.3,132.3z"/>
		<path fill="#F9C5A0" d="M404.7,132.6c-0.1,0.3-0.3,0.5-0.6,0.6c-0.4,0.3-0.8,0.4-1.2,0.5c-0.6,0.2-1.2,0.4-1.8,0.3
			c-1.3,0-2.6,0-3.9,0c-0.6,0-1.1-0.1-1.6-0.3c-1-0.3-1.9-0.7-2.1-1.9c0.1-0.1,0.3-0.2,0.3-0.2c1.1,1.3,2.5,1.4,4.1,1.6
			c2.2,0.2,4.3,0.1,6.3-1c0.1-0.1,0.4,0.1,0.5,0.1c0.1,0,0.1,0.1,0.1,0.1C404.8,132.5,404.7,132.6,404.7,132.6z"/>
		<path fill="#E58467" d="M399.8,115.9c-1-0.1-0.9,0.6-0.8,1.2c0,1.1,0.2,2.2,0,3.4c-0.2-0.4-0.4-0.8-0.6-1.2c0-0.5,0-1.1,0.1-1.5
			c0.3-1.1,0.3-1.9-1-2.2c0.9-0.5,1.7-0.3,2.6,0C400,115.7,399.9,115.8,399.8,115.9z"/>
		<path fill="#F9C59E" d="M411.9,149c-0.9,0.9-1.5,2-2.6,2.6c0.6-1.6,2.1-2.4,3-3.8c0.1,0.1,0.1,0.2,0.2,0.4
			C412.3,148.4,412.1,148.7,411.9,149z"/>
		<path fill="#C35444" d="M393.4,131.8c0.3,1,1.1,1.4,2,1.7c-0.1,0.6-0.5,0.3-0.8,0.2c-0.1,0-0.1,0-0.2,0c-0.4-0.4-0.8-0.8-1.2-1.2
			C393,132.2,393,131.9,393.4,131.8z"/>
		<path fill="#ED8D6D" d="M418.5,127.4c0.1-0.3,0.4-0.2,0.6-0.3c0,0.1,0.1,0.1,0.1,0.2c0.1,0.6-0.2,1.1-0.3,1.6
			c-0.2,0.3,0,0.9-0.7,0.9C418.1,128.9,418.3,128.1,418.5,127.4z"/>
		<path fill="#DC8567" d="M391.4,128.8c0.6-0.3,1.2-0.6,1.8-0.9C392.9,128.8,392.2,128.9,391.4,128.8z"/>
		<path fill="#DC775E" d="M418.3,129.7c0.2-0.3,0.3-0.6,0.5-0.9c0.2,0,0.2,0.2,0.3,0.3c-0.1,0.4,0.1,1.2-0.8,0.9
			C418.2,129.9,418.2,129.8,418.3,129.7z"/>
		<path fill="#C85F4E" d="M404.7,132.6c0-0.1,0-0.2-0.1-0.3c0.2-0.2,0.2-0.7,0.6-0.6c0.4,0.1,0.1,0.4,0,0.6
			C405.1,132.4,404.9,132.5,404.7,132.6z"/>
		<path fill="#EB8467" d="M401,157.9c0.9-0.4,1.3-0.1,1.4,0.8c0.1,1,0.3,2,0.5,3c0.2-0.1,0.5-0.2,1.2-0.5c-1.2,1.1-0.6,1.7-0.2,2.4
			c0.2,0.5,0.2,1,0,1.4c-1.1-0.7-1.2-2-1.7-3.1c-0.5-1-0.3-2.2-0.4-3.2C401.6,158.2,401.1,158.3,401,157.9z"/>
		<path fill="#E3705C" d="M403.8,165.1c-0.3-0.5-0.3-1,0-1.4c1.4,0.7,1.7,1.8,0.9,3.2C404.4,166.3,404.1,165.7,403.8,165.1z"/>
		<path fill="#FAC19C" d="M417.6,106.5c0,0.2,0,0.3,0.1,0.5c0.1,0.2,0.1,0.4,0,0.6c-0.5,0.7,0.1,1.4,0,2.2c-0.1,0.7-0.2,1.1-1.1,1
			c-2.1-0.2-4.3-0.3-6.4-0.3c-1.5,0-3,0.3-4.5,0.4c-0.2,0,0-0.1-0.1,0c-0.1,0.1,0.2,0.1,0.2,0.2c-1,0.3-2.1,0.7-3.1,1
			c-0.9,0.3-1.4,0.9-0.6,2c-1.8-0.3-3.4-0.5-5.1-0.2c0.4-1.3-0.5-1.7-1.3-2c-1.5-0.6-3.1-0.7-4.7-1.1c0.2-0.2,0.4-0.2,0.5-0.2
			c-2.5-0.1-5.2-0.3-7.9,0.1c-0.9,0.1-1.4-0.2-1.4-1.1c0-1.3,0.5-2.6,0.3-4c0-0.4,0-0.7,0-1.1c0.6-1.9,1.2-3.7,2.5-5.3
			c0.1-0.7,0.6-1,1.2-1.2c1.3-0.8,2.5-1.8,4-2.3c0.4,0.1,0.8-0.1,1.2-0.1c1.5,2.4,3,4.8,5.4,6.3c1.2,0.7,2.3,1.4,3.7,1.6
			c0.5,0.1,0.6,0.1,0.5-0.3c-0.5-0.2-1.1-0.3-1.4-0.9c-0.1-0.1-0.1-0.2,0-0.4c0.9-0.5,1.4,0.4,2.1,0.6c0.6,0.2,1.1,0.7,1.8,0.8
			c1.1,0.2,1.9,1,3.1,1.1c2.9,1.1,6,1.5,9.1,1.5c0.6,0,1.2-0.1,1.8,0.2C417.4,106.2,417.5,106.3,417.6,106.5z"/>
		<path fill="#FAC19C" d="M418.5,125.2c-0.5,1.8-2,2.2-3.5,2.6c-0.9,0.2-1-0.3-0.9-0.9c0.3-3-0.5-4.4-3.1-5.1
			c-2.6-0.7-4.8,0.4-5.9,2.9c-0.1,0.3-0.2,0.8-0.7,0.8c-1.2-1.4-1.1-3.2-1.2-4.9c-0.2-1.8-0.2-3.6,0-5.5c0.2-0.1-0.3-0.8,0.2-0.4
			c1,0.8,2.1,0.7,3.2,0.7c1.4,0.2,2.8,0.2,4.2,0c0.5,0,0.9,0,1.4-0.2c1.4-0.5,1.9-0.8,1.1-2.4c0.1-0.6,0.6-0.4,0.9-0.3
			c1.5,0.3,3,0.2,4.3,1c0.7,1.1,0.3,2.4,0.3,3.6c-0.3,1-0.4,2.1-0.1,3.1c0.3,1.4,0.2,2.9,0.1,4.3
			C418.7,124.7,418.7,124.9,418.5,125.2z"/>
		<path fill="#FAC19C" d="M395.2,114.5c0,3,0.2,6-0.3,8.9c-0.5,0.7-0.7,0.1-0.9-0.2c-1.7-2-3.8-2.2-6.1-1.5c-2.4,0.7-3.3,3.3-2,5.4
			c0.2,0.4,0.6,0.6,0.4,1.1c-1.8-0.1-3.6-0.4-5.2-1.5c-0.8-1.5-0.4-3-0.3-4.5c0.1-0.2,0.1-0.3,0.2-0.4c0.1-0.1,0.2-0.2,0.3-0.3
			c0.4-1.2,0.1-2.4,0.2-3.6c0.1-1.6-0.1-3.2,0.2-4.7c0-0.2,0.1-0.3,0.2-0.4c0.9-0.1,1.9-0.2,2.8-0.3c0.3,0.7-0.5,1.7,0.5,2.1
			c3.1,0.8,6.1,0.9,9.1-0.3C394.7,114.1,395,114.1,395.2,114.5z"/>
		<path fill="#ED8E6D" d="M404.5,125.4c1.3-3.6,3.8-5,7.1-4c2.5,0.7,3.7,2.9,2.9,5.3c-0.2,0.7-0.1,0.9,0.6,1c-3.4,1-6.6,1-9.6-1.1
			C405,126.3,404.6,125.9,404.5,125.4z"/>
		<path fill="#EE8D6D" d="M386.3,128.3c-2-2.5-1.9-4.9,0.3-6.4c2-1.4,6.6-1.3,7.8,1.5c0.1,0.3,0.3,0.1,0.5,0.1c-0.9,3-3,4.6-6.4,4.9
			C387.7,128.3,387,128.3,386.3,128.3z"/>
		<path fill="#101214" d="M395.2,114.5c-0.2-0.1-0.4-0.2-0.5-0.2c-3.2,1.9-6.5,1.4-9.9,0.5c-0.4-0.8-0.1-1.6,0.3-2.3
			c2.7,0,5.4-0.2,8,0.6C393.9,113.3,395,113.2,395.2,114.5z"/>
		<path fill="#ED8D6D" d="M381.1,121.9c0,1.6,0,3.3,0,4.9c-2.1-1.3-2.5-3.5-2.6-5.7c0.2-1.2,0.2-2.5,0-3.7c-0.1-0.8-0.1-1.5,0.1-2.3
			c1.3-0.2,1.5,0.9,2.2,1.5c0.2,0.3,0.4,0.6,0.5,0.9c0.1,0.3,0.1,0.6,0.1,0.9c0,0.6,0,1.3,0,1.9
			C381.5,120.8,381.6,121.4,381.1,121.9z"/>
		<path fill="#F4C5A1" d="M405.7,111c-0.3,0-0.6-0.1-1.3-0.1c4.1-1,7.9-1,11.6-0.5c1.5,0.2,1.5-0.5,1.4-1.6
			c-0.1-0.7-0.3-1.4-0.4-2.1c0.6,0,0.3,0.6,0.7,0.7c0.4,0.4,0.1,0.9,0.3,1.3c0,0.4,0,0.9,0.1,1.3c0,0.4,0,0.8-0.1,1.1
			C413.8,110.5,409.7,110.6,405.7,111z"/>
		<path fill="#F4C6A1" d="M382.2,105.5c0.6,0.8,0.3,1.6,0.1,2.5c-0.5,2.2-0.2,2.4,2,2.2c2.7-0.2,5.3-0.1,8,0.4c-0.5,0-1,0.1-1.5,0.1
			c-2.8,0-5.6-0.2-8.4,0.2c-0.6,0.1-0.8-0.1-0.7-0.7C381.8,108.7,381.7,107.1,382.2,105.5z"/>
		<path fill="#EE9171" d="M418.5,125.2c0-0.2,0-0.4,0-0.6c0.3-1.5,0.6-2.9,0.1-4.4c-0.3-1.1-0.1-2.3,0.3-3.5c0-0.1,0-0.3,0-0.4
			c0.2-0.5,0.3-1,1-0.6c0.1,3,0.5,6-0.8,8.8C419,124.8,418.9,125,418.5,125.2z"/>
		<path fill="#F0EAE6" d="M380.6,116.7c-0.6-0.7-1.1-1.4-2-1.7c0.1-1.4,1-1.9,2.2-1.9c0.2,0.8,0.5,1.6,0.4,2.5
			C381.1,116,381.2,116.6,380.6,116.7z"/>
		<path fill="#BF5041" d="M421,121.3c0.1,0.2,0.1,0.4,0.2,0.8c0.3-0.6,0.5-1.1,0.7-1.6c0.4-0.7,0.8-1.3,1.2-2c0.1-0.1,0.2-0.1,0.3,0
			c-1,2.1-1.5,4.4-2.9,6.3C420.7,123.6,420.9,122.5,421,121.3z"/>
		<path fill="#B18870" d="M382,112.8c0,0.1,0,0.1-0.1,0.2c-0.2,2.5,0,5.1-0.1,7.6c0,0.5,0.2,1-0.2,1.4c-0.1,0-0.2-0.1-0.3-0.1
			c-0.1-0.6,0-1.1-0.1-1.7c0-0.6,0-1.3,0-1.9c0.1-0.6-0.2-1.1-0.1-1.7c0-0.3,0-0.7,0-1c0-0.6-0.1-1.2,0.2-1.7
			C381.5,113.5,381.1,112.7,382,112.8z"/>
		<path fill="#D26753" d="M376.8,120.2c0.2,0.3,0.3,0.6,0.5,0.9c0,0.5,0,1,0.1,1.4c-0.9-1.5-1.9-3-2-4.9c0.4,0.6,0.8,1.2,1.1,1.7
			C376.9,119.5,377,119.8,376.8,120.2z"/>
		<path fill="#F3F0EB" d="M419.9,115.6c-0.6,0-0.7,0.4-0.9,0.8c-0.5-1-0.6-1.9,0-2.9C419.8,114.1,419.7,114.9,419.9,115.6z"/>
		<path fill="#C45544" d="M420.5,124.8c0.1,1.2-0.6,2.2-1.1,3.2c-0.3-0.2,0-0.7-0.3-0.9c0,0,0,0,0,0
			C419.5,126.3,419.9,125.5,420.5,124.8z"/>
		<path fill="#E6E2DF" d="M381.4,115.6c0,0.3,0,0.6,0,0.8c-0.3,0.2,0,0.7-0.3,0.9c-0.2-0.2-0.3-0.4-0.5-0.6c0.5-1.2,0.1-2.4,0.2-3.7
			c0.5,0.1,0.1,0.6,0.3,0.8C381.4,114.4,381,115.1,381.4,115.6z"/>
		<path fill="#2B2725" d="M403.2,115c0,1.8,0,3.6,0,5.5C402.8,118.7,402.8,116.8,403.2,115z"/>
		<path fill="#C35444" d="M380.3,127.6c-0.4,0.4,0.1,0.8,0,1.2c0.1,0.3,0,0.4-0.3,0.3c-0.3-0.9-0.8-1.6-0.9-2.6
			C379.5,126.9,379.9,127.3,380.3,127.6z"/>
		<path fill="#EAE4E1" d="M419,113.6c-0.4,0.9-0.3,1.9,0,2.9c0,0,0.1,0,0.1,0c0,0.4-0.1,0.7-0.6,0.5c0-1.2,0-2.4,0-3.6
			C418.8,113.3,419,113.3,419,113.6z"/>
		<path fill="#2B2725" d="M410.8,115.3c-1.4,0.3-2.8,0.3-4.2,0C408,115.2,409.4,115.2,410.8,115.3z"/>
		<path fill="#F69A79" d="M378.5,117.3c0.5,1.2,0.5,2.5,0,3.7C378.3,119.8,378.3,118.6,378.5,117.3z"/>
		<path d="M385.1,112.4c-0.1,0.8-0.2,1.6-0.3,2.3c-1-0.8-0.4-1.5,0-2.3C384.9,112.4,385,112.4,385.1,112.4z"/>
		<path fill="#2B2725" d="M414.2,112.4c-0.3,0.1-0.8-0.2-0.9,0.3c-0.4-0.1-0.7-0.3-0.1-0.6C413.5,112,413.9,112.1,414.2,112.4z"/>
		<path fill="#150B08" d="M381.4,115.6c-0.6-0.5-0.2-1.1-0.3-1.7c0.1,0,0.2,0,0.2,0C381.4,114.4,381.4,115,381.4,115.6z"/>
		<path fill="#E06B5A" d="M410.5,96.6c1.5,0,2.6,1,3.5,2c0.1,0.5,0.4,0.7,0.8,0.8c1.6,1.5,2,3.6,2.6,5.5c0.2,0.3,0.1,0.5,0.1,0.8
			c-0.9,0.9-2.1,0.4-3.1,0.3c-2.8-0.3-5.6-0.8-8.3-1.6c-0.7-0.1-1.3-0.4-1.9-0.8c-0.4-0.3-0.7-0.8-0.4-1.4c0.5,0.1,1,0.2,1.4,0.4
			c0.4,0.3,1,0,1.5,0.3c0.4,0,0.8,0,1.1,0c3.4,0.2,3.7-0.1,2.9-3.6C410.8,98.4,410.8,97.5,410.5,96.6z"/>
		<path fill="#E5896E" d="M403.8,102.3c0.1,1.4,1.5,1.4,2.3,2.1c0.1,0.1,0.1,0.2,0,0.3c-1.1,0.1-1.8-1-2.9-0.9c-0.2-0.6-1-0.5-1.3-1
			c-0.4-0.4-1.6-0.3-0.7-1.3C402.2,101.5,403,102,403.8,102.3z"/>
		<path fill="#F6B693" d="M398.3,101.5c-0.3-0.4-0.6-0.7-1.1-0.8c-0.3,0-0.4-0.2-0.5-0.4c-0.1-0.3,0-0.6,0.2-0.8
			c1.1,0.5,2.1,0.9,3.2,1.4c0.4,0.6-0.1,0.8-0.5,1C399.1,102,398.7,101.7,398.3,101.5z"/>
		<path fill="#EFA283" d="M399.5,101.8c0.2-0.3,0.6-0.4,0.6-0.9c0.5,0,0.8,0.3,1.1,0.5c-0.4,0.9,0.7,0.7,0.9,1.2
			c-0.1,0.2-0.4,0.1-0.6,0.3c-0.8,0-1.1-1.1-2-0.9C399.5,102,399.4,101.9,399.5,101.8C399.5,101.8,399.5,101.8,399.5,101.8z"/>
		<path fill="#FCE0B6" d="M396.9,99.5c0,0.3,0,0.6,0,0.9c-0.5,0.1-0.7-0.3-0.8-0.7c-0.3-0.3-0.6-0.7-0.9-1.1
			C396.1,98.5,396.5,99,396.9,99.5z"/>
		<path fill="#0A0706" d="M386,98c-0.4,0.4-0.8,0.8-1.2,1.2C384.6,98.2,385.1,97.9,386,98z"/>
		<path fill="#BBBAB6" d="M390.9,90.8c0-0.4,0.1-0.9,0.6-1.1c0.2-0.1,0.3,0,0.2,0.2c0,0.1,0,0.2,0,0.3
			C391.4,90.4,391.4,90.9,390.9,90.8z"/>
		<path fill="#E9BD9A" d="M399.5,101.8c0,0.1,0,0.2,0,0.3c0,0.1,0,0.2,0,0.3c-0.6,0-0.9-0.4-1.2-0.9
			C398.8,101.4,399.2,101.6,399.5,101.8z"/>
		<path fill="#010101" d="M396.1,99.7c0.3,0.2,0.5,0.4,0.8,0.7c0.1,0.1,0.2,0.2,0.3,0.3C396.4,100.8,396,100.6,396.1,99.7z"/>
		<path fill="#F4C9A3" d="M391.2,95.7c-0.4,0.5-0.8,0.5-1.2,0.1C390.4,95.6,390.8,95,391.2,95.7z"/>
		<path fill="#CA6352" d="M406.8,102.9c-0.5,0-1.1,0.2-1.5-0.3C405.8,102.6,406.3,102.6,406.8,102.9z"/>
		<path fill="#826251" d="M400.9,103.3c0.2,0,0.5,0.2,0.4,0.4c-0.3,0.3-0.7,0.2-0.9-0.1C400.5,103.5,400.7,103.4,400.9,103.3z"/>
		<path fill="#F4F3F1" d="M391.7,89.9c0-0.2-0.1-0.2-0.2-0.2c0-0.8,0.7-1,1.1-1.5c0.1,0.1,0.3,0.3,0.4,0.4
			C392.6,89,392.2,89.5,391.7,89.9z"/>
		<path fill="#C85D4C" d="M380,129.1c0.1-0.1,0.2-0.2,0.3-0.3c0.3,0.2,0.3,0.6,0.3,0.9c0.1,0.3,0,0.4-0.3,0.3
			C380.2,129.7,380.1,129.4,380,129.1z"/>
		<path fill="#D46B57" d="M380.2,130c0.1-0.1,0.2-0.2,0.3-0.3c0.2,0.2,0.4,0.6,0,0.7C380.3,130.5,380.3,130.2,380.2,130z"/>
		<path fill="#BC4B3C" d="M419.1,127.1c0.4,0.2,0.3,0.5,0.3,0.9c-0.1,0.4-0.2,0.7-0.3,1.1c-0.1-0.1-0.2-0.2-0.3-0.3
			C418.9,128.3,419,127.7,419.1,127.1z"/>
		<path fill="#CF6754" d="M423.4,118.5c-0.1,0-0.2,0-0.3,0c0.3-0.3,0.1-1,0.9-0.9C423.8,117.9,423.6,118.2,423.4,118.5z"/>
		<path fill="#EC7360" d="M414.8,99.4c-0.7,0.1-1-0.1-0.8-0.8C414.4,98.7,414.6,99.1,414.8,99.4z"/>
		<path fill="#14100F" d="M417.9,108.8c-0.1-0.4-0.2-0.9-0.3-1.3c0-0.2,0-0.4,0.1-0.6C418.2,107.5,417.9,108.2,417.9,108.8z"/>
		<path fill="#14100F" d="M417.4,105.8c0-0.3,0-0.6,0-0.9c0.5,0.4,0.2,1,0.3,1.5c-0.1,0-0.1-0.1-0.2-0.1
			C417.2,106.2,417.2,106,417.4,105.8z"/>
		<path fill="#DB6655" d="M413.1,150.1c0.3,1,0.2,2,0.2,2.9C412.8,152.1,413.1,151,413.1,150.1z"/>
		<path fill="#F59372" d="M376.8,120.2c-0.1-0.3-0.2-0.6-0.3-0.8c0.4-0.6,0.2-1.4,0.4-2C377,118.3,377.3,119.3,376.8,120.2z"/>
		<path fill="#030303" d="M423.2,184.7c1.2,2.5,2.3,4.7,3.4,6.9c-0.1,0.1-0.1,0.2-0.2,0.3c-1.7-0.9-3.3-1.7-5-2.6
			c-0.4-0.2-0.3-0.5-0.1-0.8C421.9,187.3,422.5,186.1,423.2,184.7z"/>
		<path fill="#E98165" d="M398.9,127.1c0.7,0.6,0.4,1.2,0,1.7C398.8,128.3,398.5,127.7,398.9,127.1z"/>
		<path fill="#D1735E" d="M396.9,133.8c1.5,0,2.9,0,4.4,0c0.4,0.3,0.9-0.1,1.2,0.3c-2.2,0.4-4.3,0.4-6.5,0
			C396.2,133.7,396.7,134,396.9,133.8z"/>
		<path fill="#CD6955" d="M396.9,133.8c-0.2,0.3-0.6,0.2-0.9,0.3c-0.5-0.1-1,0.1-1.3-0.3c0.3,0,0.6,0.1,0.8-0.2
			C395.9,133.6,396.4,133.7,396.9,133.8z"/>
		<path fill="#CE6B57" d="M402.5,134.1c-0.4-0.1-0.9,0.1-1.2-0.3c0.6-0.1,1.1-0.2,1.7-0.3c0.1,0.1,0.3,0.1,0.3,0.3
			C403.1,134,402.8,134.1,402.5,134.1z"/>
		<path fill="#C25544" d="M403.3,133.8c-0.1-0.1-0.2-0.2-0.3-0.3c0.3-0.3,0.7-0.4,1.1-0.3C404,133.6,403.7,133.7,403.3,133.8z"/>
		<path fill="#E7836A" d="M417.4,105.8c0,0.2,0,0.4,0.1,0.5c-3.9,0.1-7.7,0-11.3-1.7c0-0.1,0-0.2,0-0.3c0.7-0.2,1.9,0,2.5,0.5
			c0.4,0.4,0.9,0.1,1.3,0.2c1.9,0.4,3.9,0.6,5.9,1C416.4,106.1,416.9,106.1,417.4,105.8z"/>
		<path fill="#F7B18E" d="M401.5,102.9c0.1-0.2,0.3-0.3,0.6-0.3c0.2,0.6,1.4,0.1,1.2,1.2C402.7,103.5,402.1,103.2,401.5,102.9z"/>
		<path fill="#EB8C6B" d="M418.5,117c0.2-0.2,0.4-0.3,0.6-0.5c0.4,0.8-0.3,1.5-0.3,2.3c0,1.4,0.9,2.8,0.3,4.3
			c-0.2,0.5-0.2,1.1-0.6,1.6c0.1-2-0.2-3.9-0.3-5.9C418.2,118.1,418.2,117.5,418.5,117z"/>
		<path fill="#181819" d="M407.6,117.5c0.7,0.1,1.1,0.5,1.1,1.2c0,0.7-0.4,1.2-1.1,1.2c-0.8,0-1.3-0.5-1.2-1.3
			C406.4,118,406.9,117.6,407.6,117.5z"/>
		<path fill="#060506" d="M392.1,118.8c-0.4,0.5-0.5,1.3-1.4,1.2c-0.8-0.1-1-0.7-1-1.3c0-0.8,0.6-1,1.3-1
			C391.8,117.6,391.9,118.3,392.1,118.8z"/>
		<path fill="#FBD4AC" d="M381.6,121.9c0-2.5,0-5,0.1-7.5c0-0.5-0.2-1.1,0.2-1.5c0,2.7,0,5.5,0,8.2
			C382,121.5,381.9,121.8,381.6,121.9z"/>
		<path fill="#57342A" d="M381.4,120.2c0,0.5,0,1.1,0,1.6c0,0-0.1,0-0.1,0s-0.1,0-0.1,0c0-0.6,0-1.1,0-1.7
			C381.2,120.1,381.3,120.1,381.4,120.2z"/>
		<path fill="#5C3B2F" d="M381.4,120.2l-0.1,0c0,0-0.1,0-0.1,0c0-0.7,0-1.4,0-2c0.1,0,0.1,0,0.2,0
			C381.3,118.9,381.3,119.5,381.4,120.2z"/>
		<path fill="#46332E" d="M381.3,118.2c-0.1,0-0.1,0-0.2,0c0-0.3-0.1-0.6-0.1-0.8c0.1-0.3-0.2-0.7,0.3-0.9
			C381.4,117,381.3,117.6,381.3,118.2z"/>
		<path fill="#EB725F" d="M407.9,103.3c0.9,0,1.9,0,2.8,0c0,0,0,0.1,0,0.1c-0.9,0-1.9,0-2.8,0C407.9,103.4,407.9,103.3,407.9,103.3z
			"/>
		<path fill="#EF7662" d="M411.5,101.4c0.2,0.4,0.2,0.8,0,1.3C411.3,102.3,411.2,101.9,411.5,101.4z"/>
		<path fill="#24201F" d="M390.9,119.3c-0.3,0-0.5-0.2-0.5-0.5c0-0.4,0.2-0.6,0.6-0.6c0.3,0,0.5,0.3,0.5,0.6
			C391.4,119.2,391.2,119.3,390.9,119.3z"/>
	</g>
</g>
<path d="M373.2,284.9h-54.1c-5.8,0-10.5-4.7-10.5-10.5l0,0c0-5.8,4.7-10.5,10.5-10.5h54.1c5.8,0,10.5,4.7,10.5,10.5l0,0
	C383.7,280.2,378.9,284.9,373.2,284.9z"/>
<path d="M477.7,284.9h-54.1c-5.8,0-10.5-4.7-10.5-10.5l0,0c0-5.8,4.7-10.5,10.5-10.5h54.1c5.8,0,10.5,4.7,10.5,10.5l0,0
	C488.2,280.2,483.5,284.9,477.7,284.9z"/>
<g>
	<linearGradient id="SVGID_8_" gradientUnits="userSpaceOnUse" x1="424.8629" y1="386.9143" x2="424.8629" y2="-9.0039">
		<stop  offset="0" style="stop-color:#E1E2E2;stop-opacity:0"/>
		<stop  offset="0.3787" style="stop-color:#E5E5E5;stop-opacity:0.1136"/>
		<stop  offset="0.7159" style="stop-color:#EFF0F0;stop-opacity:0.2148"/>
		<stop  offset="1" style="stop-color:#FFFFFF;stop-opacity:0.3"/>
	</linearGradient>
	<path fill="url(#SVGID_8_)" d="M538.2,14.7c0-8-6.7-14.7-14.9-14.7H311.6l132.6,317.8h94V14.7z"/>
</g>
<linearGradient id="SVGID_9_" gradientUnits="userSpaceOnUse" x1="163.8889" y1="274.5" x2="272.2222" y2="274.5">
	<stop  offset="0" style="stop-color:#FF64F8"/>
	<stop  offset="0.3942" style="stop-color:#FF47CD"/>
	<stop  offset="0.7901" style="stop-color:#FF2EA8"/>
	<stop  offset="1" style="stop-color:#FF259A"/>
</linearGradient>
<path fill="url(#SVGID_9_)" d="M261.7,285h-87.3c-5.8,0-10.5-4.7-10.5-10.5l0,0c0-5.8,4.7-10.5,10.5-10.5h87.3
	c5.8,0,10.5,4.7,10.5,10.5l0,0C272.2,280.3,267.5,285,261.7,285z"/>
</svg>
