<?xml version="1.0" encoding="utf-8"?>
<!-- Generator: Adobe Illustrator 23.0.2, SVG Export Plug-In . SVG Version: 6.00 Build 0)  -->
<svg version="1.1" id="Layer_1" xmlns="http://www.w3.org/2000/svg" xmlns:xlink="http://www.w3.org/1999/xlink" x="0px" y="0px"
	 width="538px" height="380px" viewBox="0 0 538 380" enable-background="new 0 0 538 380" xml:space="preserve">
<path fill="none" d="M537.7,364.7c0,8.1-6.7,14.7-14.9,14.7H15.3c-8.2,0-14.9-6.6-14.9-14.7v-350C0.3,6.6,7.1,0,15.3,0h507.4
	c8.2,0,14.9,6.6,14.9,14.7L537.7,364.7L537.7,364.7z"/>
<g>
	<path d="M537.7,14.7C537.7,6.6,531,0,522.8,0H15.3c-8.2,0-15,6.6-15,14.7V319h537.3V14.7H537.7z"/>
	
		<linearGradient id="SVGID_1_" gradientUnits="userSpaceOnUse" x1="0.3" y1="30.8" x2="537.5" y2="30.8" gradientTransform="matrix(1 0 0 -1 0 380)">
		<stop  offset="0" style="stop-color:#C9C9C9"/>
		<stop  offset="0.9888" style="stop-color:#EAEAEA"/>
	</linearGradient>
	<path fill="url(#SVGID_1_)" d="M0.3,319v45.7c0,8.1,6.7,14.7,14.9,14.7h507.4c8.2,0,14.9-6.6,14.9-14.7V319H0.3z"/>
</g>
<g>
	
		<radialGradient id="SVGID_2_" cx="-22.3494" cy="696.0649" r="12.6319" gradientTransform="matrix(0.3098 0 0 -0.3098 276.9307 223.1683)" gradientUnits="userSpaceOnUse">
		<stop  offset="0.5644" style="stop-color:#212121"/>
		<stop  offset="0.7546" style="stop-color:#353535"/>
	</radialGradient>
	<path fill="url(#SVGID_2_)" d="M267.6,9.5c0-1.3,1.1-2.4,2.4-2.4s2.4,1.1,2.4,2.4s-1.1,2.4-2.4,2.4S267.6,10.8,267.6,9.5z"/>
	
		<radialGradient id="SVGID_3_" cx="192.9694" cy="548.6388" r="1.764" gradientTransform="matrix(0.7005 0 0 -0.7005 134.9032 393.6904)" gradientUnits="userSpaceOnUse">
		<stop  offset="0" style="stop-color:#1A1A1A"/>
		<stop  offset="0.7485" style="stop-color:#282828"/>
		<stop  offset="1" style="stop-color:#000000"/>
	</radialGradient>
	<path fill="url(#SVGID_3_)" d="M270,8.4c0.6,0,1.1,0.5,1.1,1.1s-0.5,1.1-1.1,1.1s-1.1-0.5-1.1-1.1S269.4,8.4,270,8.4z"/>
	<path fill="#1A1A1A" d="M270.1,9.8c-0.3,0-0.5-0.2-0.5-0.5s0.2-0.5,0.5-0.5s0.5,0.2,0.5,0.5C270.7,9.5,270.4,9.8,270.1,9.8z"/>
	<path fill="#606060" d="M270,9.2c-0.2,0-0.3-0.1-0.3-0.3s0.1-0.3,0.3-0.3c0.2,0,0.3,0.1,0.3,0.3C270.3,9.1,270.1,9.2,270,9.2z"/>
	<path fill="#919191" d="M270.4,10.2c-0.2,0-0.3-0.1-0.3-0.3s0.1-0.3,0.3-0.3c0.2,0,0.3,0.1,0.3,0.3C270.7,10,270.5,10.2,270.4,10.2
		z"/>
</g>
<path d="M281,348.7c-3.3,0-6-2.7-6-6c0-2.6,1.6-4.7,3.8-5.6c-2.4-1.9-5.5-3.1-8.8-3.1c-7.9,0-14.3,6.4-14.3,14.3s6.4,14.3,14.3,14.3
	s14.3-6.4,14.3-14.3c0-0.2,0-0.4,0-0.7C283.4,348.3,282.2,348.7,281,348.7z"/>
<g>
	<g>
		<defs>
			<rect id="SVGID_4_" x="25.4" y="26" width="486.5" height="269.7"/>
		</defs>
		<clipPath id="SVGID_5_">
			<use xlink:href="#SVGID_4_"  overflow="visible"/>
		</clipPath>
		<g clip-path="url(#SVGID_5_)">
			<path fill="#FDD965" d="M267.4-24.8c84.3,0,168.7,0,253-0.1c2.4,0,2.9,0.5,2.9,2.9c-0.1,126-0.1,252.1,0,378.1
				c0,2.4-0.5,2.9-2.9,2.9c-168.7-0.1-337.4-0.1-506.1,0c-2.4,0-2.9-0.5-2.9-2.9c0.1-126,0.1-252.1,0-378.1c0-2.4,0.5-2.9,2.9-2.9
				C98.7-24.8,183-24.8,267.4-24.8z"/>
			<path fill="#1B2244" d="M272.6,94.2c30.7,0,56.3,20.6,61.6,50.4c3.9,22.2-3.2,41.2-19.8,56.5c-4.2,3.9-8.2,7.8-10.4,13.2
				c-0.9,2.1-1.5,3.7,2.1,3.5c3.6-0.1,6.2,3,6.1,6.4c-0.1,3.5-2.7,6-6.4,6.2c-4.7,0.3-4.7,0.3-5.8,5.1c-1.2,5-2,10-4.5,14.6
				s-5.9,8.1-11,9.6c-1.4,0.4-2.1,1.2-2.8,2.3c-4.5,6.8-13.6,6.8-18.3,0.2c-0.6-0.9-1-1.8-2.2-2.1c-8-1.8-11.8-7.8-14.3-14.9
				c-1.2-3.6-2.1-7.4-2.7-11.1c-0.5-3-1.8-3.8-4.7-3.5c-3.1,0.3-5.3-1.3-6.3-4.3c-1.4-4,1.2-8,5.7-8.3c2-0.2,2.3-0.7,1.8-2.5
				c-1.3-4.8-4.2-8.7-7.7-11.9c-6.8-6.1-12.6-12.9-16.7-21.2c-18-36.2,3.6-79.4,43.4-86.8C263.9,94.6,268.2,94.1,272.6,94.2z"/>
			<path fill="#1C2244" d="M355.6,133.7c-0.1,0.2-0.3,1-0.6,1c-2.1,0.4-2.9,1.8-3.8,3.6c-0.6,1.3-2.6,1.1-3.1-0.6
				c-0.4-1.5-0.9-2.5-2.6-2.6c-1-0.1-1.4-0.9-1.4-1.8c0-1,0.3-1.8,1.3-1.9c1.7-0.2,2.4-1,2.6-2.6c0.1-1,0.9-1.3,1.9-1.3
				c0.8,0,1.6,0.3,1.7,1.1c0.2,1.8,0.9,2.7,2.8,2.8C355.4,131.5,355.7,132.4,355.6,133.7z"/>
			<path fill="#1C2244" d="M157.9,163.6c0,0.8-5.3,6.1-5.8,6.1s-6-5.5-5.7-5.8c1.8-1.9,3.7-3.8,5.6-5.7c0.1-0.1,0.2-0.1,0.3,0
				C154.3,160,156.2,161.9,157.9,163.6z"/>
			<path fill="#1C2244" d="M209.1,196.3c-1.7,1.6-3.6,3.6-5.6,5.3c-0.5,0.4-5.9-5.2-5.9-5.9c0.1-0.8,0.5-1.5,1.3-1.6
				c1.6-0.2,2.3-1,2.7-2.6s2.9-2,3.3-0.5c0.6,2,1.5,3,3.5,3.4C209.1,194.5,209.2,195.3,209.1,196.3z"/>
			<path fill="#1C2244" d="M249.4,86.5c-0.5,0-6-5.5-5.7-5.8c1.8-1.9,3.6-3.9,5.6-5.6c0.5-0.4,6,5.2,5.8,5.9
				c-0.1,0.5-0.4,1.3-0.7,1.3c-2,0.3-3.2,1.4-3.5,3.4C250.9,86.4,250.1,86.5,249.4,86.5z"/>
			<path fill="#1C2244" d="M392.7,171.6c-0.5,0-6-5.5-5.7-5.8c1.8-1.9,3.6-3.9,5.6-5.6c0.5-0.4,6,5.2,5.8,5.9
				c-0.1,0.5-0.4,1.3-0.7,1.3c-2,0.3-3.2,1.4-3.4,3.4C394.3,171.5,393.4,171.6,392.7,171.6z"/>
			<path fill="#FEF9DA" d="M217.9,98.4c-0.5,1.8-1.7,2.6-3,1.4c-3.2-2.9-6.3-6-9.3-9.2c-0.7-0.7-0.7-1.8,0.1-2.6
				c0.8-0.8,1.9-0.8,2.6-0.1c3.1,2.9,6,6,9,9C217.6,97.4,217.7,98,217.9,98.4z"/>
			<path fill="#FEF9DA" d="M339.9,89.5c-0.1,0.8-0.5,1.4-1,1.9c-2.6,2.6-5.2,5.3-7.9,7.9c-1,0.9-2.1,1.7-3.3,0.4
				c-1-1.1-0.4-2.2,0.5-3.1c2.7-2.7,5.4-5.4,8.1-8.1c0.7-0.7,1.5-1.1,2.6-0.7C339.6,88,339.9,88.7,339.9,89.5z"/>
			<path fill="#FEF9DA" d="M207,222.4c-0.7-0.1-1.3-0.3-1.6-0.9c-0.5-0.9-0.4-1.7,0.3-2.4c3-3,6-6,9-9c0.7-0.7,1.7-0.8,2.6,0
				c0.7,0.7,0.8,1.6,0.2,2.3c-2.9,3.5-6.2,6.7-9.6,9.7C207.6,222.3,207.2,222.3,207,222.4z"/>
			<path fill="#FEF9DA" d="M329.3,209.7c0.2,0.1,0.7,0.2,1,0.5c3,3,6.1,5.9,9,9c0.7,0.7,0.8,1.8,0.1,2.6c-0.9,1-2,0.9-2.8,0.1
				c-3-2.9-5.9-5.8-8.8-8.8c-0.6-0.6-0.9-1.5-0.5-2.3S328.3,209.6,329.3,209.7z"/>
			<path fill="#FEF9DB" d="M274.4,70.8c0,1.8,0,3.6,0,5.4c0,1.3-0.3,2.4-1.8,2.5s-2-1-2-2.3c0-3.9,0-7.9,0-11.8c0-1.3,0.5-2.4,2-2.3
				c1.5,0.1,1.8,1.2,1.8,2.5C274.4,66.8,274.4,68.8,274.4,70.8z"/>
			<path fill="#FEF9DB" d="M358.7,156.9c-1.9,0-3.8,0-5.7,0c-1.3,0-2.4-0.5-2.3-2c0-1.3,1-1.8,2.2-1.8c4,0,8.1,0,12.1,0
				c1.2,0,2.1,0.5,2.2,1.8c0,1.5-1,2-2.3,2C362.7,156.9,360.7,156.9,358.7,156.9z"/>
			<path fill="#FEF9DB" d="M186.2,153c1.9,0,3.8,0,5.7,0c1.3,0,2.4,0.5,2.3,2c0,1.3-1,1.8-2.2,1.8c-4,0-8.1,0-12.1,0
				c-1.2,0-2.1-0.5-2.2-1.8c0-1.5,1-2,2.3-2C182.2,153,184.2,153,186.2,153z"/>
			<path fill="#1D2444" d="M296.1,82.1c0,1.1-3.4,4.4-4.5,4.4s-4.4-3.5-4.4-4.5c0-1.1,3.5-4.4,4.5-4.4
				C292.9,77.6,296.2,81,296.1,82.1z"/>
			<path fill="#1D2444" d="M196.3,133.9c0,1.2-3.3,4.5-4.5,4.4c-1.2,0-4.5-3.3-4.4-4.5c0-1.2,3.3-4.5,4.5-4.4
				C193,129.4,196.3,132.7,196.3,133.9z"/>
			<path fill="#1D2444" d="M224.5,231.8c0,1.2-3.3,4.5-4.5,4.5s-4.5-3.3-4.4-4.5c0-1.2,3.3-4.5,4.5-4.4
				C221.2,227.3,224.5,230.6,224.5,231.8z"/>
			<path fill="#1D2444" d="M313.4,245.7c0.1,1-3.3,4.5-4.4,4.6c-1,0.1-4.5-3.3-4.6-4.4c-0.1-1,3.3-4.5,4.4-4.6
				C309.9,241.3,313.4,244.6,313.4,245.7z"/>
			<path fill="#1E2544" d="M219.2,69.2c2,0.2,3.2,1.1,3.3,3.1s-1.1,3.2-3,3.3c-2,0.1-3.2-1.1-3.3-3
				C216.1,70.5,217.3,69.5,219.2,69.2z"/>
			<path fill="#1E2544" d="M319.3,78.2c-2-0.2-3.2-1.1-3.3-3.1c-0.1-2,1.1-3.2,3-3.3c2-0.1,3.2,1.1,3.3,3
				C322.4,76.9,321.2,77.9,319.3,78.2z"/>
			<path fill="#1E2544" d="M188.7,105.1c-1.9-0.2-3.2-1.2-3.2-3.2s1.2-3.2,3.2-3.2s3.1,1.2,3.2,3.2
				C191.8,103.9,190.6,104.8,188.7,105.1z"/>
			<path fill="#1E2544" d="M355.1,106.3c-0.3,2.1-1.4,3.3-3.4,3.2c-2-0.1-3.1-1.3-3-3.3s1.3-3.1,3.3-3
				C353.9,103.2,354.8,104.6,355.1,106.3z"/>
			<path fill="#1E2544" d="M367.2,175.9c-0.2,2-1.1,3.2-3.1,3.3s-3.2-1.1-3.3-3c-0.1-2,1.1-3.2,3-3.3
				C365.8,172.8,366.9,174,367.2,175.9z"/>
			<path fill="#1E2544" d="M179.8,180.6c-2-0.2-3.2-1.1-3.3-3.1s1.1-3.2,3-3.3c2-0.1,3.2,1.1,3.3,3
				C182.9,179.2,181.7,180.3,179.8,180.6z"/>
			<path fill="#1E2544" d="M339.1,192c1.9,0.3,3.1,1.3,3.1,3.3c-0.1,2-1.2,3.1-3.2,3.1s-3.1-1.2-3.1-3.2
				C335.9,193.2,337.1,192.2,339.1,192z"/>
			<path fill="#1E2544" d="M419,146.1c-0.3,1.9-1.3,3.1-3.3,3.1c-2-0.1-3.1-1.2-3.1-3.2s1.2-3.1,3.2-3.1
				C417.9,142.9,418.8,144.1,419,146.1z"/>
			<path fill="#1E2544" d="M131.7,145.5c-0.3,1.9-1.4,3.1-3.4,3s-3.1-1.3-3-3.3s1.3-3.1,3.3-3S131.6,143.5,131.7,145.5z"/>
			<path fill="#1E2544" d="M327.6,229.1c-0.3,2.1-1.4,3.3-3.4,3.2s-3.1-1.3-3-3.3s1.3-3.1,3.3-3
				C326.4,226.1,327.3,227.4,327.6,229.1z"/>
			<path fill="#1E2544" d="M385.7,133.1c-0.2,1.9-1.2,3.2-3.2,3.2s-3.2-1.1-3.2-3.1s1.1-3.2,3.1-3.2
				C384.5,130,385.5,131.2,385.7,133.1z"/>
			<path fill="#1E2544" d="M163.1,129.4c-0.3,1.9-1.3,3.1-3.3,3.1c-2-0.1-3.1-1.2-3.1-3.2s1.2-3.1,3.2-3.1
				C161.9,126.2,162.9,127.5,163.1,129.4z"/>
			<path fill="#1E2544" d="M240.9,251.5c2.1,0.2,3.4,1.2,3.4,3.2c0,2-1.1,3.2-3.1,3.2s-3.2-1.1-3.2-3.1
				C237.9,252.8,239.2,251.9,240.9,251.5z"/>
			<path fill="#FED05C" d="M264.1,199.1c0.7,5.4,1.3,10.8,2.1,16.1c0.2,1.6,0.1,2.5-2,2.5c-5.8-0.1-11.5-0.1-17.3,0
				c-1.1,0-1.9,0-2.2-1.5c-1.2-7.2-5.5-12.6-10.8-17.2c-20.4-17.7-26.1-46.1-13.9-69.9c10.3-20.3,34-33.3,57.4-30.8
				c25,2.7,42.8,15.5,51.1,39.6c7.5,21.4,0.1,45.9-17.3,60.8c-5.6,4.8-10.4,10.2-11.8,17.7c-0.2,1.2-0.8,1.3-1.7,1.3
				c-5.3,0-10.7-0.1-16,0c-1.7,0-1.9-0.7-1.7-2.1c0.7-5.5,1.4-11,2.1-16.5c1-1.4,2.6-1.8,4.1-2.3c17.4-6,28.9-23.5,27.1-41.5
				c-1.8-18.8-16.2-33.8-34.9-36.3c-21.1-2.9-41.6,11.5-44.9,33.5c-3.1,20.9,8.7,38,26.6,44.4C261.7,197.4,263.2,197.7,264.1,199.1z
				"/>
			<path fill="#FEE673" d="M264.1,199.1c-17.5-4.6-28.2-15.8-31.5-33.5c-2.1-11.4,0.5-22.2,7.6-31.7c8.3-10.9,19.6-16.5,33-16.6
				c20.2-0.2,37.9,14.7,41.1,35.6c3.2,20.6-11.6,42.4-32.1,46.1c0.7-5.9,1.4-11.8,2-17.8c0.2-1.5,0.7-2.2,2.4-2.1
				c2.1,0.2,4.3,0.1,6.4,0c6.8,0,11.9-4.6,12.1-11c0.2-6.2-4.4-11.5-10.4-12c-6.3-0.6-11.6,3.9-12.5,10.6c-0.3,2.1-0.5,4.2-0.7,6.3
				c-0.1,0.9,0.2,2.1-1.2,2.2c-1.4,0.1-1.8-0.7-2-1.9c-0.4-2.5-1.9-4-4.4-4.4c-2.8-0.4-4.9,1.2-5.7,4.3c-0.3,1.2-0.6,2.1-1.9,2
				c-1.5-0.1-1.2-1.3-1.3-2.2c-0.4-2.8-0.4-5.7-1.3-8.5c-2-6.2-7.4-9.6-13.2-8.3s-9.7,6.6-9.1,12.5c0.6,6,5.4,10.2,11.8,10.4
				c2.9,0.1,6.7-1.4,8.5,0.7c1.6,1.8,1.1,5.5,1.4,8.3C263.3,191.9,263.6,195.5,264.1,199.1z"/>
			<path fill="#FEE673" d="M272.8,217.7c-1.5,0.2-2.6,0-2.9-2.3c-1.2-11.3-2.6-22.6-4.1-33.8c-0.2-1.5-0.3-2.2,1.7-2.3
				c2.5-0.2,3.9-2,4.3-4.5c0.1-0.9,0.3-1.8,1.4-1.7c0.8,0.1,1,0.9,1.2,1.7c0.4,2.8,2,4.4,4.9,4.6c1.2,0.1,1.3,0.6,1.2,1.6
				c-1.5,11.7-2.9,23.4-4.3,35.1C275.9,218.1,274.4,217.6,272.8,217.7z"/>
			<path fill="#FEFEFE" d="M290.4,226.5c-16.8,0-33.6,0.1-50.5,0.1c-1.9,0-3.3-0.7-3.2-2.7c0.1-1.8,1.5-2.4,3.2-2.4
				c16.8,0,33.6,0.1,50.5,0.1C292.4,223.2,292.4,224.9,290.4,226.5z"/>
			<path fill="#0AB0CB" d="M282.1,247c-9.2-1.3-18.3-2.5-27.5-3.8c-2.1-1.8-2.4-4.3-2.5-6.9c10.7,1.5,21.3,2.9,32,4.4
				C285.5,243.5,284.2,245.3,282.1,247z"/>
			<path fill="#FEE672" d="M290.3,175.4c-5.4,0-5.4,0-4.6-5.4c0.2-1.6,0.4-3.2,0.9-4.7c1.3-3.9,4.8-5.9,8.5-5.1
				c3.7,0.8,6.4,4.2,6.2,7.9c-0.2,3.8-3.2,7-7.2,7.3C292.8,175.5,291.5,175.4,290.3,175.4z"/>
			<path fill="#FEE672" d="M255.8,175.4c-1.3,0-2.6,0.1-3.8,0c-3.8-0.4-6.7-3.4-7-7.1c-0.3-3.6,2.3-7.1,6-8c3.5-0.9,6.9,0.9,8.5,4.6
				c1.2,2.9,1.2,6,1.6,9.1c0.1,1.1-0.2,1.6-1.3,1.5C258.4,175.4,257.1,175.4,255.8,175.4L255.8,175.4z"/>
			<path fill="#0AB0CB" d="M282.6,236.3c-10.2-1.3-20.4-2.6-30.7-4c-0.5-0.6-0.5-1.1,0-1.7c11.5,0,23,0,34.6,0
				c1.4,1.5,1,3.2,0.1,4.7C285.7,236.7,284.2,236.8,282.6,236.3z"/>
			<path fill="#0AB0CB" d="M274.4,256.6c-4.1-0.1-8.2,0.7-12.3-0.4c-2-1.4-3.7-3.1-4.9-5.2c-0.6-1-1.4-2-0.7-3.2
				c7.7,0.8,15.4,1.8,23,3.2C279.5,254.1,278.7,255,274.4,256.6z"/>
			<path fill="#D4E7EE" d="M290.4,226.5c0.7-1.6,0.7-3.3,0-4.9c4.9,0,9.8-0.1,14.7-0.1c1.9,0,3.3,0.7,3.2,2.7
				c-0.1,1.8-1.5,2.4-3.2,2.4C300.2,226.6,295.3,226.5,290.4,226.5z"/>
			<path fill="#0094B6" d="M282.6,236.3c4.2,0.1,3.4-3.2,3.9-5.7c2.7,0,5.3,0,8-0.1c1.8-0.1,2.5,0.4,2.1,2.4c-1.1,5.1-1,5.2-6.1,4.6
				C287.9,237.2,285.3,236.7,282.6,236.3z"/>
			<path fill="#0094B5" d="M282.1,247c0.6-2.1,1.9-4,1.9-6.3c2.8,0.3,5.7,0.6,8.5,1c1.5,0.2,1.8,0.9,1.4,2.4
				c-1.2,4.1-1.7,4.5-5.9,3.9C286,247.6,284,247.3,282.1,247z"/>
			<path fill="#0094B5" d="M274.4,256.6c1.8-1.8,4.2-3,5.1-5.7c3,0.3,6,0.6,9.2,1C286.4,255.8,282.4,257,274.4,256.6z"/>
			<path fill="#1CCEE1" d="M256.5,247.7c1.5,2.7,3.1,5.4,5.6,7.4c0.4,0.3,0.4,0.7,0,1.1c-5.1-0.9-7.8-4.4-10-8.8
				C253.7,246.8,255.1,247.4,256.5,247.7z"/>
			<path fill="#1CCDE0" d="M252,236.3c2.3,1.8,1.7,4.6,2.5,6.9c-3,0.4-4.9-0.5-5.4-3.9C248.7,235.8,248.5,235.9,252,236.3z"/>
			<path fill="#EEEEE5" d="M267.3,260.6c3.6,0,6.8,0,10,0C274.7,264,271.1,264.1,267.3,260.6z"/>
			<path fill="#1CCCE0" d="M252,230.6c0,0.6,0,1.1,0,1.7c-2.7-0.2-2.7-0.2-4.7-1.5C249,230.3,250.5,230.4,252,230.6z"/>
			<path fill="#FEF9DB" d="M273.7,107.7c-0.3,1.7-1.6,1.8-2.9,1.8c-9.8,0.3-18.8,3.4-26.6,9.3c-4.6,3.5-8.5,7.7-11.5,12.7
				c-0.7,1.2-1.5,3.1-3.3,2c-2-1.2-0.7-2.8,0.1-4.1c9.6-14.9,23.4-22.8,41.1-23.6C272,105.6,273.5,105.6,273.7,107.7z"/>
			<path fill="#FEF8D9" d="M220.6,154.2c0.1-3.1,0.7-6.1,1.4-9.1c0.3-1.4,0.6-3.3,2.7-2.7c1.8,0.5,1.4,2,1.1,3.4
				c-0.7,3.3-1.4,6.6-1.4,10.1c0,1.3-0.1,2.8-1.8,2.8c-1.9,0.1-2-1.4-2-2.9C220.7,155.2,220.6,154.7,220.6,154.2z"/>
		</g>
	</g>
</g>
<g>
	<path fill="#FDD965" d="M265.2,39.8c71.7,0,143.4,0,215.1,0c2,0,2.5,0.3,2.5,1.9c-0.1,79.4-0.1,158.8,0,238.3
		c0,1.5-0.5,1.9-2.5,1.9c-143.4,0-286.7,0-430.1,0c-2,0-2.5-0.3-2.5-1.9c0.1-79.4,0.1-158.8,0-238.3c0-1.5,0.5-1.9,2.5-1.9
		C121.8,39.8,193.5,39.8,265.2,39.8z"/>
	<g>
		<path fill="#F7E7BC" d="M86.4,75.5v15.6H76.2V75.4L59.1,47H70l11.8,19.6L93.5,47h10L86.4,75.5z"/>
		<path fill="#F7E7BC" d="M103.2,69.1c0-13.1,10.2-22.8,24.1-22.8c13.9,0,24.1,9.6,24.1,22.8c0,13.2-10.3,22.8-24.1,22.8
			C113.4,91.9,103.2,82.2,103.2,69.1z M141.1,69.1c0-8.4-5.9-14.1-13.8-14.1s-13.8,5.7-13.8,14.1c0,8.4,5.9,14.1,13.8,14.1
			S141.1,77.5,141.1,69.1z"/>
		<path fill="#F7E7BC" d="M158.7,71.7V47h10.2v24.3c0,8.4,3.7,11.8,9.8,11.8c6.2,0,9.8-3.5,9.8-11.8V47h10.1v24.7
			c0,13-7.4,20.2-20,20.2C166.1,91.9,158.7,84.7,158.7,71.7z"/>
		<path fill="#F7E7BC" d="M217.8,49.9c0,1.6-0.3,2.8-1.6,6.3l-3.7,9.1h-6.2l2.7-10c-2-0.9-3.3-2.8-3.3-5.4c0-3.7,2.6-6,6.1-6
			C215.3,43.9,217.8,46.4,217.8,49.9z"/>
		<path fill="#F7E7BC" d="M269.3,47l-19.1,44.1h-10.1l-19-44.1h11l13.4,31.5L259.2,47H269.3z"/>
		<path fill="#F7E7BC" d="M307.1,82.9v8.2h-34.1V47h33.3v8.2h-23.2v9.6h20.5v7.9h-20.5v10.2H307.1z"/>
		<path fill="#F7E7BC" d="M362.8,68.4h9.3v17.9c-4.8,3.7-11.5,5.6-17.8,5.6c-13.9,0-24.1-9.5-24.1-22.8c0-13.3,10.2-22.8,24.2-22.8
			c7.7,0,14.2,2.6,18.5,7.6l-6.5,6c-3.2-3.4-6.9-5-11.4-5c-8.6,0-14.4,5.7-14.4,14.1c0,8.2,5.9,14.1,14.3,14.1
			c2.8,0,5.4-0.5,7.9-1.9V68.4z"/>
		<path fill="#F7E7BC" d="M378.8,69.1c0-13.1,10.2-22.8,24.1-22.8c13.9,0,24.1,9.6,24.1,22.8c0,13.2-10.3,22.8-24.1,22.8
			C389,91.9,378.8,82.2,378.8,69.1z M416.7,69.1c0-8.4-5.9-14.1-13.8-14.1c-7.9,0-13.8,5.7-13.8,14.1c0,8.4,5.9,14.1,13.8,14.1
			C410.8,83.2,416.7,77.5,416.7,69.1z"/>
		<path fill="#F7E7BC" d="M443.2,55.4h-14.1V47h38.4v8.3h-14.1v35.8h-10.2V55.4z"/>
	</g>
	<g>
		<path fill="#F7E7BC" d="M77.4,227.3H59v-10.9h50.3v10.9H90.8v46.8H77.4V227.3z"/>
		<path fill="#F7E7BC" d="M169.4,216.4v57.7H156v-23.7h-26.2v23.7h-13.4v-57.7h13.4v22.8H156v-22.8H169.4z"/>
		<path fill="#F7E7BC" d="M227.8,263.4v10.7h-44.7v-57.7h43.6v10.7h-30.4v12.5h26.8v10.4h-26.8v13.4H227.8z"/>
		<path fill="#F7E7BC" d="M261.8,216.4h13.4v57.7h-13.4V216.4z"/>
		<path fill="#F7E7BC" d="M288.8,216.4h26.2c18.9,0,31.8,11.4,31.8,28.9c0,17.5-12.9,28.9-31.8,28.9h-26.2V216.4z M314.4,263.2
			c11.5,0,19-6.8,19-17.9c0-11.1-7.5-17.9-19-17.9h-12.2v35.8H314.4z"/>
		<path fill="#F7E7BC" d="M401.7,263.4v10.7H357v-57.7h43.6v10.7h-30.4v12.5H397v10.4h-26.8v13.4H401.7z"/>
		<path fill="#F7E7BC" d="M450.3,261.8h-26.8l-5.1,12.4h-13.7l25.7-57.7h13.2l25.8,57.7h-14L450.3,261.8z M446.1,251.6l-9.2-22.1
			l-9.2,22.1H446.1z"/>
		<path fill="#F7E7BC" d="M58.6,284.4v-4.1h173v4.1H58.6z"/>
	</g>
	<g>
		<path fill="#1B2244" d="M263.8,83.9c27.5,0,50.4,18.4,55.1,45.1c3.5,19.9-2.8,36.9-17.7,50.6c-3.7,3.4-7.3,7-9.3,11.8
			c-0.8,1.9-1.3,3.3,1.9,3.2c3.2-0.1,5.5,2.6,5.4,5.8c-0.1,3.1-2.4,5.4-5.7,5.6c-4.2,0.2-4.2,0.2-5.2,4.5c-1,4.4-1.8,9-4,13.1
			c-2.2,4.1-5.3,7.2-9.8,8.6c-1.2,0.4-1.9,1-2.5,2c-4.1,6-12.2,6.1-16.3,0.1c-0.5-0.8-0.9-1.7-2-1.9c-7.2-1.6-10.6-7-12.8-13.4
			c-1.1-3.2-1.9-6.6-2.5-10c-0.4-2.7-1.6-3.4-4.2-3.2c-2.8,0.2-4.7-1.2-5.7-3.9c-1.3-3.6,1.1-7.2,5.1-7.5c1.8-0.1,2-0.6,1.6-2.2
			c-1.2-4.3-3.7-7.7-6.9-10.6c-6.1-5.5-11.3-11.5-15-18.9c-16.1-32.4,3.2-71.1,38.8-77.7C256,84.3,259.9,83.8,263.8,83.9z"/>
		<path fill="#1C2244" d="M338.1,119.2c-0.1,0.2-0.3,0.9-0.5,0.9c-1.9,0.3-2.6,1.6-3.4,3.2c-0.6,1.2-2.4,1-2.8-0.5
			c-0.4-1.4-0.8-2.2-2.3-2.4c-0.9-0.1-1.2-0.8-1.2-1.6c0-0.9,0.3-1.6,1.2-1.7c1.5-0.1,2.2-0.9,2.3-2.3c0.1-0.9,0.8-1.2,1.7-1.2
			c0.8,0,1.5,0.3,1.5,1c0.2,1.6,0.8,2.4,2.5,2.5C337.9,117.3,338.2,118.1,338.1,119.2z"/>
		<path fill="#1C2244" d="M161.2,146c0,0.7-4.7,5.5-5.2,5.5c-0.5,0-5.3-4.9-5.1-5.2c1.6-1.7,3.3-3.4,5-5.1c0,0,0.2,0,0.3,0
			C158,142.8,159.7,144.5,161.2,146z"/>
		<path fill="#1C2244" d="M207,175.3c-1.5,1.5-3.2,3.2-5,4.7c-0.4,0.4-5.3-4.6-5.2-5.3c0.1-0.7,0.4-1.3,1.1-1.4
			c1.5-0.1,2-0.9,2.4-2.3c0.4-1.5,2.6-1.8,3-0.5c0.5,1.8,1.4,2.7,3.1,3C207,173.6,207.1,174.4,207,175.3z"/>
		<path fill="#1C2244" d="M243.1,77c-0.5,0-5.3-4.9-5.1-5.2c1.6-1.7,3.2-3.5,5-5c0.4-0.4,5.4,4.6,5.2,5.3c-0.1,0.4-0.3,1.1-0.6,1.2
			c-1.8,0.3-2.8,1.2-3.1,3.1C244.5,76.9,243.7,77,243.1,77z"/>
		<path fill="#1C2244" d="M371.3,153.2c-0.5,0-5.3-4.9-5.1-5.2c1.6-1.7,3.3-3.5,5-5c0.4-0.4,5.4,4.6,5.2,5.3
			c-0.1,0.4-0.3,1.1-0.6,1.2c-1.8,0.3-2.8,1.2-3.1,3.1C372.7,153.1,372,153.2,371.3,153.2z"/>
		<path fill="#FEF9DA" d="M214.9,87.7c-0.4,1.6-1.6,2.3-2.7,1.3c-2.9-2.6-5.6-5.4-8.3-8.2c-0.6-0.7-0.6-1.6,0.1-2.3
			c0.7-0.7,1.7-0.7,2.3-0.1c2.7,2.6,5.4,5.3,8.1,8.1C214.6,86.7,214.7,87.3,214.9,87.7z"/>
		<path fill="#FEF9DA" d="M324.1,79.7c-0.1,0.7-0.4,1.2-0.9,1.7c-2.4,2.4-4.7,4.7-7.1,7c-0.9,0.8-1.9,1.5-3,0.3
			c-0.9-1-0.3-2,0.4-2.8c2.4-2.5,4.8-4.9,7.3-7.3c0.6-0.6,1.4-1,2.3-0.7C323.8,78.4,324,79,324.1,79.7z"/>
		<path fill="#FEF9DA" d="M205.1,198.6c-0.6-0.1-1.2-0.2-1.5-0.8c-0.4-0.8-0.3-1.5,0.2-2.1c2.7-2.7,5.3-5.4,8.1-8
			c0.6-0.6,1.6-0.7,2.3,0c0.7,0.6,0.7,1.4,0.2,2.1c-2.6,3.1-5.5,6-8.6,8.7C205.7,198.6,205.3,198.6,205.1,198.6z"/>
		<path fill="#FEF9DA" d="M314.6,187.2c0.2,0.1,0.6,0.2,0.9,0.4c2.7,2.7,5.4,5.3,8.1,8c0.7,0.7,0.7,1.6,0.1,2.3
			c-0.8,0.9-1.8,0.8-2.5,0.1c-2.7-2.6-5.3-5.2-7.9-7.9c-0.5-0.5-0.8-1.3-0.4-2.1C313.2,187.5,313.7,187.1,314.6,187.2z"/>
		<path fill="#FEF9DB" d="M265.4,63c0,1.6,0,3.2,0,4.8c0,1.1-0.3,2.2-1.6,2.2c-1.3,0.1-1.8-0.9-1.8-2.1c0-3.5,0-7,0-10.5
			c0-1.2,0.4-2.1,1.8-2.1c1.4,0,1.6,1.1,1.6,2.2C265.4,59.4,265.4,61.2,265.4,63z"/>
		<path fill="#FEF9DB" d="M340.9,140c-1.7,0-3.4,0-5.1,0c-1.2,0-2.1-0.4-2.1-1.8c0-1.2,0.9-1.6,1.9-1.6c3.6,0,7.2,0,10.8,0
			c1.1,0,1.9,0.4,1.9,1.6c0,1.4-0.9,1.8-2.1,1.8C344.5,140,342.7,140,340.9,140z"/>
		<path fill="#FEF9DB" d="M186.6,136.6c1.7,0,3.4,0,5.1,0c1.2,0,2.1,0.4,2.1,1.8c0,1.2-0.9,1.6-1.9,1.6c-3.6,0-7.2,0-10.8,0
			c-1.1,0-1.9-0.4-1.9-1.6c0-1.3,0.9-1.8,2.1-1.8C183,136.6,184.8,136.6,186.6,136.6z"/>
		<path fill="#1D2444" d="M284.9,73.1c0,1-3.1,4-4.1,3.9c-1,0-4-3.1-3.9-4.1c0-1,3.1-4,4.1-3.9C282,69.1,284.9,72.1,284.9,73.1z"/>
		<path fill="#1D2444" d="M195.6,119.4c0,1-3,4-4,4c-1,0-4-3-4-4c0-1,3-4,4-4C192.7,115.4,195.6,118.4,195.6,119.4z"/>
		<path fill="#1D2444" d="M220.8,207c0,1-3,4-4,4c-1,0-4-3-4-4c0-1,3-4,4-4C217.8,203,220.8,206,220.8,207z"/>
		<path fill="#1D2444" d="M300.4,219.5c0,0.9-2.9,4.1-3.9,4.1c-0.9,0-4.1-2.9-4.1-3.9c0-0.9,2.9-4,3.9-4.1
			C297.2,215.5,300.3,218.5,300.4,219.5z"/>
		<path fill="#1E2544" d="M216.1,61.5c1.8,0.1,2.9,1,3,2.8c0.1,1.8-1,2.9-2.7,2.9c-1.8,0.1-2.9-1-2.9-2.7
			C213.3,62.7,214.4,61.8,216.1,61.5z"/>
		<path fill="#1E2544" d="M305.6,69.6c-1.8-0.1-2.9-1-3-2.8c-0.1-1.8,1-2.9,2.7-2.9c1.8-0.1,2.9,1,2.9,2.7
			C308.4,68.4,307.3,69.3,305.6,69.6z"/>
		<path fill="#1E2544" d="M188.7,93.7c-1.7-0.2-2.8-1.1-2.8-2.9c0-1.8,1.1-2.8,2.8-2.8c1.8,0,2.8,1.1,2.8,2.8
			C191.6,92.6,190.5,93.4,188.7,93.7z"/>
		<path fill="#1E2544" d="M337.6,94.7c-0.3,1.9-1.2,2.9-3,2.9c-1.8-0.1-2.8-1.2-2.7-2.9c0.1-1.8,1.2-2.8,2.9-2.7
			C336.6,92,337.4,93.2,337.6,94.7z"/>
		<path fill="#1E2544" d="M348.5,157c-0.1,1.8-1,2.9-2.8,3c-1.8,0.1-2.9-0.9-2.9-2.7c-0.1-1.8,0.9-2.9,2.7-2.9
			C347.3,154.3,348.2,155.3,348.5,157z"/>
		<path fill="#1E2544" d="M180.8,161.2c-1.8-0.1-2.9-1-3-2.8c-0.1-1.8,1-2.9,2.7-2.9c1.8-0.1,2.9,1,2.9,2.7
			C183.6,160,182.5,160.9,180.8,161.2z"/>
		<path fill="#1E2544" d="M323.3,171.5c1.7,0.2,2.8,1.2,2.8,2.9c0,1.8-1.1,2.8-2.9,2.8c-1.8,0-2.8-1.1-2.8-2.9
			C320.5,172.5,321.6,171.6,323.3,171.5z"/>
		<path fill="#1E2544" d="M394.9,130.3c-0.2,1.7-1.2,2.8-2.9,2.8c-1.8,0-2.8-1.1-2.8-2.9c0-1.8,1.1-2.8,2.9-2.8
			C393.8,127.5,394.7,128.6,394.9,130.3z"/>
		<path fill="#1E2544" d="M137.8,129.8c-0.3,1.7-1.2,2.8-3,2.7c-1.8-0.1-2.8-1.2-2.7-2.9c0.1-1.8,1.2-2.8,2.9-2.7
			C136.8,126.9,137.7,128.1,137.8,129.8z"/>
		<path fill="#1E2544" d="M313,204.7c-0.3,1.9-1.2,2.9-3,2.9c-1.8-0.1-2.8-1.2-2.7-2.9c0.1-1.8,1.2-2.8,2.9-2.7
			C312,201.9,312.8,203.1,313,204.7z"/>
		<path fill="#1E2544" d="M365.1,118.8c-0.2,1.7-1,2.9-2.8,2.9c-1.8,0-2.8-1-2.9-2.8c0-1.8,1-2.8,2.8-2.9
			C363.9,115.9,364.8,117,365.1,118.8z"/>
		<path fill="#1E2544" d="M165.9,115.4c-0.2,1.7-1.2,2.8-2.9,2.8c-1.8,0-2.8-1.1-2.8-2.9c0-1.8,1.1-2.8,2.9-2.8
			C164.8,112.6,165.7,113.7,165.9,115.4z"/>
		<path fill="#1E2544" d="M235.4,224.7c1.9,0.2,3,1.1,3.1,2.9c0,1.8-1,2.8-2.8,2.9c-1.8,0-2.8-1-2.9-2.8
			C232.8,225.8,234,225,235.4,224.7z"/>
		<path fill="#FED05C" d="M256.2,177.8c0.6,4.8,1.2,9.6,1.9,14.4c0.2,1.5,0.1,2.2-1.8,2.2c-5.1-0.1-10.3-0.1-15.4,0
			c-1,0-1.7,0-1.9-1.4c-1.1-6.5-4.9-11.2-9.7-15.4c-18.3-15.9-23.3-41.2-12.4-62.6c9.2-18.1,30.4-29.8,51.4-27.5
			c22.4,2.4,38.3,13.9,45.8,35.4c6.7,19.2,0.1,41-15.5,54.4c-5,4.3-9.3,9.1-10.6,15.8c-0.2,1-0.7,1.2-1.5,1.1c-4.8,0-9.5-0.1-14.3,0
			c-1.5,0-1.7-0.7-1.5-1.9c0.7-4.9,1.3-9.8,1.9-14.7c0.9-1.3,2.3-1.6,3.7-2.1c15.6-5.4,25.8-21,24.3-37.1
			c-1.6-16.8-14.5-30.2-31.2-32.5c-18.9-2.6-37.2,10.3-40.1,30c-2.8,18.7,7.8,34,23.8,39.7C254.1,176.2,255.4,176.5,256.2,177.8z"/>
		<path fill="#FEE673" d="M256.2,177.8c-15.6-4.1-25.3-14.1-28.2-29.9c-1.9-10.2,0.4-19.9,6.8-28.4c7.4-9.8,17.5-14.8,29.5-14.8
			c18.1-0.1,33.9,13.1,36.8,31.9c2.9,18.4-10.4,37.9-28.7,41.3c0.6-5.3,1.2-10.6,1.8-15.9c0.1-1.3,0.6-2,2.1-1.9
			c1.9,0.1,3.8,0,5.7,0c6.1,0,10.6-4.1,10.8-9.8c0.2-5.5-3.9-10.3-9.3-10.7c-5.7-0.5-10.4,3.5-11.2,9.5c-0.3,1.9-0.4,3.8-0.7,5.7
			c-0.1,0.8,0.2,1.9-1.1,2c-1.2,0.1-1.6-0.6-1.8-1.7c-0.3-2.2-1.7-3.6-4-3.9c-2.5-0.4-4.4,1.1-5.1,3.9c-0.3,1.1-0.5,1.8-1.7,1.8
			c-1.3-0.1-1-1.2-1.1-1.9c-0.4-2.5-0.4-5.1-1.2-7.6c-1.8-5.5-6.6-8.6-11.9-7.4c-5.2,1.1-8.7,5.9-8.2,11.2c0.5,5.3,4.9,9.1,10.5,9.3
			c2.6,0.1,6-1.3,7.6,0.6c1.4,1.7,1,4.9,1.3,7.4C255.5,171.3,255.8,174.6,256.2,177.8z"/>
		<path fill="#FEE673" d="M264,194.4c-1.3,0.2-2.3,0-2.6-2.1c-1.1-10.1-2.4-20.2-3.6-30.3c-0.2-1.3-0.2-1.9,1.5-2.1
			c2.2-0.2,3.5-1.7,3.8-4c0.1-0.8,0.3-1.6,1.3-1.5c0.8,0.1,0.9,0.8,1,1.5c0.4,2.5,1.8,3.9,4.4,4.1c1.1,0.1,1.1,0.5,1,1.4
			c-1.3,10.5-2.6,20.9-3.8,31.4C266.8,194.8,265.5,194.3,264,194.4z"/>
		<path fill="#FEFEFE" d="M279.7,202.3c-15.1,0-30.1,0.1-45.2,0.1c-1.7,0-2.9-0.6-2.8-2.4c0.1-1.6,1.3-2.2,2.8-2.2
			c15.1,0,30.1,0.1,45.2,0.1C281.6,199.4,281.6,200.8,279.7,202.3z"/>
		<path fill="#0AB0CB" d="M272.3,220.6c-8.2-1.1-16.4-2.3-24.6-3.4c-1.9-1.6-2.2-3.9-2.3-6.2c9.5,1.3,19.1,2.6,28.6,3.9
			C275.4,217.5,274.2,219.2,272.3,220.6z"/>
		<path fill="#FEE672" d="M279.6,156.6c-4.8,0-4.8,0-4.1-4.8c0.2-1.4,0.4-2.9,0.8-4.2c1.2-3.4,4.3-5.3,7.6-4.6
			c3.3,0.7,5.7,3.8,5.5,7c-0.2,3.4-2.9,6.2-6.4,6.5C281.9,156.7,280.8,156.6,279.6,156.6z"/>
		<path fill="#FEE672" d="M248.8,156.6c-1.1,0-2.3,0.1-3.4,0c-3.4-0.3-6-3-6.3-6.3c-0.3-3.3,2.1-6.4,5.3-7.2
			c3.1-0.8,6.2,0.8,7.6,4.1c1.1,2.6,1.1,5.4,1.4,8.1c0.1,1-0.2,1.4-1.2,1.4C251.1,156.6,250,156.6,248.8,156.6
			C248.8,156.6,248.8,156.6,248.8,156.6z"/>
		<path fill="#0AB0CB" d="M272.8,211c-9.1-1.2-18.3-2.4-27.4-3.6c-0.4-0.5-0.5-1,0-1.5c10.3,0,20.6,0,30.9,0
			c1.2,1.4,0.9,2.9,0.1,4.2C275.5,211.4,274.2,211.5,272.8,211z"/>
		<path fill="#0AB0CB" d="M265.4,229.2c-3.7,0-7.4,0.6-11-0.4c-1.8-1.3-3.3-2.7-4.4-4.7c-0.5-0.9-1.2-1.8-0.6-2.9
			c6.9,0.7,13.8,1.6,20.6,2.8C270,227,269.3,227.8,265.4,229.2z"/>
		<path fill="#D4E7EE" d="M279.7,202.3c0.6-1.5,0.6-2.9,0-4.4c4.4,0,8.8-0.1,13.1-0.1c1.7,0,2.9,0.6,2.8,2.4
			c-0.1,1.6-1.3,2.2-2.8,2.2C288.5,202.4,284.1,202.3,279.7,202.3z"/>
		<path fill="#0094B6" d="M272.8,211c3.8,0.1,3.1-2.9,3.5-5.1c2.4,0,4.8,0,7.1-0.1c1.6-0.1,2.2,0.3,1.9,2.1c-1,4.6-0.9,4.7-5.5,4.2
			C277.5,211.8,275.2,211.4,272.8,211z"/>
		<path fill="#0094B5" d="M272.3,220.6c0.5-1.9,1.7-3.6,1.7-5.7c2.5,0.3,5.1,0.6,7.6,0.9c1.3,0.2,1.7,0.8,1.3,2.1
			c-1.1,3.7-1.5,4-5.3,3.5C275.8,221.2,274.1,220.9,272.3,220.6z"/>
		<path fill="#0094B5" d="M265.4,229.2c1.6-1.6,3.8-2.7,4.6-5.1c2.7,0.3,5.4,0.6,8.3,0.9C276.2,228.5,272.6,229.6,265.4,229.2z"/>
		<path fill="#1CCEE1" d="M249.4,221.3c1.4,2.4,2.8,4.8,5,6.6c0.4,0.3,0.3,0.6,0,0.9c-4.6-0.8-7-4-9-7.9
			C247,220.4,248.2,221,249.4,221.3z"/>
		<path fill="#1CCDE0" d="M245.4,211.1c2,1.6,1.5,4.1,2.3,6.2c-2.7,0.3-4.4-0.4-4.8-3.5C242.5,210.7,242.2,210.7,245.4,211.1z"/>
		<path fill="#EEEEE5" d="M259.1,232.8c3.3,0,6.1,0,9,0C265.7,235.9,262.5,236,259.1,232.8z"/>
		<path fill="#1CCCE0" d="M245.4,205.9c0,0.5,0,1,0,1.5c-2.5-0.2-2.5-0.2-4.2-1.4C242.7,205.7,244.1,205.8,245.4,205.9z"/>
		<path fill="#FEF9DB" d="M264.8,96c-0.3,1.6-1.4,1.6-2.6,1.6c-8.8,0.3-16.8,3-23.8,8.3c-4.1,3.1-7.6,6.9-10.3,11.3
			c-0.7,1.1-1.3,2.8-3,1.8c-1.8-1.1-0.7-2.5,0.1-3.7C233.8,102,246,95,261.9,94.2C263.3,94.1,264.7,94.1,264.8,96z"/>
		<path fill="#FEF8D9" d="M217.4,137.6c0.1-2.8,0.6-5.5,1.2-8.1c0.3-1.3,0.6-2.9,2.4-2.4c1.6,0.4,1.3,1.8,1,3.1
			c-0.6,3-1.3,5.9-1.2,9c0,1.2-0.1,2.5-1.6,2.5c-1.7,0.1-1.8-1.3-1.8-2.6C217.4,138.5,217.4,138.1,217.4,137.6z"/>
	</g>
</g>
<g>
	
		<linearGradient id="SVGID_6_" gradientUnits="userSpaceOnUse" x1="424.9" y1="-6.9143" x2="424.9" y2="389.0039" gradientTransform="matrix(1 0 0 -1 0 380)">
		<stop  offset="0" style="stop-color:#E1E2E2;stop-opacity:0"/>
		<stop  offset="0.3787" style="stop-color:#E5E5E5;stop-opacity:0.1136"/>
		<stop  offset="0.7159" style="stop-color:#EFF0F0;stop-opacity:0.2148"/>
		<stop  offset="1" style="stop-color:#FFFFFF;stop-opacity:0.3"/>
	</linearGradient>
	<path fill="url(#SVGID_6_)" d="M538.2,14.7c0-8-6.7-14.7-14.9-14.7H311.6l132.6,317.8h94V14.7z"/>
</g>
</svg>
