<?xml version="1.0" encoding="utf-8"?>
<!-- Generator: Adobe Illustrator 23.0.2, SVG Export Plug-In . SVG Version: 6.00 Build 0)  -->
<svg version="1.1" id="Layer_1" xmlns="http://www.w3.org/2000/svg" xmlns:xlink="http://www.w3.org/1999/xlink" x="0px" y="0px"
	 viewBox="0 0 80 36" style="enable-background:new 0 0 80 36;" xml:space="preserve">
<style type="text/css">
	.st0{fill:url(#SVGID_1_);}
	.st1{fill:url(#SVGID_2_);}
	.st2{fill:url(#SVGID_3_);}
	.st3{fill:url(#SVGID_4_);}
	.st4{fill:url(#SVGID_5_);}
	.st5{fill:url(#SVGID_6_);}
	.st6{fill:url(#SVGID_7_);}
	.st7{fill:url(#SVGID_8_);}
	.st8{fill:url(#SVGID_9_);}
	.st9{fill:url(#SVGID_10_);}
	.st10{fill:url(#SVGID_11_);}
	.st11{fill:url(#SVGID_12_);}
	.st12{fill:url(#SVGID_13_);}
	.st13{fill:url(#SVGID_14_);}
</style>
<g>
	<g>
		
			<linearGradient id="SVGID_1_" gradientUnits="userSpaceOnUse" x1="-13.0612" y1="19.7719" x2="54.4396" y2="19.7719" gradientTransform="matrix(1 0 0 -1 0 38)">
			<stop  offset="0" style="stop-color:#FFEEAA"/>
			<stop  offset="0.0665" style="stop-color:#FFF2BD"/>
			<stop  offset="0.1762" style="stop-color:#FFF7D5"/>
			<stop  offset="0.3004" style="stop-color:#FFFAE8"/>
			<stop  offset="0.4458" style="stop-color:#FFFDF5"/>
			<stop  offset="0.6321" style="stop-color:#FFFFFD"/>
			<stop  offset="1" style="stop-color:#FFFFFF"/>
		</linearGradient>
		<polygon class="st0" points="0.64,11.05 0.64,25.4 1.62,25.4 1.62,14.17 7.99,23.16 14.27,14.19 14.27,25.4 15.25,25.4 
			15.25,11.05 7.99,21.44 		"/>
	</g>
	<g>
		
			<linearGradient id="SVGID_2_" gradientUnits="userSpaceOnUse" x1="8.2205" y1="19.9045" x2="74.3495" y2="19.9045" gradientTransform="matrix(1 0 0 -1 0 38)">
			<stop  offset="0" style="stop-color:#FFEEAA"/>
			<stop  offset="0.0665" style="stop-color:#FFF2BD"/>
			<stop  offset="0.1762" style="stop-color:#FFF7D5"/>
			<stop  offset="0.3004" style="stop-color:#FFFAE8"/>
			<stop  offset="0.4458" style="stop-color:#FFFDF5"/>
			<stop  offset="0.6321" style="stop-color:#FFFFFD"/>
			<stop  offset="1" style="stop-color:#FFFFFF"/>
		</linearGradient>
		<path class="st1" d="M34.47,21.57c0.61-1.06,0.92-2.22,0.92-3.47c0-1.25-0.3-2.41-0.92-3.47c-0.61-1.06-1.44-1.9-2.5-2.52
			c-1.06-0.62-2.2-0.93-3.44-0.93c-1.24,0-2.38,0.31-3.44,0.93c-1.06,0.62-1.89,1.46-2.5,2.52c-0.61,1.06-0.92,2.22-0.92,3.47
			c0,1.25,0.3,2.41,0.92,3.47c0.61,1.06,1.44,1.9,2.5,2.52c1.06,0.62,2.2,0.93,3.44,0.93c1.24,0,2.38-0.31,3.44-0.93
			C33.03,23.47,33.86,22.63,34.47,21.57z"/>
	</g>
	<g>
		
			<linearGradient id="SVGID_3_" gradientUnits="userSpaceOnUse" x1="42.4866" y1="19.7719" x2="106.5896" y2="19.7719" gradientTransform="matrix(1 0 0 -1 0 38)">
			<stop  offset="0" style="stop-color:#FFEEAA"/>
			<stop  offset="0.0665" style="stop-color:#FFF2BD"/>
			<stop  offset="0.1762" style="stop-color:#FFF7D5"/>
			<stop  offset="0.3004" style="stop-color:#FFFAE8"/>
			<stop  offset="0.4458" style="stop-color:#FFFDF5"/>
			<stop  offset="0.6321" style="stop-color:#FFFFFD"/>
			<stop  offset="1" style="stop-color:#FFFFFF"/>
		</linearGradient>
		<polygon class="st2" points="56.36,13.54 68.84,25.29 68.84,11.21 67.79,11.21 67.79,22.9 55.31,11.16 55.31,25.18 56.36,25.18 		
			"/>
	</g>
	<g>
		
			<linearGradient id="SVGID_4_" gradientUnits="userSpaceOnUse" x1="24.5582" y1="19.9203" x2="90.6929" y2="19.9203" gradientTransform="matrix(1 0 0 -1 0 38)">
			<stop  offset="0" style="stop-color:#FFEEAA"/>
			<stop  offset="0.0665" style="stop-color:#FFF2BD"/>
			<stop  offset="0.1762" style="stop-color:#FFF7D5"/>
			<stop  offset="0.3004" style="stop-color:#FFFAE8"/>
			<stop  offset="0.4458" style="stop-color:#FFFDF5"/>
			<stop  offset="0.6321" style="stop-color:#FFFFFD"/>
			<stop  offset="1" style="stop-color:#FFFFFF"/>
		</linearGradient>
		<path class="st3" d="M47.57,13.17c-0.86-0.5-1.81-0.76-2.82-0.76c-1.01,0-1.95,0.26-2.82,0.76s-1.55,1.2-2.05,2.07
			c-0.5,0.87-0.75,1.82-0.75,2.84s0.25,1.97,0.75,2.84c0.5,0.87,1.19,1.56,2.05,2.07c0.86,0.5,1.81,0.76,2.82,0.76
			c1.01,0,1.95-0.26,2.82-0.76c0.86-0.5,1.55-1.2,2.05-2.07c0.5-0.87,0.75-1.82,0.75-2.84c0-1.02-0.25-1.97-0.75-2.84
			C49.11,14.37,48.43,13.68,47.57,13.17z M48.85,20.48c-0.42,0.73-1,1.31-1.73,1.74c-0.72,0.43-1.52,0.65-2.38,0.65
			c-0.85,0-1.65-0.22-2.38-0.65s-1.31-1.01-1.73-1.74c-0.43-0.73-0.65-1.54-0.65-2.4s0.22-1.67,0.65-2.4s1.01-1.31,1.73-1.74
			s1.52-0.65,2.38-0.65c0.85,0,1.65,0.22,2.38,0.65c0.72,0.43,1.3,1.01,1.73,1.74c0.42,0.73,0.64,1.54,0.64,2.4
			C49.49,18.94,49.27,19.75,48.85,20.48z"/>
	</g>
	<g>
		
			<linearGradient id="SVGID_5_" gradientUnits="userSpaceOnUse" x1="-7.5067" y1="8.1098" x2="83.9887" y2="8.1098" gradientTransform="matrix(1 0 0 -1 0 38)">
			<stop  offset="0" style="stop-color:#FFEEAA"/>
			<stop  offset="0.0665" style="stop-color:#FFF2BD"/>
			<stop  offset="0.1762" style="stop-color:#FFF7D5"/>
			<stop  offset="0.3004" style="stop-color:#FFFAE8"/>
			<stop  offset="0.4458" style="stop-color:#FFFDF5"/>
			<stop  offset="0.6321" style="stop-color:#FFFFFD"/>
			<stop  offset="1" style="stop-color:#FFFFFF"/>
		</linearGradient>
		<path class="st4" d="M42.12,26.18c-1.42,2.45-3.38,4.42-5.81,5.86c-1.94,1.15-4.04,1.84-6.27,2.08l-0.65,1.04
			c2.65-0.16,5.14-0.92,7.42-2.27c2.58-1.53,4.65-3.62,6.15-6.21c0.39-0.67,0.72-1.36,1.01-2.06h-1.07
			C42.68,25.15,42.41,25.67,42.12,26.18z"/>
	</g>
	<g>
		
			<linearGradient id="SVGID_6_" gradientUnits="userSpaceOnUse" x1="5.5503" y1="31.8001" x2="192.2405" y2="31.8001" gradientTransform="matrix(1 0 0 -1 0 38)">
			<stop  offset="0" style="stop-color:#FFEEAA"/>
			<stop  offset="0.0665" style="stop-color:#FFF2BD"/>
			<stop  offset="0.1762" style="stop-color:#FFF7D5"/>
			<stop  offset="0.3004" style="stop-color:#FFFAE8"/>
			<stop  offset="0.4458" style="stop-color:#FFFDF5"/>
			<stop  offset="0.6321" style="stop-color:#FFFFFD"/>
			<stop  offset="1" style="stop-color:#FFFFFF"/>
		</linearGradient>
		<path class="st5" d="M36.31,4.15c2.43,1.44,4.38,3.41,5.81,5.86c0.27,0.46,0.5,0.92,0.72,1.39h1.08
			c-0.27-0.65-0.59-1.27-0.94-1.88l0,0c-1.51-2.6-3.58-4.69-6.15-6.21C34.23,1.78,31.37,1,28.32,1s-5.91,0.78-8.5,2.3
			c-1.85,1.1-3.44,2.48-4.75,4.14v1.67c1.37-2.03,3.13-3.7,5.26-4.96c2.43-1.44,5.12-2.16,7.99-2.16
			C31.2,1.99,33.88,2.71,36.31,4.15z"/>
	</g>
	<g>
		
			<linearGradient id="SVGID_7_" gradientUnits="userSpaceOnUse" x1="27.4127" y1="8.0069" x2="69.0323" y2="8.0069" gradientTransform="matrix(1 0 0 -1 0 38)">
			<stop  offset="0" style="stop-color:#FFEEAA"/>
			<stop  offset="0.0665" style="stop-color:#FFF2BD"/>
			<stop  offset="0.1762" style="stop-color:#FFF7D5"/>
			<stop  offset="0.3004" style="stop-color:#FFFAE8"/>
			<stop  offset="0.4458" style="stop-color:#FFFDF5"/>
			<stop  offset="0.6321" style="stop-color:#FFFFFD"/>
			<stop  offset="1" style="stop-color:#FFFFFF"/>
		</linearGradient>
		<polygon class="st6" points="47.02,28.15 46.4,28.15 46.4,31.83 48.69,31.83 48.69,31.21 47.02,31.21 		"/>
	</g>
	<g>
		
			<linearGradient id="SVGID_8_" gradientUnits="userSpaceOnUse" x1="45.5508" y1="8.0069" x2="56.8562" y2="8.0069" gradientTransform="matrix(1 0 0 -1 0 38)">
			<stop  offset="0" style="stop-color:#FFEEAA"/>
			<stop  offset="0.0665" style="stop-color:#FFF2BD"/>
			<stop  offset="0.1762" style="stop-color:#FFF7D5"/>
			<stop  offset="0.3004" style="stop-color:#FFFAE8"/>
			<stop  offset="0.4458" style="stop-color:#FFFDF5"/>
			<stop  offset="0.6321" style="stop-color:#FFFFFD"/>
			<stop  offset="1" style="stop-color:#FFFFFF"/>
		</linearGradient>
		<rect x="50.7" y="28.15" class="st7" width="0.62" height="3.68"/>
	</g>
	<g>
		
			<linearGradient id="SVGID_9_" gradientUnits="userSpaceOnUse" x1="27.2491" y1="8.0405" x2="84.4286" y2="8.0405" gradientTransform="matrix(1 0 0 -1 0 38)">
			<stop  offset="0" style="stop-color:#FFEEAA"/>
			<stop  offset="0.0665" style="stop-color:#FFF2BD"/>
			<stop  offset="0.1762" style="stop-color:#FFF7D5"/>
			<stop  offset="0.3004" style="stop-color:#FFFAE8"/>
			<stop  offset="0.4458" style="stop-color:#FFFDF5"/>
			<stop  offset="0.6321" style="stop-color:#FFFFFD"/>
			<stop  offset="1" style="stop-color:#FFFFFF"/>
		</linearGradient>
		<path class="st8" d="M54.95,30.43h0.87v0.78h-0.74c-0.22,0-0.42-0.06-0.6-0.17c-0.18-0.11-0.33-0.26-0.44-0.45
			c-0.11-0.19-0.16-0.39-0.16-0.62c0-0.22,0.06-0.43,0.16-0.62c0.11-0.19,0.25-0.34,0.44-0.45c0.18-0.11,0.38-0.17,0.6-0.17
			c0.17,0,0.32,0.03,0.48,0.1c0.15,0.07,0.29,0.16,0.4,0.29l0.46-0.42c-0.17-0.19-0.37-0.34-0.61-0.45
			c-0.23-0.1-0.48-0.16-0.73-0.16c-0.33,0-0.63,0.08-0.91,0.25c-0.28,0.17-0.5,0.39-0.66,0.68s-0.25,0.59-0.25,0.93
			c0,0.34,0.08,0.65,0.25,0.93c0.16,0.28,0.38,0.51,0.66,0.68c0.28,0.17,0.58,0.25,0.91,0.25h1.36v-2.03h-1.48L54.95,30.43
			L54.95,30.43z"/>
	</g>
	<g>
		
			<linearGradient id="SVGID_10_" gradientUnits="userSpaceOnUse" x1="35.8177" y1="8.0069" x2="85.6523" y2="8.0069" gradientTransform="matrix(1 0 0 -1 0 38)">
			<stop  offset="0" style="stop-color:#FFEEAA"/>
			<stop  offset="0.0665" style="stop-color:#FFF2BD"/>
			<stop  offset="0.1762" style="stop-color:#FFF7D5"/>
			<stop  offset="0.3004" style="stop-color:#FFFAE8"/>
			<stop  offset="0.4458" style="stop-color:#FFFDF5"/>
			<stop  offset="0.6321" style="stop-color:#FFFFFD"/>
			<stop  offset="1" style="stop-color:#FFFFFF"/>
		</linearGradient>
		<polygon class="st9" points="60.61,28.15 60.61,29.67 59.09,29.67 59.09,28.15 58.48,28.15 58.48,31.83 59.09,31.83 59.09,30.3 
			60.61,30.3 60.61,31.83 61.24,31.83 61.23,28.15 		"/>
	</g>
	<g>
		
			<linearGradient id="SVGID_11_" gradientUnits="userSpaceOnUse" x1="40.042" y1="8.0069" x2="90.6662" y2="8.0069" gradientTransform="matrix(1 0 0 -1 0 38)">
			<stop  offset="0" style="stop-color:#FFEEAA"/>
			<stop  offset="0.0665" style="stop-color:#FFF2BD"/>
			<stop  offset="0.1762" style="stop-color:#FFF7D5"/>
			<stop  offset="0.3004" style="stop-color:#FFFAE8"/>
			<stop  offset="0.4458" style="stop-color:#FFFDF5"/>
			<stop  offset="0.6321" style="stop-color:#FFFFFD"/>
			<stop  offset="1" style="stop-color:#FFFFFF"/>
		</linearGradient>
		<polygon class="st10" points="63.04,28.79 64.12,28.79 64.12,31.83 64.74,31.83 64.74,28.79 65.83,28.79 65.83,28.15 63.04,28.15 
					"/>
	</g>
	<g>
		
			<linearGradient id="SVGID_12_" gradientUnits="userSpaceOnUse" x1="48.8263" y1="8.0069" x2="90.3225" y2="8.0069" gradientTransform="matrix(1 0 0 -1 0 38)">
			<stop  offset="0" style="stop-color:#FFEEAA"/>
			<stop  offset="0.0665" style="stop-color:#FFF2BD"/>
			<stop  offset="0.1762" style="stop-color:#FFF7D5"/>
			<stop  offset="0.3004" style="stop-color:#FFFAE8"/>
			<stop  offset="0.4458" style="stop-color:#FFFDF5"/>
			<stop  offset="0.6321" style="stop-color:#FFFFFD"/>
			<stop  offset="1" style="stop-color:#FFFFFF"/>
		</linearGradient>
		<polygon class="st11" points="67.66,31.83 69.95,31.83 69.95,31.21 68.28,31.21 68.28,30.3 69.54,30.3 69.54,29.67 68.28,29.67 
			68.28,28.79 69.95,28.79 69.95,28.15 67.66,28.15 		"/>
	</g>
	<g>
		
			<linearGradient id="SVGID_13_" gradientUnits="userSpaceOnUse" x1="50.4654" y1="8.0069" x2="97.7276" y2="8.0069" gradientTransform="matrix(1 0 0 -1 0 38)">
			<stop  offset="0" style="stop-color:#FFEEAA"/>
			<stop  offset="0.0665" style="stop-color:#FFF2BD"/>
			<stop  offset="0.1762" style="stop-color:#FFF7D5"/>
			<stop  offset="0.3004" style="stop-color:#FFFAE8"/>
			<stop  offset="0.4458" style="stop-color:#FFFDF5"/>
			<stop  offset="0.6321" style="stop-color:#FFFFFD"/>
			<stop  offset="1" style="stop-color:#FFFFFF"/>
		</linearGradient>
		<path class="st12" d="M73.59,30.32c0.09-0.02,0.16-0.04,0.23-0.07c0.18-0.07,0.34-0.19,0.46-0.34c0.14-0.19,0.21-0.4,0.21-0.63
			c0-0.15-0.03-0.29-0.09-0.43c-0.06-0.13-0.15-0.26-0.27-0.36c-0.12-0.11-0.25-0.19-0.41-0.25c-0.15-0.06-0.32-0.09-0.5-0.09H71.9
			l0,3.68h0.62v-1.62l1.22,1.62h0.77l-1.1-1.48C73.45,30.34,73.51,30.34,73.59,30.32z M72.52,29.77v-0.99h0.7
			c0.21,0,0.38,0.06,0.49,0.17c0.1,0.09,0.15,0.2,0.15,0.32c0,0.09-0.03,0.17-0.09,0.25s-0.13,0.13-0.21,0.16
			c-0.13,0.06-0.3,0.09-0.52,0.09C73.06,29.77,72.52,29.77,72.52,29.77z"/>
	</g>
	<g>
		
			<linearGradient id="SVGID_14_" gradientUnits="userSpaceOnUse" x1="54.4325" y1="8.0148" x2="102.7073" y2="8.0148" gradientTransform="matrix(1 0 0 -1 0 38)">
			<stop  offset="0" style="stop-color:#FFEEAA"/>
			<stop  offset="0.0665" style="stop-color:#FFF2BD"/>
			<stop  offset="0.1762" style="stop-color:#FFF7D5"/>
			<stop  offset="0.3004" style="stop-color:#FFFAE8"/>
			<stop  offset="0.4458" style="stop-color:#FFFDF5"/>
			<stop  offset="0.6321" style="stop-color:#FFFFFD"/>
			<stop  offset="1" style="stop-color:#FFFFFF"/>
		</linearGradient>
		<path class="st13" d="M78.83,30.26c-0.1-0.16-0.25-0.29-0.43-0.4c-0.16-0.08-0.4-0.14-0.73-0.19c-0.11-0.02-0.2-0.03-0.28-0.04
			c-0.08-0.02-0.15-0.04-0.21-0.06c-0.09-0.04-0.16-0.09-0.21-0.16c-0.05-0.07-0.08-0.14-0.08-0.21c0-0.1,0.06-0.2,0.18-0.3
			c0.08-0.05,0.16-0.09,0.26-0.12c0.1-0.03,0.2-0.04,0.3-0.04s0.2,0.02,0.3,0.04c0.1,0.03,0.18,0.07,0.26,0.12
			c0.12,0.09,0.18,0.19,0.18,0.29l0.56-0.32c-0.07-0.19-0.19-0.34-0.37-0.47c-0.13-0.09-0.27-0.17-0.43-0.21
			c-0.16-0.05-0.32-0.08-0.5-0.08s-0.34,0.02-0.5,0.08c-0.16,0.05-0.3,0.12-0.43,0.21c-0.13,0.1-0.24,0.23-0.32,0.36
			c-0.08,0.14-0.11,0.28-0.11,0.44c0,0.19,0.06,0.38,0.17,0.54c0.11,0.17,0.27,0.3,0.46,0.39c0.15,0.08,0.38,0.13,0.68,0.16
			c0.27,0.03,0.44,0.07,0.52,0.12c0.08,0.04,0.15,0.1,0.19,0.16c0.05,0.06,0.07,0.13,0.07,0.19c0,0.1-0.06,0.2-0.18,0.3
			c-0.08,0.05-0.16,0.09-0.26,0.12c-0.1,0.03-0.2,0.04-0.3,0.04c-0.1,0-0.2-0.02-0.3-0.04c-0.1-0.03-0.18-0.07-0.26-0.12
			c-0.04-0.03-0.08-0.07-0.12-0.12c-0.04-0.05-0.06-0.1-0.06-0.16l-0.55,0.32c0.07,0.18,0.19,0.34,0.36,0.47
			c0.13,0.09,0.27,0.17,0.43,0.21c0.16,0.05,0.32,0.08,0.5,0.08c0.17,0,0.34-0.02,0.5-0.08c0.16-0.05,0.3-0.12,0.43-0.21
			c0.14-0.1,0.25-0.23,0.32-0.36c0.08-0.14,0.11-0.28,0.11-0.44C78.99,30.59,78.94,30.42,78.83,30.26z"/>
	</g>
</g>
</svg>
