<svg width="325px" height="60px" xmlns="http://www.w3.org/2000/svg" x="0px" y="0px" viewBox="0 0 325 60">
<ellipse fill="#FCEE21" cx="28.5" cy="29.9" rx="26.6" ry="27.2"/>
<g>
	<g opacity="0.52">
		<g>
			<path d="M94.5,24.8c1.8,1.5,2.8,4.2,2.8,7.9v9.8c0,1.5-0.8,2.2-2.2,2.2h-3c-1.5,0-2.2-0.8-2.2-2.2V32.4c0-2.6-1-3.7-3.3-3.7
				c-2.3,0-3.2,1.1-3.2,3.7v10.1c0,1.5-0.8,2.2-2.2,2.2h-2.9c-1.5,0-2.2-0.8-2.2-2.2V32.4c0-2.6-0.9-3.7-3.1-3.7
				c-2.3,0-3.3,1.1-3.3,3.7v10.1c0,1.5-0.8,2.2-2.2,2.2h-3c-1.5,0-2.2-0.8-2.2-2.2v-9.8c0-3.7,1-6.4,2.8-7.9
				c1.8-1.5,4.2-2.2,7.3-2.2c3.6,0,6.1,0.9,7.5,2.7c1.4-1.8,3.9-2.7,7.5-2.7C90.4,22.7,92.7,23.3,94.5,24.8z"/>
		</g>
		<g>
			<path d="M100.7,33.9c0-7.2,4-11.2,11.6-11.2c7.5,0,11.6,4,11.6,11.2c0,7.2-4.1,11.2-11.6,11.2C104.7,45.1,100.7,41.1,100.7,33.9z
				 M112.3,39.1c1.3,0,2.3-0.4,2.9-1.2c0.6-0.8,0.9-2.1,0.9-4c0-3.7-1.2-5.2-3.8-5.2c-2.6,0-3.8,1.5-3.8,5.2c0,1.8,0.3,3.1,0.9,4
				C110,38.7,110.9,39.1,112.3,39.1z"/>
		</g>
		<g>
			<path d="M126.8,33.9c0-7.2,4-11.2,11.6-11.2c7.5,0,11.6,4,11.6,11.2c0,7.2-4.1,11.2-11.6,11.2C130.9,45.1,126.8,41.1,126.8,33.9z
				 M138.4,39.1c1.3,0,2.3-0.4,2.9-1.2c0.6-0.8,0.9-2.1,0.9-4c0-3.7-1.2-5.2-3.8-5.2c-2.6,0-3.8,1.5-3.8,5.2c0,1.8,0.3,3.1,0.9,4
				C136.2,38.7,137.1,39.1,138.4,39.1z"/>
		</g>
		<g>
			<path d="M173.1,24.8c2,1.5,2.9,4.2,2.9,8.1v9.7c0,1.5-0.8,2.2-2.2,2.2h-3.2c-1.5,0-2.2-0.8-2.2-2.2v-9.8c0-1.5-0.3-2.5-0.8-3.1
				c-0.5-0.6-1.5-0.9-2.8-0.9c-1.3,0-2.3,0.3-2.8,0.8c-0.6,0.6-0.8,1.6-0.8,3.1v9.8c0,1.5-0.8,2.2-2.2,2.2h-3.2
				c-1.5,0-2.2-0.8-2.2-2.2v-9.7c0-3.9,1-6.5,3-8.1c2-1.5,4.6-2.1,8.3-2.1C168.5,22.7,171.1,23.3,173.1,24.8z"/>
		</g>
		<g>
			<path d="M181.8,15c0-0.6,0.3-1,1-1h0.2c0.6,0,1,0.3,1,1v28.7c0,0.6-0.3,1-1,1h-0.2c-0.6,0-1-0.3-1-1V15z"/>
		</g>
		<g>
			<path d="M192.7,19.2c-1,0-1.5-0.5-1.5-1.6c0-1,0.5-1.6,1.5-1.6c1,0,1.5,0.5,1.5,1.6C194.2,18.7,193.7,19.2,192.7,19.2z
				 M192.6,44.7c-0.6,0-1-0.3-1-1V24.5c0-0.6,0.3-1,1-1h0.2c0.6,0,1,0.3,1,1v19.2c0,0.6-0.3,1-1,1H192.6z"/>
		</g>
		<g>
			<path d="M217.3,24.7c1.1,1.1,1.5,2.4,1.5,4.4v17.1c0,2.5-0.8,4.4-2.4,5.7c-1.6,1.3-3.7,2-6.3,2c-1.8,0-3.7-0.3-5.8-1
				c-0.5-0.2-0.8-0.5-0.8-1.1v0c0-0.7,0.4-1,1.1-0.8c2,0.6,3.8,0.9,5.4,0.9c4,0,6.6-1.9,6.6-5.7v-1.5c-1.9,0.3-3.7,0.5-5.3,0.4
				c-3.6,0-6.2-0.9-8.1-2.6c-1.8-1.7-2.7-4.5-2.7-8.4c0-3.9,0.9-6.7,2.7-8.4c1.8-1.7,4.5-2.6,8.1-2.6
				C214.2,23.2,216.2,23.7,217.3,24.7z M216.6,42.6V29.3c0-1.4-0.2-2.1-0.9-3c-0.7-0.8-2.2-1.2-4.5-1.2c-2.9,0-5.1,0.7-6.5,2.1
				c-1.4,1.4-2.1,3.7-2.1,6.9c0,3.2,0.7,5.5,2.1,6.9c1.4,1.4,3.5,2.1,6.5,2.1C212.8,43.1,214.6,43,216.6,42.6z"/>
		</g>
		<g>
			<path d="M241.1,25.7c1.8,1.7,2.7,4.5,2.7,8.4v9.6c0,0.6-0.3,1-1,1h-0.2c-0.6,0-1-0.3-1-1v-9.6c0-3.2-0.7-5.5-2.1-6.9
				c-1.4-1.4-3.6-2.1-6.5-2.1c-1.6,0-3.4,0.2-5.3,0.5v18.1c0,0.6-0.3,1-1,1h-0.2c-0.6,0-1-0.3-1-1V15c0-0.6,0.3-1,1-1h0.2
				c0.6,0,1,0.3,1,1v8.6c2-0.3,3.8-0.4,5.3-0.4C236.7,23.2,239.3,24,241.1,25.7z"/>
		</g>
		<g>
			<path d="M262.1,24.6c0,0.6-0.3,1-1,1h-8.3v12.1c0,3.7,1.7,5.5,5,5.5c0.7,0,1.5-0.1,2.2-0.2c0.7-0.1,1.1-0.2,1.2-0.2
				c0.6,0,0.9,0.2,0.9,0.7v0.3c0,0.5-0.2,0.8-0.7,0.9c-5.8,1.7-10.6-0.1-10.6-6.9V19.4c0-0.6,0.3-1,1-1h0.2c0.6,0,1,0.3,1,1v4.2h8.3
				C261.8,23.6,262.1,23.9,262.1,24.6L262.1,24.6z"/>
		</g>
		<g>
			<path d="M283.4,33.5c-0.7,0.7-2.1,1.1-3.9,1.3L268.6,36c0.5,4.7,3.4,7.1,7.8,7.1c1.6,0,3.4-0.3,5.2-0.9c0.7-0.2,1.1,0,1.1,0.6V43
				c0,0.6-0.3,0.9-0.8,1.1c-2.1,0.7-4,1-5.8,1c-3,0-5.4-0.9-7.2-2.8c-1.8-1.9-2.7-4.6-2.7-8.1c0-3.5,0.8-6.2,2.5-8.1
				c1.6-1.9,4-2.9,7.1-2.9c2.6,0,4.7,0.7,6.2,2c1.5,1.3,2.3,3.1,2.3,5.3C284.5,31.8,284.1,32.9,283.4,33.5z M279.1,32.9
				c2.5-0.3,3.3-1,3.3-2.6c0-1.6-0.6-2.8-1.7-3.8c-1.1-0.9-2.7-1.4-4.7-1.4c-4.8,0-7.5,3-7.5,8.9L279.1,32.9z"/>
		</g>
		<g>
			<path d="M300.8,24.3L300.8,24.3c0,0.7-0.3,1-1,1c-4,0.1-5.7,0.3-6.5,1c-0.5,0.5-0.6,1-0.6,2v15.4c0,0.6-0.3,1-1,1h-0.2
				c-0.6,0-1-0.3-1-1V28.1c0-2.1,0.4-3.3,2.5-4.1c1.4-0.4,3.5-0.7,6.8-0.7C300.5,23.4,300.8,23.7,300.8,24.3z"/>
		</g>
		<g>
			<path d="M304.7,42.9L304.7,42.9c0-0.7,0.4-1,1.1-0.8c3,0.9,6,1.2,8.4,0.9c2.4-0.3,4-1.6,4-3.7c0-2-1.3-3.2-4.5-4.2l-4-1.1
				c-3.5-1-5.2-2.8-5.2-5.4c0-2.6,1.8-4.4,4.4-5c2.6-0.6,5.9-0.4,9.3,0.5c0.5,0.2,0.8,0.5,0.8,1.1c0,0.7-0.4,1-1.1,0.8
				c-2.6-0.7-5.3-1-7.5-0.6c-2.2,0.3-3.7,1.5-3.7,3.2c0,1.6,1.2,2.8,3.5,3.5l4.1,1.2c4.2,1.2,6,3.1,6,6c0,2.9-2,4.9-4.9,5.6
				c-2.9,0.7-6.5,0.4-10-0.8C305,43.8,304.7,43.4,304.7,42.9z"/>
		</g>
	</g>
	<g>
		<path fill="#00FFFF" d="M93.4,23.3c1.8,1.5,2.8,4.2,2.8,7.9v9.8c0,1.5-0.8,2.2-2.2,2.2h-3c-1.5,0-2.2-0.8-2.2-2.2V30.8
			c0-2.6-1-3.7-3.3-3.7c-2.3,0-3.2,1.1-3.2,3.7v10.1c0,1.5-0.8,2.2-2.2,2.2h-2.9c-1.5,0-2.2-0.8-2.2-2.2V30.8c0-2.6-0.9-3.7-3.1-3.7
			c-2.3,0-3.3,1.1-3.3,3.7v10.1c0,1.5-0.8,2.2-2.2,2.2h-3c-1.5,0-2.2-0.8-2.2-2.2v-9.8c0-3.7,1-6.4,2.8-7.9c1.8-1.5,4.2-2.2,7.3-2.2
			c3.6,0,6.1,0.9,7.5,2.7c1.4-1.8,3.9-2.7,7.5-2.7C89.3,21.1,91.6,21.7,93.4,23.3z"/>
		<path fill="#00FFFF" d="M99.6,32.3c0-7.2,4-11.2,11.6-11.2c7.5,0,11.6,4,11.6,11.2c0,7.2-4.1,11.2-11.6,11.2
			C103.6,43.5,99.6,39.5,99.6,32.3z M111.2,37.5c1.3,0,2.3-0.4,2.9-1.2c0.6-0.8,0.9-2.1,0.9-4c0-3.7-1.2-5.2-3.8-5.2
			c-2.6,0-3.8,1.5-3.8,5.2c0,1.8,0.3,3.1,0.9,4C108.9,37.1,109.9,37.5,111.2,37.5z"/>
		<path fill="#00FFFF" d="M125.8,32.3c0-7.2,4-11.2,11.6-11.2c7.5,0,11.6,4,11.6,11.2c0,7.2-4.1,11.2-11.6,11.2
			C129.8,43.5,125.8,39.5,125.8,32.3z M137.4,37.5c1.3,0,2.3-0.4,2.9-1.2c0.6-0.8,0.9-2.1,0.9-4c0-3.7-1.2-5.2-3.8-5.2
			c-2.6,0-3.8,1.5-3.8,5.2c0,1.8,0.3,3.1,0.9,4C135.1,37.1,136.1,37.5,137.4,37.5z"/>
		<path fill="#00FFFF" d="M172,23.2c2,1.5,2.9,4.2,2.9,8.1v9.7c0,1.5-0.8,2.2-2.2,2.2h-3.2c-1.5,0-2.2-0.8-2.2-2.2v-9.8
			c0-1.5-0.3-2.5-0.8-3.1c-0.5-0.6-1.5-0.9-2.8-0.9c-1.3,0-2.3,0.3-2.8,0.8c-0.6,0.6-0.8,1.6-0.8,3.1v9.8c0,1.5-0.8,2.2-2.2,2.2
			h-3.2c-1.5,0-2.2-0.8-2.2-2.2v-9.7c0-3.9,1-6.5,3-8.1c2-1.5,4.6-2.1,8.3-2.1C167.4,21.1,170,21.7,172,23.2z"/>
		<g>
			<path fill="#CCCCCC" d="M180.7,13.4c0-0.6,0.3-1,1-1h0.2c0.6,0,1,0.3,1,1v28.7c0,0.6-0.3,1-1,1h-0.2c-0.6,0-1-0.3-1-1V13.4z"/>
		</g>
		<g>
			<path fill="#CCCCCC" d="M191.7,17.6c-1,0-1.5-0.5-1.5-1.6c0-1,0.5-1.6,1.5-1.6c1,0,1.5,0.5,1.5,1.6
				C193.1,17.1,192.7,17.6,191.7,17.6z M191.6,43.1c-0.6,0-1-0.3-1-1V22.9c0-0.6,0.3-1,1-1h0.2c0.6,0,1,0.3,1,1v19.2
				c0,0.6-0.3,1-1,1H191.6z"/>
		</g>
		<g>
			<path fill="#CCCCCC" d="M216.2,23.2c1.1,1.1,1.5,2.4,1.5,4.4v17.1c0,2.5-0.8,4.4-2.4,5.7c-1.6,1.3-3.7,2-6.3,2
				c-1.8,0-3.7-0.3-5.8-1c-0.5-0.2-0.8-0.5-0.8-1.1v0c0-0.7,0.4-1,1.1-0.8c2,0.6,3.8,0.9,5.4,0.9c4,0,6.6-1.9,6.6-5.7v-1.5
				c-1.9,0.3-3.7,0.5-5.3,0.4c-3.6,0-6.2-0.9-8.1-2.6c-1.8-1.7-2.7-4.5-2.7-8.4c0-3.9,0.9-6.7,2.7-8.4c1.8-1.7,4.5-2.6,8.1-2.6
				C213.2,21.6,215.1,22.1,216.2,23.2z M215.6,41V27.7c0-1.4-0.2-2.1-0.9-3c-0.7-0.8-2.2-1.2-4.5-1.2c-2.9,0-5.1,0.7-6.5,2.1
				c-1.4,1.4-2.1,3.7-2.1,6.9c0,3.2,0.7,5.5,2.1,6.9c1.4,1.4,3.5,2.1,6.5,2.1C211.7,41.5,213.5,41.4,215.6,41z"/>
		</g>
		<g>
			<path fill="#CCCCCC" d="M240.1,24.1c1.8,1.7,2.7,4.5,2.7,8.4v9.6c0,0.6-0.3,1-1,1h-0.2c-0.6,0-1-0.3-1-1v-9.6
				c0-3.2-0.7-5.5-2.1-6.9c-1.4-1.4-3.6-2.1-6.5-2.1c-1.6,0-3.4,0.2-5.3,0.5v18.1c0,0.6-0.3,1-1,1h-0.2c-0.6,0-1-0.3-1-1V13.4
				c0-0.6,0.3-1,1-1h0.2c0.6,0,1,0.3,1,1V22c2-0.3,3.8-0.4,5.3-0.4C235.6,21.6,238.3,22.4,240.1,24.1z"/>
		</g>
		<g>
			<path fill="#CCCCCC" d="M261.1,23c0,0.6-0.3,1-1,1h-8.3V36c0,3.7,1.7,5.5,5,5.5c0.7,0,1.5-0.1,2.2-0.2c0.7-0.1,1.1-0.2,1.2-0.2
				c0.6,0,0.9,0.2,0.9,0.7v0.3c0,0.5-0.2,0.8-0.7,0.9c-5.8,1.7-10.6-0.1-10.6-6.9V17.8c0-0.6,0.3-1,1-1h0.2c0.6,0,1,0.3,1,1V22h8.3
				C260.8,22,261.1,22.3,261.1,23L261.1,23z"/>
		</g>
		<g>
			<path fill="#CCCCCC" d="M282.3,31.9c-0.7,0.7-2.1,1.1-3.9,1.3l-10.8,1.1c0.5,4.7,3.4,7.1,7.8,7.1c1.6,0,3.4-0.3,5.2-0.9
				c0.7-0.2,1.1,0,1.1,0.6v0.2c0,0.6-0.3,0.9-0.8,1.1c-2.1,0.7-4,1-5.8,1c-3,0-5.4-0.9-7.2-2.8c-1.8-1.9-2.7-4.6-2.7-8.1
				c0-3.5,0.8-6.2,2.5-8.1c1.6-1.9,4-2.9,7.1-2.9c2.6,0,4.7,0.7,6.2,2c1.5,1.3,2.3,3.1,2.3,5.3C283.4,30.3,283,31.3,282.3,31.9z
				 M278,31.3c2.5-0.3,3.3-1,3.3-2.6c0-1.6-0.6-2.8-1.7-3.8c-1.1-0.9-2.7-1.4-4.7-1.4c-4.8,0-7.5,3-7.5,8.9L278,31.3z"/>
		</g>
		<g>
			<path fill="#CCCCCC" d="M299.7,22.7L299.7,22.7c0,0.7-0.3,1-1,1c-4,0.1-5.7,0.3-6.5,1c-0.5,0.5-0.6,1-0.6,2v15.4c0,0.6-0.3,1-1,1
				h-0.2c-0.6,0-1-0.3-1-1V26.6c0-2.1,0.4-3.3,2.5-4.1c1.4-0.4,3.5-0.7,6.8-0.7C299.4,21.8,299.7,22.1,299.7,22.7z"/>
		</g>
		<g>
			<path fill="#CCCCCC" d="M303.7,41.3L303.7,41.3c0-0.7,0.4-1,1.1-0.8c3,0.9,6,1.2,8.4,0.9c2.4-0.3,4-1.6,4-3.7
				c0-2-1.3-3.2-4.5-4.2l-4-1.1c-3.5-1-5.2-2.8-5.2-5.4c0-2.6,1.8-4.4,4.4-5c2.6-0.6,5.9-0.4,9.3,0.5c0.5,0.2,0.8,0.5,0.8,1.1
				c0,0.7-0.4,1-1.1,0.8c-2.6-0.7-5.3-1-7.5-0.6c-2.2,0.3-3.7,1.5-3.7,3.2c0,1.6,1.2,2.8,3.5,3.5l4.1,1.2c4.2,1.2,6,3.1,6,6
				c0,2.9-2,4.9-4.9,5.6c-2.9,0.7-6.5,0.4-10-0.8C303.9,42.2,303.7,41.8,303.7,41.3z"/>
		</g>
	</g>
</g>
<g>
	<path fill="none" d="M28,3.1c-4.9,0-9.5,1.3-13.5,3.6c-1.9,3.7-3,7.9-3,12.3c0,4.8,1.2,9.2,3.4,13.1c0.2-0.3,0.5-0.6,0.9-0.8
		c2.2-1.5,5.4-0.8,7.2,1.8c1.8,2.5,1.5,5.8-0.7,7.3c0,0-0.1,0-0.1,0.1c4.6,3.5,10.3,5.6,16.6,5.6c4.9,0,9.5-1.3,13.5-3.6
		c1.9-3.7,3-7.9,3-12.3C55.1,15.2,42.9,3.1,28,3.1z M21.5,12c-1.6,1.5-3.8,1.8-4.9,0.6c-1.1-1.2-0.7-3.3,0.9-4.8s3.8-1.8,4.9-0.6
		C23.6,8.3,23.1,10.5,21.5,12z M42,26c-1,0.3-2-0.4-2.3-1.5c-0.3-1.1,0.3-2.2,1.2-2.5c1-0.3,2,0.4,2.3,1.5C43.6,24.6,43,25.7,42,26z
		 M44.7,14.6c1-1,3.2-0.6,4.7,1c1.6,1.6,2,3.7,1,4.7c-1,1-3.2,0.6-4.7-1C44.1,17.8,43.6,15.7,44.7,14.6z M49.9,33.9
		c-1.4,0-2.6-1.3-2.6-2.9c0-1.6,1.2-2.9,2.6-2.9c1.4,0,2.6,1.3,2.6,2.9C52.5,32.6,51.3,33.9,49.9,33.9z"/>
	<path fill="#F99A10" d="M22.1,40.5c-2.2,1.4-5.3,0.6-7-1.8c-1.5-2.1-1.5-4.8-0.1-6.5c-2.2-3.9-3.4-8.4-3.4-13.1
		c0-4.4,1.1-8.6,3-12.3C6.3,11.3,0.9,20.1,0.9,30.2c0,15,12.1,27.1,27.1,27.1c10.5,0,19.7-6,24.1-14.8c-4,2.3-8.6,3.6-13.5,3.6
		C32.4,46.1,26.7,44,22.1,40.5z"/>
	
		<ellipse transform="matrix(0.9668 -0.2554 0.2554 0.9668 -4.7393 11.3956)" fill="#FBB03B" cx="41.5" cy="23.9" rx="1.8" ry="2.1"/>
	<ellipse fill="#FBB03B" cx="49.9" cy="31" rx="2.6" ry="2.9"/>
	<ellipse transform="matrix(0.7071 -0.7071 0.7071 0.7071 1.5746 38.7321)" fill="#F7931E" cx="47.5" cy="17.5" rx="2.7" ry="4"/>
	<ellipse transform="matrix(0.7314 -0.6819 0.6819 0.7314 -1.4728 15.9746)" fill="#FBB03B" cx="19.5" cy="9.9" rx="4" ry="2.9"/>
	<path fill="#F7931E" d="M15,38.6c1.7,2.5,4.9,3.3,7,1.8c0,0,0.1,0,0.1-0.1c2.2-1.5,2.5-4.8,0.7-7.3c-1.8-2.5-5-3.3-7.2-1.8
		c-0.3,0.2-0.6,0.5-0.9,0.8C13.5,33.8,13.5,36.5,15,38.6z"/>
</g>
</svg>
